solid whole case
facet normal -1.0 -9.487398244304718e-18 -3.53117758334378e-16
  outer loop
    vertex 180.45000000003893 24.085723210240946 40.76501967125429
    vertex 180.45000000003895 28.038989174180763 42.849407551920876
    vertex 180.45000000003895 28.414276789579414 42.800000000040036
  endloop
endfacet
facet normal -1.0 -9.487398244304718e-18 -3.53117758334378e-16
  outer loop
    vertex 180.45000000003895 28.038989174180763 42.849407551920876
    vertex 180.45000000003893 24.085723210240946 40.76501967125429
    vertex 180.45000000003893 23.914276789579446 44.25000000004
  endloop
endfacet
facet normal -1.0 -9.487398244304718e-18 -3.53117758334378e-16
  outer loop
    vertex 180.45000000003895 28.038989174180763 42.849407551920876
    vertex 180.45000000003893 23.914276789579446 44.25000000004
    vertex 180.45000000003895 27.68927678957941 42.9942631645526
  endloop
endfacet
facet normal -1.0 -9.487398244304718e-18 -3.53117758334378e-16
  outer loop
    vertex 180.45000000003895 27.68927678957941 42.9942631645526
    vertex 180.45000000003893 23.914276789579446 44.25000000004
    vertex 180.45000000003895 27.388971956858924 43.22469516731954
  endloop
endfacet
facet normal -1.0 -9.487398244304718e-18 -3.53117758334378e-16
  outer loop
    vertex 180.45000000003895 27.388971956858924 43.22469516731954
    vertex 180.45000000003893 23.914276789579446 44.25000000004
    vertex 180.45000000003895 27.15853995409198 43.52500000004003
  endloop
endfacet
facet normal -1.0 -9.487398244304718e-18 -3.53117758334378e-16
  outer loop
    vertex 180.45000000003895 27.15853995409198 43.52500000004003
    vertex 180.45000000003893 23.914276789579446 44.25000000004
    vertex 180.45000000003895 27.013684341460262 43.87471238464138
  endloop
endfacet
facet normal -1.0 -9.487398244304718e-18 -3.53117758334378e-16
  outer loop
    vertex 180.45000000003895 27.013684341460262 43.87471238464138
    vertex 180.45000000003893 23.914276789579446 44.25000000004
    vertex 180.45000000003895 26.96427678957942 44.25000000004003
  endloop
endfacet
facet normal -1.0 -9.487398244304718e-18 -3.53117758334378e-16
  outer loop
    vertex 180.45000000003895 26.96427678957942 44.25000000004003
    vertex 180.45000000003893 23.914276789579446 44.25000000004
    vertex 180.45000000003893 24.085723210240925 47.734980328825685
  endloop
endfacet
facet normal -1.0 -9.487398244304718e-18 -3.53117758334378e-16
  outer loop
    vertex 180.45000000003895 26.96427678957942 44.25000000004003
    vertex 180.45000000003893 24.085723210240925 47.734980328825685
    vertex 180.45000000003895 27.013684341460262 44.62528761543868
  endloop
endfacet
facet normal -1.0 -9.487398244304718e-18 -3.53117758334378e-16
  outer loop
    vertex 180.45000000003895 27.013684341460262 44.62528761543868
    vertex 180.45000000003893 24.085723210240925 47.734980328825685
    vertex 180.45000000003895 27.15853995409198 44.97500000004003
  endloop
endfacet
facet normal -1.0 -9.487398244304718e-18 -3.53117758334378e-16
  outer loop
    vertex 180.45000000003895 27.15853995409198 44.97500000004003
    vertex 180.45000000003893 24.085723210240925 47.734980328825685
    vertex 180.45000000003895 27.388971956858924 45.275304832760526
  endloop
endfacet
facet normal -1.0 -9.487398244304718e-18 -3.53117758334378e-16
  outer loop
    vertex 180.45000000003895 27.388971956858924 45.275304832760526
    vertex 180.45000000003893 24.085723210240925 47.734980328825685
    vertex 180.45000000003895 27.68927678957941 45.505736835527465
  endloop
endfacet
facet normal -1.0 -9.487398244304718e-18 -3.53117758334378e-16
  outer loop
    vertex 180.45000000003895 27.68927678957941 45.505736835527465
    vertex 180.45000000003893 24.085723210240925 47.734980328825685
    vertex 180.45000000003895 28.038989174180763 45.65059244815918
  endloop
endfacet
facet normal -1.0 -9.487398244304718e-18 -3.53117758334378e-16
  outer loop
    vertex 180.45000000003895 28.038989174180763 45.65059244815918
    vertex 180.45000000003893 24.085723210240925 47.734980328825685
    vertex 180.45000000003895 28.414276789579414 45.70000000004003
  endloop
endfacet
facet normal -1.0 -9.487398244304718e-18 -3.53117758334378e-16
  outer loop
    vertex 180.45000000003893 28.11820792736618 27.491424144050487
    vertex 180.45000000003893 84.91427678957942 24.500000000040007
    vertex 180.4500000000389 29.914276789579414 24.500000000040007
  endloop
endfacet
facet normal -1.0 -9.487398244304718e-18 -3.53117758334378e-16
  outer loop
    vertex 180.45000000003893 84.91427678957942 24.500000000040007
    vertex 180.45000000003893 28.11820792736618 27.491424144050487
    vertex 180.45000000003893 86.71034565179275 27.491424144050512
  endloop
endfacet
facet normal -1.0 -9.487398244304718e-18 -3.53117758334378e-16
  outer loop
    vertex 180.45000000003893 86.71034565179275 27.491424144050512
    vertex 180.45000000003893 28.11820792736618 27.491424144050487
    vertex 180.45000000003907 36.21427678957942 27.500000000039933
  endloop
endfacet
facet normal -1.0 -9.487398244304718e-18 -3.53117758334378e-16
  outer loop
    vertex 180.45000000003907 36.21427678957942 27.500000000039933
    vertex 180.45000000003893 28.11820792736618 27.491424144050487
    vertex 180.45000000003893 26.6244322885542 30.644694844144723
  endloop
endfacet
facet normal -1.0 -9.487398244304718e-18 -3.53117758334378e-16
  outer loop
    vertex 180.45000000003907 36.21427678957942 27.500000000039933
    vertex 180.45000000003893 26.6244322885542 30.644694844144723
    vertex 180.4500000000389 36.214276789579415 61.000000000039975
  endloop
endfacet
facet normal -1.0 -9.487398244304718e-18 -3.53117758334378e-16
  outer loop
    vertex 180.4500000000389 36.214276789579415 61.000000000039975
    vertex 180.45000000003893 26.6244322885542 30.644694844144723
    vertex 180.45000000003895 29.81486923769857 43.87471238464137
  endloop
endfacet
facet normal -1.0 -9.487398244304718e-18 -3.53117758334378e-16
  outer loop
    vertex 180.45000000003895 29.81486923769857 43.87471238464137
    vertex 180.45000000003893 26.6244322885542 30.644694844144723
    vertex 180.45000000003895 29.670013625066847 43.52500000004002
  endloop
endfacet
facet normal -1.0 -9.487398244304718e-18 -3.53117758334378e-16
  outer loop
    vertex 180.45000000003895 29.670013625066847 43.52500000004002
    vertex 180.45000000003893 26.6244322885542 30.644694844144723
    vertex 180.45000000003893 25.447376065725862 33.92935927380599
  endloop
endfacet
facet normal -1.0 -9.487398244304718e-18 -3.53117758334378e-16
  outer loop
    vertex 180.45000000003895 29.670013625066847 43.52500000004002
    vertex 180.45000000003893 25.447376065725862 33.92935927380599
    vertex 180.45000000003895 29.439581622299904 43.22469516731954
  endloop
endfacet
facet normal -1.0 -9.487398244304718e-18 -3.53117758334378e-16
  outer loop
    vertex 180.45000000003895 29.439581622299904 43.22469516731954
    vertex 180.45000000003893 25.447376065725862 33.92935927380599
    vertex 180.45000000003893 24.59840672217986 37.31369566679355
  endloop
endfacet
facet normal -1.0 -9.487398244304718e-18 -3.53117758334378e-16
  outer loop
    vertex 180.45000000003895 29.439581622299904 43.22469516731954
    vertex 180.45000000003893 24.59840672217986 37.31369566679355
    vertex 180.45000000003895 29.13927678957942 42.9942631645526
  endloop
endfacet
facet normal -1.0 -9.487398244304718e-18 -3.53117758334378e-16
  outer loop
    vertex 180.45000000003895 29.13927678957942 42.9942631645526
    vertex 180.45000000003893 24.59840672217986 37.31369566679355
    vertex 180.45000000003893 24.085723210240946 40.76501967125429
  endloop
endfacet
facet normal -1.0 -9.487398244304718e-18 -3.53117758334378e-16
  outer loop
    vertex 180.45000000003895 29.13927678957942 42.9942631645526
    vertex 180.45000000003893 24.085723210240946 40.76501967125429
    vertex 180.45000000003895 28.789564404978066 42.849407551920876
  endloop
endfacet
facet normal -1.0 -9.487398244304718e-18 -3.53117758334378e-16
  outer loop
    vertex 180.45000000003895 28.789564404978066 42.849407551920876
    vertex 180.45000000003893 24.085723210240946 40.76501967125429
    vertex 180.45000000003895 28.414276789579414 42.800000000040036
  endloop
endfacet
facet normal -1.0 -9.487398244304718e-18 -3.53117758334378e-16
  outer loop
    vertex 180.4500000000389 36.214276789579415 61.000000000039975
    vertex 180.45000000003895 29.81486923769857 43.87471238464137
    vertex 180.45000000003895 29.864276789579414 44.25000000004003
  endloop
endfacet
facet normal -1.0 -9.487398244304718e-18 -3.53117758334378e-16
  outer loop
    vertex 180.4500000000389 36.214276789579415 61.000000000039975
    vertex 180.45000000003895 29.864276789579414 44.25000000004003
    vertex 180.45000000003895 29.81486923769857 44.62528761543868
  endloop
endfacet
facet normal -1.0 -9.487398244304718e-18 -3.53117758334378e-16
  outer loop
    vertex 180.4500000000389 36.214276789579415 61.000000000039975
    vertex 180.45000000003895 29.81486923769857 44.62528761543868
    vertex 180.45000000003895 29.670013625066847 44.975000000040026
  endloop
endfacet
facet normal -1.0 -9.487398244304718e-18 -3.53117758334378e-16
  outer loop
    vertex 180.4500000000389 36.214276789579415 61.000000000039975
    vertex 180.45000000003895 29.670013625066847 44.975000000040026
    vertex 180.45000000003895 29.439581622299904 45.275304832760526
  endloop
endfacet
facet normal -1.0 -9.487398244304718e-18 -3.53117758334378e-16
  outer loop
    vertex 180.4500000000389 36.214276789579415 61.000000000039975
    vertex 180.45000000003895 29.439581622299904 45.275304832760526
    vertex 180.45000000003895 29.13927678957942 45.505736835527465
  endloop
endfacet
facet normal -1.0 -9.487398244304718e-18 -3.53117758334378e-16
  outer loop
    vertex 180.4500000000389 36.214276789579415 61.000000000039975
    vertex 180.45000000003895 29.13927678957942 45.505736835527465
    vertex 180.45000000003895 28.789564404978066 45.65059244815918
  endloop
endfacet
facet normal -1.0 -9.487398244304718e-18 -3.53117758334378e-16
  outer loop
    vertex 180.4500000000389 36.214276789579415 61.000000000039975
    vertex 180.45000000003895 28.789564404978066 45.65059244815918
    vertex 180.45000000003895 28.414276789579414 45.70000000004003
  endloop
endfacet
facet normal -1.0 -9.487398244304718e-18 -3.53117758334378e-16
  outer loop
    vertex 180.4500000000389 36.214276789579415 61.000000000039975
    vertex 180.45000000003895 28.414276789579414 45.70000000004003
    vertex 180.45000000003893 24.085723210240925 47.734980328825685
  endloop
endfacet
facet normal -1.0 -9.487398244304718e-18 -3.53117758334378e-16
  outer loop
    vertex 180.4500000000389 36.214276789579415 61.000000000039975
    vertex 180.45000000003893 24.085723210240925 47.734980328825685
    vertex 180.45000000003893 24.59840672217984 51.186304333286415
  endloop
endfacet
facet normal -1.0 -9.487398244304718e-18 -3.53117758334378e-16
  outer loop
    vertex 180.4500000000389 36.214276789579415 61.000000000039975
    vertex 180.45000000003893 24.59840672217984 51.186304333286415
    vertex 180.45000000003893 25.447376065725816 54.57064072627397
  endloop
endfacet
facet normal -1.0 -9.487398244304718e-18 -3.53117758334378e-16
  outer loop
    vertex 180.4500000000389 36.214276789579415 61.000000000039975
    vertex 180.45000000003893 25.447376065725816 54.57064072627397
    vertex 180.45000000003893 26.624432288554143 57.85530515593525
  endloop
endfacet
facet normal -1.0 -9.487398244304718e-18 -3.53117758334378e-16
  outer loop
    vertex 180.4500000000389 36.214276789579415 61.000000000039975
    vertex 180.45000000003893 26.624432288554143 57.85530515593525
    vertex 180.45000000003893 28.11820792736611 61.008575856029495
  endloop
endfacet
facet normal -1.0 -9.487398244304718e-18 -3.53117758334378e-16
  outer loop
    vertex 180.4500000000389 36.214276789579415 61.000000000039975
    vertex 180.45000000003893 28.11820792736611 61.008575856029495
    vertex 180.450000000039 78.61427678957945 61.000000000040025
  endloop
endfacet
facet normal -1.0 -9.487398244304718e-18 -3.53117758334378e-16
  outer loop
    vertex 180.45000000003893 86.71034565179275 27.491424144050512
    vertex 180.45000000003895 78.61427678957942 27.500000000040057
    vertex 180.45000000003893 88.20412129060473 30.644694844144748
  endloop
endfacet
facet normal -1.0 -9.487398244304718e-18 -3.53117758334378e-16
  outer loop
    vertex 180.45000000003895 78.61427678957942 27.500000000040057
    vertex 180.45000000003893 86.71034565179275 27.491424144050512
    vertex 180.45000000003907 36.21427678957942 27.500000000039933
  endloop
endfacet
facet normal -1.0 -9.487398244304718e-18 -3.53117758334378e-16
  outer loop
    vertex 180.45000000003893 88.20412129060473 30.644694844144748
    vertex 180.45000000003895 78.61427678957942 27.500000000040057
    vertex 180.450000000039 78.61427678957945 61.000000000040025
  endloop
endfacet
facet normal -1.0 -9.487398244304718e-18 -3.53117758334378e-16
  outer loop
    vertex 180.45000000003893 88.20412129060473 30.644694844144748
    vertex 180.450000000039 78.61427678957945 61.000000000040025
    vertex 180.45000000003893 85.01368434146026 43.87471238464138
  endloop
endfacet
facet normal -1.0 -9.487398244304718e-18 -3.53117758334378e-16
  outer loop
    vertex 180.45000000003893 88.20412129060473 30.644694844144748
    vertex 180.45000000003893 85.01368434146026 43.87471238464138
    vertex 180.45000000003893 85.15853995409198 43.52500000004003
  endloop
endfacet
facet normal -1.0 -9.487398244304718e-18 -3.53117758334378e-16
  outer loop
    vertex 180.45000000003893 88.20412129060473 30.644694844144748
    vertex 180.45000000003893 85.15853995409198 43.52500000004003
    vertex 180.45000000003893 89.38117751343307 33.92935927380602
  endloop
endfacet
facet normal -1.0 -9.487398244304718e-18 -3.53117758334378e-16
  outer loop
    vertex 180.45000000003893 89.38117751343307 33.92935927380602
    vertex 180.45000000003893 85.15853995409198 43.52500000004003
    vertex 180.45000000003893 85.38897195685892 43.22469516731954
  endloop
endfacet
facet normal -1.0 -9.487398244304718e-18 -3.53117758334378e-16
  outer loop
    vertex 180.45000000003893 89.38117751343307 33.92935927380602
    vertex 180.45000000003893 85.38897195685892 43.22469516731954
    vertex 180.45000000003893 90.23014685697906 37.31369566679357
  endloop
endfacet
facet normal -1.0 -9.487398244304718e-18 -3.53117758334378e-16
  outer loop
    vertex 180.45000000003893 90.23014685697906 37.31369566679357
    vertex 180.45000000003893 85.38897195685892 43.22469516731954
    vertex 180.45000000003893 85.68927678957942 42.9942631645526
  endloop
endfacet
facet normal -1.0 -9.487398244304718e-18 -3.53117758334378e-16
  outer loop
    vertex 180.45000000003893 90.23014685697906 37.31369566679357
    vertex 180.45000000003893 85.68927678957942 42.9942631645526
    vertex 180.45000000003893 90.74283036891799 40.76501967125431
  endloop
endfacet
facet normal -1.0 -9.487398244304718e-18 -3.53117758334378e-16
  outer loop
    vertex 180.45000000003893 90.74283036891799 40.76501967125431
    vertex 180.45000000003893 85.68927678957942 42.9942631645526
    vertex 180.45000000003893 86.03898917418076 42.849407551920876
  endloop
endfacet
facet normal -1.0 -9.487398244304718e-18 -3.53117758334378e-16
  outer loop
    vertex 180.45000000003893 90.74283036891799 40.76501967125431
    vertex 180.45000000003893 86.03898917418076 42.849407551920876
    vertex 180.45000000003893 86.41427678957942 42.800000000040036
  endloop
endfacet
facet normal -1.0 -9.487398244304718e-18 -3.53117758334378e-16
  outer loop
    vertex 180.45000000003893 85.01368434146026 43.87471238464138
    vertex 180.450000000039 78.61427678957945 61.000000000040025
    vertex 180.45000000003893 84.96427678957942 44.25000000004003
  endloop
endfacet
facet normal -1.0 -9.487398244304718e-18 -3.53117758334378e-16
  outer loop
    vertex 180.45000000003893 84.96427678957942 44.25000000004003
    vertex 180.450000000039 78.61427678957945 61.000000000040025
    vertex 180.45000000003893 85.01368434146026 44.62528761543868
  endloop
endfacet
facet normal -1.0 -9.487398244304718e-18 -3.53117758334378e-16
  outer loop
    vertex 180.45000000003893 85.01368434146026 44.62528761543868
    vertex 180.450000000039 78.61427678957945 61.000000000040025
    vertex 180.45000000003893 85.15853995409198 44.97500000004003
  endloop
endfacet
facet normal -1.0 -9.487398244304718e-18 -3.53117758334378e-16
  outer loop
    vertex 180.45000000003893 85.15853995409198 44.97500000004003
    vertex 180.450000000039 78.61427678957945 61.000000000040025
    vertex 180.45000000003893 85.38897195685892 45.275304832760526
  endloop
endfacet
facet normal -1.0 -9.487398244304718e-18 -3.53117758334378e-16
  outer loop
    vertex 180.45000000003893 85.38897195685892 45.275304832760526
    vertex 180.450000000039 78.61427678957945 61.000000000040025
    vertex 180.45000000003893 85.68927678957942 45.505736835527465
  endloop
endfacet
facet normal -1.0 -9.487398244304718e-18 -3.53117758334378e-16
  outer loop
    vertex 180.45000000003893 85.68927678957942 45.505736835527465
    vertex 180.450000000039 78.61427678957945 61.000000000040025
    vertex 180.45000000003893 86.03898917418076 45.65059244815918
  endloop
endfacet
facet normal -1.0 -9.487398244304718e-18 -3.53117758334378e-16
  outer loop
    vertex 180.45000000003893 86.03898917418076 45.65059244815918
    vertex 180.450000000039 78.61427678957945 61.000000000040025
    vertex 180.45000000003893 86.41427678957942 45.70000000004003
  endloop
endfacet
facet normal -1.0 -9.487398244304718e-18 -3.53117758334378e-16
  outer loop
    vertex 180.45000000003893 86.41427678957942 45.70000000004003
    vertex 180.450000000039 78.61427678957945 61.000000000040025
    vertex 180.45000000003893 90.742830368918 47.734980328825706
  endloop
endfacet
facet normal -1.0 -9.487398244304718e-18 -3.53117758334378e-16
  outer loop
    vertex 180.45000000003893 90.742830368918 47.734980328825706
    vertex 180.450000000039 78.61427678957945 61.000000000040025
    vertex 180.45000000003893 90.2301468569791 51.18630433328644
  endloop
endfacet
facet normal -1.0 -9.487398244304718e-18 -3.53117758334378e-16
  outer loop
    vertex 180.45000000003893 90.2301468569791 51.18630433328644
    vertex 180.450000000039 78.61427678957945 61.000000000040025
    vertex 180.45000000003893 89.38117751343312 54.570640726274
  endloop
endfacet
facet normal -1.0 -9.487398244304718e-18 -3.53117758334378e-16
  outer loop
    vertex 180.45000000003893 89.38117751343312 54.570640726274
    vertex 180.450000000039 78.61427678957945 61.000000000040025
    vertex 180.45000000003893 88.20412129060479 57.85530515593527
  endloop
endfacet
facet normal -1.0 -9.487398244304718e-18 -3.53117758334378e-16
  outer loop
    vertex 180.45000000003893 88.20412129060479 57.85530515593527
    vertex 180.450000000039 78.61427678957945 61.000000000040025
    vertex 180.45000000003893 86.71034565179284 61.008575856029516
  endloop
endfacet
facet normal -1.0 -9.487398244304718e-18 -3.53117758334378e-16
  outer loop
    vertex 180.45000000003893 86.71034565179284 61.008575856029516
    vertex 180.450000000039 78.61427678957945 61.000000000040025
    vertex 180.45000000003893 28.11820792736611 61.008575856029495
  endloop
endfacet
facet normal -1.0 -9.487398244304718e-18 -3.53117758334378e-16
  outer loop
    vertex 180.45000000003893 86.71034565179284 61.008575856029516
    vertex 180.45000000003893 28.11820792736611 61.008575856029495
    vertex 180.4500000000389 29.914276789579425 64.00000000004002
  endloop
endfacet
facet normal -1.0 -9.487398244304718e-18 -3.53117758334378e-16
  outer loop
    vertex 180.45000000003893 86.71034565179284 61.008575856029516
    vertex 180.4500000000389 29.914276789579425 64.00000000004002
    vertex 180.4500000000389 84.91427678957953 64.00000000004002
  endloop
endfacet
facet normal -1.0 -9.487398244304718e-18 -3.53117758334378e-16
  outer loop
    vertex 180.45000000003893 90.74283036891799 40.76501967125431
    vertex 180.45000000003893 86.78956440497808 42.849407551920876
    vertex 180.45000000003893 90.91427678957947 44.25000000004002
  endloop
endfacet
facet normal -1.0 -9.487398244304718e-18 -3.53117758334378e-16
  outer loop
    vertex 180.45000000003893 86.78956440497808 42.849407551920876
    vertex 180.45000000003893 90.74283036891799 40.76501967125431
    vertex 180.45000000003893 86.41427678957942 42.800000000040036
  endloop
endfacet
facet normal -1.0 -9.487398244304718e-18 -3.53117758334378e-16
  outer loop
    vertex 180.45000000003893 90.91427678957947 44.25000000004002
    vertex 180.45000000003893 86.78956440497808 42.849407551920876
    vertex 180.45000000003893 87.13927678957941 42.9942631645526
  endloop
endfacet
facet normal -1.0 -9.487398244304718e-18 -3.53117758334378e-16
  outer loop
    vertex 180.45000000003893 90.91427678957947 44.25000000004002
    vertex 180.45000000003893 87.13927678957941 42.9942631645526
    vertex 180.45000000003893 87.43958162229991 43.22469516731954
  endloop
endfacet
facet normal -1.0 -9.487398244304718e-18 -3.53117758334378e-16
  outer loop
    vertex 180.45000000003893 90.91427678957947 44.25000000004002
    vertex 180.45000000003893 87.43958162229991 43.22469516731954
    vertex 180.45000000003893 87.67001362506686 43.52500000004002
  endloop
endfacet
facet normal -1.0 -9.487398244304718e-18 -3.53117758334378e-16
  outer loop
    vertex 180.45000000003893 90.91427678957947 44.25000000004002
    vertex 180.45000000003893 87.67001362506686 43.52500000004002
    vertex 180.45000000003893 87.81486923769856 43.87471238464137
  endloop
endfacet
facet normal -1.0 -9.487398244304718e-18 -3.53117758334378e-16
  outer loop
    vertex 180.45000000003893 90.91427678957947 44.25000000004002
    vertex 180.45000000003893 87.81486923769856 43.87471238464137
    vertex 180.45000000003893 87.86427678957942 44.25000000004003
  endloop
endfacet
facet normal -1.0 -9.487398244304718e-18 -3.53117758334378e-16
  outer loop
    vertex 180.45000000003893 90.91427678957947 44.25000000004002
    vertex 180.45000000003893 87.86427678957942 44.25000000004003
    vertex 180.45000000003893 90.742830368918 47.734980328825706
  endloop
endfacet
facet normal -1.0 -9.487398244304718e-18 -3.53117758334378e-16
  outer loop
    vertex 180.45000000003893 90.742830368918 47.734980328825706
    vertex 180.45000000003893 87.86427678957942 44.25000000004003
    vertex 180.45000000003893 87.81486923769856 44.62528761543868
  endloop
endfacet
facet normal -1.0 -9.487398244304718e-18 -3.53117758334378e-16
  outer loop
    vertex 180.45000000003893 90.742830368918 47.734980328825706
    vertex 180.45000000003893 87.81486923769856 44.62528761543868
    vertex 180.45000000003893 87.67001362506686 44.975000000040026
  endloop
endfacet
facet normal -1.0 -9.487398244304718e-18 -3.53117758334378e-16
  outer loop
    vertex 180.45000000003893 90.742830368918 47.734980328825706
    vertex 180.45000000003893 87.67001362506686 44.975000000040026
    vertex 180.45000000003893 87.43958162229991 45.275304832760526
  endloop
endfacet
facet normal -1.0 -9.487398244304718e-18 -3.53117758334378e-16
  outer loop
    vertex 180.45000000003893 90.742830368918 47.734980328825706
    vertex 180.45000000003893 87.43958162229991 45.275304832760526
    vertex 180.45000000003893 87.13927678957941 45.505736835527465
  endloop
endfacet
facet normal -1.0 -9.487398244304718e-18 -3.53117758334378e-16
  outer loop
    vertex 180.45000000003893 90.742830368918 47.734980328825706
    vertex 180.45000000003893 87.13927678957941 45.505736835527465
    vertex 180.45000000003893 86.78956440497808 45.65059244815918
  endloop
endfacet
facet normal -1.0 -9.487398244304718e-18 -3.53117758334378e-16
  outer loop
    vertex 180.45000000003893 90.742830368918 47.734980328825706
    vertex 180.45000000003893 86.78956440497808 45.65059244815918
    vertex 180.45000000003893 86.41427678957942 45.70000000004003
  endloop
endfacet
facet normal 8.253560436726293e-15 5.320691476505399e-16 -1.0
  outer loop
    vertex 182.50000000003885 78.61427678957945 61.00000000004001
    vertex 180.4500000000389 36.214276789579415 61.000000000039975
    vertex 180.450000000039 78.61427678957945 61.000000000040025
  endloop
endfacet
facet normal 8.253560436726293e-15 5.320691476505399e-16 -1.0
  outer loop
    vertex 180.4500000000389 36.214276789579415 61.000000000039975
    vertex 182.50000000003885 78.61427678957945 61.00000000004001
    vertex 182.5000000000389 36.2142767895794 61.00000000004001
  endloop
endfacet
facet normal 9.76793172092487e-15 1.0 8.417810395667342e-17
  outer loop
    vertex 182.5000000000389 36.2142767895794 61.00000000004001
    vertex 180.45000000003907 36.21427678957942 27.500000000039933
    vertex 180.4500000000389 36.214276789579415 61.000000000039975
  endloop
endfacet
facet normal 9.76793172092487e-15 1.0 8.417810395667342e-17
  outer loop
    vertex 180.45000000003907 36.21427678957942 27.500000000039933
    vertex 182.5000000000389 36.2142767895794 61.00000000004001
    vertex 182.50000000003885 36.214276789579394 27.50000000004003
  endloop
endfacet
facet normal 2.076907004833915e-14 3.128209572088523e-18 -1.0
  outer loop
    vertex 182.5000000000389 29.914276789579414 24.50000000004005
    vertex 180.45000000003893 84.91427678957942 24.500000000040007
    vertex 182.5000000000389 84.91427678957945 24.50000000004005
  endloop
endfacet
facet normal 2.076907004833915e-14 3.128209572088523e-18 -1.0
  outer loop
    vertex 180.45000000003893 84.91427678957942 24.500000000040007
    vertex 182.5000000000389 29.914276789579414 24.50000000004005
    vertex 180.4500000000389 29.914276789579414 24.500000000040007
  endloop
endfacet
facet normal -1.8914409334164092e-14 -1.5130716386312751e-15 1.0
  outer loop
    vertex 180.45000000003895 78.61427678957942 27.500000000040057
    vertex 182.50000000003885 36.214276789579394 27.50000000004003
    vertex 182.5000000000388 78.61427678957945 27.500000000040032
  endloop
endfacet
facet normal -1.8914409334164092e-14 -1.5130716386312751e-15 1.0
  outer loop
    vertex 182.50000000003885 36.214276789579394 27.50000000004003
    vertex 180.45000000003895 78.61427678957942 27.500000000040057
    vertex 180.45000000003907 36.21427678957942 27.500000000039933
  endloop
endfacet
facet normal 2.695918572153926e-14 -4.263646099293617e-16 1.0
  outer loop
    vertex 180.4500000000389 29.914276789579425 64.00000000004002
    vertex 182.5000000000389 84.91427678957952 64.00000000003999
    vertex 180.4500000000389 84.91427678957953 64.00000000004002
  endloop
endfacet
facet normal 2.695918572153926e-14 -4.263646099293617e-16 1.0
  outer loop
    vertex 182.5000000000389 84.91427678957952 64.00000000003999
    vertex 180.4500000000389 29.914276789579425 64.00000000004002
    vertex 182.5000000000389 36.2142767895794 64.00000000003993
  endloop
endfacet
facet normal 2.695918572153926e-14 -4.263646099293617e-16 1.0
  outer loop
    vertex 182.5000000000389 36.2142767895794 64.00000000003993
    vertex 180.4500000000389 29.914276789579425 64.00000000004002
    vertex 182.5000000000389 29.914276789579425 64.00000000003998
  endloop
endfacet
facet normal 4.331900691815203e-15 -1.0 3.1566788983744594e-16
  outer loop
    vertex 182.5000000000388 78.61427678957945 27.500000000040032
    vertex 180.450000000039 78.61427678957945 61.000000000040025
    vertex 180.45000000003895 78.61427678957942 27.500000000040057
  endloop
endfacet
facet normal 4.331900691815203e-15 -1.0 3.1566788983744594e-16
  outer loop
    vertex 180.450000000039 78.61427678957945 61.000000000040025
    vertex 182.5000000000388 78.61427678957945 27.500000000040032
    vertex 182.50000000003885 78.61427678957945 61.00000000004001
  endloop
endfacet
facet normal 1.0 -1.6516025482397576e-16 1.6473337783985787e-16
  outer loop
    vertex 182.50000000003894 90.74283036891798 40.76501967125431
    vertex 182.5000000000389 86.78956440497808 42.849407551920876
    vertex 182.5000000000389 86.41427678957942 42.800000000040036
  endloop
endfacet
facet normal 1.0 -1.6516025482397576e-16 1.6473337783985787e-16
  outer loop
    vertex 182.5000000000389 86.78956440497808 42.849407551920876
    vertex 182.50000000003894 90.74283036891798 40.76501967125431
    vertex 182.50000000003894 90.91427678957947 44.25000000004002
  endloop
endfacet
facet normal 1.0 -1.6516025482397576e-16 1.6473337783985787e-16
  outer loop
    vertex 182.5000000000389 86.78956440497808 42.849407551920876
    vertex 182.50000000003894 90.91427678957947 44.25000000004002
    vertex 182.5000000000389 87.13927678957941 42.9942631645526
  endloop
endfacet
facet normal 1.0 -1.6516025482397576e-16 1.6473337783985787e-16
  outer loop
    vertex 182.5000000000389 87.13927678957941 42.9942631645526
    vertex 182.50000000003894 90.91427678957947 44.25000000004002
    vertex 182.5000000000389 87.43958162229991 43.22469516731954
  endloop
endfacet
facet normal 1.0 -1.6516025482397576e-16 1.6473337783985787e-16
  outer loop
    vertex 182.5000000000389 87.43958162229991 43.22469516731954
    vertex 182.50000000003894 90.91427678957947 44.25000000004002
    vertex 182.5000000000389 87.67001362506686 43.52500000004002
  endloop
endfacet
facet normal 1.0 -1.6516025482397576e-16 1.6473337783985787e-16
  outer loop
    vertex 182.5000000000389 87.67001362506686 43.52500000004002
    vertex 182.50000000003894 90.91427678957947 44.25000000004002
    vertex 182.5000000000389 87.81486923769856 43.87471238464137
  endloop
endfacet
facet normal 1.0 -1.6516025482397576e-16 1.6473337783985787e-16
  outer loop
    vertex 182.5000000000389 87.81486923769856 43.87471238464137
    vertex 182.50000000003894 90.91427678957947 44.25000000004002
    vertex 182.5000000000389 87.86427678957942 44.25000000004003
  endloop
endfacet
facet normal 1.0 -1.6516025482397576e-16 1.6473337783985787e-16
  outer loop
    vertex 182.5000000000389 87.86427678957942 44.25000000004003
    vertex 182.50000000003894 90.91427678957947 44.25000000004002
    vertex 182.50000000003894 90.74283036891799 47.734980328825706
  endloop
endfacet
facet normal 1.0 -1.6516025482397576e-16 1.6473337783985787e-16
  outer loop
    vertex 182.5000000000389 87.86427678957942 44.25000000004003
    vertex 182.50000000003894 90.74283036891799 47.734980328825706
    vertex 182.5000000000389 87.81486923769856 44.62528761543868
  endloop
endfacet
facet normal 1.0 -1.6516025482397576e-16 1.6473337783985787e-16
  outer loop
    vertex 182.5000000000389 87.81486923769856 44.62528761543868
    vertex 182.50000000003894 90.74283036891799 47.734980328825706
    vertex 182.5000000000389 87.67001362506686 44.975000000040026
  endloop
endfacet
facet normal 1.0 -1.6516025482397576e-16 1.6473337783985787e-16
  outer loop
    vertex 182.5000000000389 87.67001362506686 44.975000000040026
    vertex 182.50000000003894 90.74283036891799 47.734980328825706
    vertex 182.5000000000389 87.43958162229991 45.275304832760526
  endloop
endfacet
facet normal 1.0 -1.6516025482397576e-16 1.6473337783985787e-16
  outer loop
    vertex 182.5000000000389 87.43958162229991 45.275304832760526
    vertex 182.50000000003894 90.74283036891799 47.734980328825706
    vertex 182.5000000000389 87.13927678957941 45.505736835527465
  endloop
endfacet
facet normal 1.0 -1.6516025482397576e-16 1.6473337783985787e-16
  outer loop
    vertex 182.5000000000389 87.13927678957941 45.505736835527465
    vertex 182.50000000003894 90.74283036891799 47.734980328825706
    vertex 182.5000000000389 86.78956440497808 45.65059244815918
  endloop
endfacet
facet normal 1.0 -1.6516025482397576e-16 1.6473337783985787e-16
  outer loop
    vertex 182.5000000000389 86.78956440497808 45.65059244815918
    vertex 182.50000000003894 90.74283036891799 47.734980328825706
    vertex 182.5000000000389 86.41427678957942 45.70000000004003
  endloop
endfacet
facet normal 1.0 -1.6516025482397576e-16 1.6473337783985787e-16
  outer loop
    vertex 182.5000000000389 84.91427678957952 64.00000000003999
    vertex 182.5000000000389 36.2142767895794 64.00000000003993
    vertex 182.50000000003894 86.71034565179282 61.008575856029516
  endloop
endfacet
facet normal 1.0 -1.6516025482397576e-16 1.6473337783985787e-16
  outer loop
    vertex 182.50000000003894 86.71034565179274 27.491424144050512
    vertex 182.5000000000388 78.61427678957945 27.500000000040032
    vertex 182.50000000003885 36.214276789579394 27.50000000004003
  endloop
endfacet
facet normal 1.0 -1.6516025482397576e-16 1.6473337783985787e-16
  outer loop
    vertex 182.5000000000388 78.61427678957945 27.500000000040032
    vertex 182.50000000003894 86.71034565179274 27.491424144050512
    vertex 182.50000000003894 88.20412129060472 30.644694844144748
  endloop
endfacet
facet normal 1.0 -1.6516025482397576e-16 1.6473337783985787e-16
  outer loop
    vertex 182.5000000000388 78.61427678957945 27.500000000040032
    vertex 182.50000000003894 88.20412129060472 30.644694844144748
    vertex 182.50000000003885 78.61427678957945 61.00000000004001
  endloop
endfacet
facet normal 1.0 -1.6516025482397576e-16 1.6473337783985787e-16
  outer loop
    vertex 182.50000000003885 78.61427678957945 61.00000000004001
    vertex 182.50000000003894 88.20412129060472 30.644694844144748
    vertex 182.5000000000389 85.01368434146026 43.87471238464138
  endloop
endfacet
facet normal 1.0 -1.6516025482397576e-16 1.6473337783985787e-16
  outer loop
    vertex 182.5000000000389 85.01368434146026 43.87471238464138
    vertex 182.50000000003894 88.20412129060472 30.644694844144748
    vertex 182.5000000000389 85.15853995409198 43.52500000004003
  endloop
endfacet
facet normal 1.0 -1.6516025482397576e-16 1.6473337783985787e-16
  outer loop
    vertex 182.5000000000389 85.15853995409198 43.52500000004003
    vertex 182.50000000003894 88.20412129060472 30.644694844144748
    vertex 182.50000000003894 89.38117751343307 33.92935927380602
  endloop
endfacet
facet normal 1.0 -1.6516025482397576e-16 1.6473337783985787e-16
  outer loop
    vertex 182.5000000000389 85.15853995409198 43.52500000004003
    vertex 182.50000000003894 89.38117751343307 33.92935927380602
    vertex 182.5000000000389 85.38897195685892 43.22469516731954
  endloop
endfacet
facet normal 1.0 -1.6516025482397576e-16 1.6473337783985787e-16
  outer loop
    vertex 182.5000000000389 85.38897195685892 43.22469516731954
    vertex 182.50000000003894 89.38117751343307 33.92935927380602
    vertex 182.50000000003894 90.23014685697906 37.31369566679357
  endloop
endfacet
facet normal 1.0 -1.6516025482397576e-16 1.6473337783985787e-16
  outer loop
    vertex 182.5000000000389 85.38897195685892 43.22469516731954
    vertex 182.50000000003894 90.23014685697906 37.31369566679357
    vertex 182.5000000000389 85.68927678957942 42.9942631645526
  endloop
endfacet
facet normal 1.0 -1.6516025482397576e-16 1.6473337783985787e-16
  outer loop
    vertex 182.5000000000389 85.68927678957942 42.9942631645526
    vertex 182.50000000003894 90.23014685697906 37.31369566679357
    vertex 182.50000000003894 90.74283036891798 40.76501967125431
  endloop
endfacet
facet normal 1.0 -1.6516025482397576e-16 1.6473337783985787e-16
  outer loop
    vertex 182.5000000000389 85.68927678957942 42.9942631645526
    vertex 182.50000000003894 90.74283036891798 40.76501967125431
    vertex 182.5000000000389 86.03898917418076 42.849407551920876
  endloop
endfacet
facet normal 1.0 -1.6516025482397576e-16 1.6473337783985787e-16
  outer loop
    vertex 182.5000000000389 86.03898917418076 42.849407551920876
    vertex 182.50000000003894 90.74283036891798 40.76501967125431
    vertex 182.5000000000389 86.41427678957942 42.800000000040036
  endloop
endfacet
facet normal 1.0 -1.6516025482397576e-16 1.6473337783985787e-16
  outer loop
    vertex 182.50000000003885 78.61427678957945 61.00000000004001
    vertex 182.5000000000389 85.01368434146026 43.87471238464138
    vertex 182.5000000000389 84.96427678957942 44.25000000004003
  endloop
endfacet
facet normal 1.0 -1.6516025482397576e-16 1.6473337783985787e-16
  outer loop
    vertex 182.50000000003885 78.61427678957945 61.00000000004001
    vertex 182.5000000000389 84.96427678957942 44.25000000004003
    vertex 182.5000000000389 85.01368434146026 44.62528761543868
  endloop
endfacet
facet normal 1.0 -1.6516025482397576e-16 1.6473337783985787e-16
  outer loop
    vertex 182.50000000003885 78.61427678957945 61.00000000004001
    vertex 182.5000000000389 85.01368434146026 44.62528761543868
    vertex 182.5000000000389 85.15853995409198 44.97500000004003
  endloop
endfacet
facet normal 1.0 -1.6516025482397576e-16 1.6473337783985787e-16
  outer loop
    vertex 182.50000000003885 78.61427678957945 61.00000000004001
    vertex 182.5000000000389 85.15853995409198 44.97500000004003
    vertex 182.5000000000389 85.38897195685892 45.275304832760526
  endloop
endfacet
facet normal 1.0 -1.6516025482397576e-16 1.6473337783985787e-16
  outer loop
    vertex 182.50000000003885 78.61427678957945 61.00000000004001
    vertex 182.5000000000389 85.38897195685892 45.275304832760526
    vertex 182.5000000000389 85.68927678957942 45.505736835527465
  endloop
endfacet
facet normal 1.0 -1.6516025482397576e-16 1.6473337783985787e-16
  outer loop
    vertex 182.50000000003885 78.61427678957945 61.00000000004001
    vertex 182.5000000000389 85.68927678957942 45.505736835527465
    vertex 182.5000000000389 86.03898917418076 45.65059244815918
  endloop
endfacet
facet normal 1.0 -1.6516025482397576e-16 1.6473337783985787e-16
  outer loop
    vertex 182.50000000003885 78.61427678957945 61.00000000004001
    vertex 182.5000000000389 86.03898917418076 45.65059244815918
    vertex 182.5000000000389 86.41427678957942 45.70000000004003
  endloop
endfacet
facet normal 1.0 -1.6516025482397576e-16 1.6473337783985787e-16
  outer loop
    vertex 182.50000000003885 78.61427678957945 61.00000000004001
    vertex 182.5000000000389 86.41427678957942 45.70000000004003
    vertex 182.50000000003894 90.74283036891799 47.734980328825706
  endloop
endfacet
facet normal 1.0 -1.6516025482397576e-16 1.6473337783985787e-16
  outer loop
    vertex 182.50000000003885 78.61427678957945 61.00000000004001
    vertex 182.50000000003894 90.74283036891799 47.734980328825706
    vertex 182.50000000003894 90.23014685697909 51.18630433328644
  endloop
endfacet
facet normal 1.0 -1.6516025482397576e-16 1.6473337783985787e-16
  outer loop
    vertex 182.50000000003885 78.61427678957945 61.00000000004001
    vertex 182.50000000003894 90.23014685697909 51.18630433328644
    vertex 182.50000000003894 89.38117751343312 54.570640726274
  endloop
endfacet
facet normal 1.0 -1.6516025482397576e-16 1.6473337783985787e-16
  outer loop
    vertex 182.50000000003885 78.61427678957945 61.00000000004001
    vertex 182.50000000003894 89.38117751343312 54.570640726274
    vertex 182.50000000003894 88.20412129060479 57.85530515593527
  endloop
endfacet
facet normal 1.0 -1.6516025482397576e-16 1.6473337783985787e-16
  outer loop
    vertex 182.50000000003885 78.61427678957945 61.00000000004001
    vertex 182.50000000003894 88.20412129060479 57.85530515593527
    vertex 182.50000000003894 86.71034565179282 61.008575856029516
  endloop
endfacet
facet normal 1.0 -1.6516025482397576e-16 1.6473337783985787e-16
  outer loop
    vertex 182.50000000003885 78.61427678957945 61.00000000004001
    vertex 182.50000000003894 86.71034565179282 61.008575856029516
    vertex 182.5000000000389 36.2142767895794 61.00000000004001
  endloop
endfacet
facet normal 1.0 -1.6516025482397576e-16 1.6473337783985787e-16
  outer loop
    vertex 182.5000000000389 36.2142767895794 61.00000000004001
    vertex 182.50000000003894 86.71034565179282 61.008575856029516
    vertex 182.50000000003894 28.11820792736612 61.008575856029495
  endloop
endfacet
facet normal 1.0 -1.6516025482397576e-16 1.6473337783985787e-16
  outer loop
    vertex 182.50000000003894 28.11820792736612 61.008575856029495
    vertex 182.50000000003894 86.71034565179282 61.008575856029516
    vertex 182.5000000000389 29.914276789579425 64.00000000003998
  endloop
endfacet
facet normal 1.0 -1.6516025482397576e-16 1.6473337783985787e-16
  outer loop
    vertex 182.5000000000389 29.914276789579425 64.00000000003998
    vertex 182.50000000003894 86.71034565179282 61.008575856029516
    vertex 182.5000000000389 36.2142767895794 64.00000000003993
  endloop
endfacet
facet normal 1.0 -1.6516025482397576e-16 1.6473337783985787e-16
  outer loop
    vertex 182.5000000000389 84.91427678957945 24.50000000004005
    vertex 182.50000000003894 28.11820792736619 27.491424144050487
    vertex 182.5000000000389 29.914276789579414 24.50000000004005
  endloop
endfacet
facet normal 1.0 -1.6516025482397576e-16 1.6473337783985787e-16
  outer loop
    vertex 182.50000000003894 28.11820792736619 27.491424144050487
    vertex 182.5000000000389 84.91427678957945 24.50000000004005
    vertex 182.50000000003894 86.71034565179274 27.491424144050512
  endloop
endfacet
facet normal 1.0 -1.6516025482397576e-16 1.6473337783985787e-16
  outer loop
    vertex 182.50000000003894 28.11820792736619 27.491424144050487
    vertex 182.50000000003894 86.71034565179274 27.491424144050512
    vertex 182.50000000003885 36.214276789579394 27.50000000004003
  endloop
endfacet
facet normal 1.0 -1.6516025482397576e-16 1.6473337783985787e-16
  outer loop
    vertex 182.50000000003894 28.11820792736619 27.491424144050487
    vertex 182.50000000003885 36.214276789579394 27.50000000004003
    vertex 182.50000000003894 26.62443228855421 30.644694844144723
  endloop
endfacet
facet normal 1.0 -1.6516025482397576e-16 1.6473337783985787e-16
  outer loop
    vertex 182.50000000003894 26.62443228855421 30.644694844144723
    vertex 182.50000000003885 36.214276789579394 27.50000000004003
    vertex 182.5000000000389 36.2142767895794 61.00000000004001
  endloop
endfacet
facet normal 1.0 -1.6516025482397576e-16 1.6473337783985787e-16
  outer loop
    vertex 182.50000000003894 26.62443228855421 30.644694844144723
    vertex 182.5000000000389 36.2142767895794 61.00000000004001
    vertex 182.5000000000389 29.81486923769857 43.87471238464137
  endloop
endfacet
facet normal 1.0 -1.6516025482397576e-16 1.6473337783985787e-16
  outer loop
    vertex 182.50000000003894 26.62443228855421 30.644694844144723
    vertex 182.5000000000389 29.81486923769857 43.87471238464137
    vertex 182.5000000000389 29.670013625066847 43.52500000004002
  endloop
endfacet
facet normal 1.0 -1.6516025482397576e-16 1.6473337783985787e-16
  outer loop
    vertex 182.50000000003894 26.62443228855421 30.644694844144723
    vertex 182.5000000000389 29.670013625066847 43.52500000004002
    vertex 182.50000000003894 25.447376065725873 33.92935927380599
  endloop
endfacet
facet normal 1.0 -1.6516025482397576e-16 1.6473337783985787e-16
  outer loop
    vertex 182.50000000003894 25.447376065725873 33.92935927380599
    vertex 182.5000000000389 29.670013625066847 43.52500000004002
    vertex 182.5000000000389 29.439581622299904 43.22469516731954
  endloop
endfacet
facet normal 1.0 -1.6516025482397576e-16 1.6473337783985787e-16
  outer loop
    vertex 182.50000000003894 25.447376065725873 33.92935927380599
    vertex 182.5000000000389 29.439581622299904 43.22469516731954
    vertex 182.50000000003894 24.59840672217987 37.31369566679355
  endloop
endfacet
facet normal 1.0 -1.6516025482397576e-16 1.6473337783985787e-16
  outer loop
    vertex 182.50000000003894 24.59840672217987 37.31369566679355
    vertex 182.5000000000389 29.439581622299904 43.22469516731954
    vertex 182.5000000000389 29.13927678957942 42.9942631645526
  endloop
endfacet
facet normal 1.0 -1.6516025482397576e-16 1.6473337783985787e-16
  outer loop
    vertex 182.50000000003894 24.59840672217987 37.31369566679355
    vertex 182.5000000000389 29.13927678957942 42.9942631645526
    vertex 182.50000000003894 24.085723210240957 40.76501967125429
  endloop
endfacet
facet normal 1.0 -1.6516025482397576e-16 1.6473337783985787e-16
  outer loop
    vertex 182.50000000003894 24.085723210240957 40.76501967125429
    vertex 182.5000000000389 29.13927678957942 42.9942631645526
    vertex 182.5000000000389 28.789564404978066 42.849407551920876
  endloop
endfacet
facet normal 1.0 -1.6516025482397576e-16 1.6473337783985787e-16
  outer loop
    vertex 182.50000000003894 24.085723210240957 40.76501967125429
    vertex 182.5000000000389 28.789564404978066 42.849407551920876
    vertex 182.5000000000389 28.414276789579414 42.800000000040036
  endloop
endfacet
facet normal 1.0 -1.6516025482397576e-16 1.6473337783985787e-16
  outer loop
    vertex 182.5000000000389 29.81486923769857 43.87471238464137
    vertex 182.5000000000389 36.2142767895794 61.00000000004001
    vertex 182.5000000000389 29.864276789579414 44.25000000004003
  endloop
endfacet
facet normal 1.0 -1.6516025482397576e-16 1.6473337783985787e-16
  outer loop
    vertex 182.5000000000389 29.864276789579414 44.25000000004003
    vertex 182.5000000000389 36.2142767895794 61.00000000004001
    vertex 182.5000000000389 29.81486923769857 44.62528761543868
  endloop
endfacet
facet normal 1.0 -1.6516025482397576e-16 1.6473337783985787e-16
  outer loop
    vertex 182.5000000000389 29.81486923769857 44.62528761543868
    vertex 182.5000000000389 36.2142767895794 61.00000000004001
    vertex 182.5000000000389 29.670013625066847 44.975000000040026
  endloop
endfacet
facet normal 1.0 -1.6516025482397576e-16 1.6473337783985787e-16
  outer loop
    vertex 182.5000000000389 29.670013625066847 44.975000000040026
    vertex 182.5000000000389 36.2142767895794 61.00000000004001
    vertex 182.5000000000389 29.439581622299904 45.275304832760526
  endloop
endfacet
facet normal 1.0 -1.6516025482397576e-16 1.6473337783985787e-16
  outer loop
    vertex 182.5000000000389 29.439581622299904 45.275304832760526
    vertex 182.5000000000389 36.2142767895794 61.00000000004001
    vertex 182.5000000000389 29.13927678957942 45.505736835527465
  endloop
endfacet
facet normal 1.0 -1.6516025482397576e-16 1.6473337783985787e-16
  outer loop
    vertex 182.5000000000389 29.13927678957942 45.505736835527465
    vertex 182.5000000000389 36.2142767895794 61.00000000004001
    vertex 182.5000000000389 28.789564404978066 45.65059244815918
  endloop
endfacet
facet normal 1.0 -1.6516025482397576e-16 1.6473337783985787e-16
  outer loop
    vertex 182.5000000000389 28.789564404978066 45.65059244815918
    vertex 182.5000000000389 36.2142767895794 61.00000000004001
    vertex 182.5000000000389 28.414276789579414 45.70000000004003
  endloop
endfacet
facet normal 1.0 -1.6516025482397576e-16 1.6473337783985787e-16
  outer loop
    vertex 182.5000000000389 28.414276789579414 45.70000000004003
    vertex 182.5000000000389 36.2142767895794 61.00000000004001
    vertex 182.50000000003894 24.085723210240936 47.734980328825685
  endloop
endfacet
facet normal 1.0 -1.6516025482397576e-16 1.6473337783985787e-16
  outer loop
    vertex 182.50000000003894 24.085723210240936 47.734980328825685
    vertex 182.5000000000389 36.2142767895794 61.00000000004001
    vertex 182.50000000003894 24.59840672217985 51.186304333286415
  endloop
endfacet
facet normal 1.0 -1.6516025482397576e-16 1.6473337783985787e-16
  outer loop
    vertex 182.50000000003894 24.59840672217985 51.186304333286415
    vertex 182.5000000000389 36.2142767895794 61.00000000004001
    vertex 182.50000000003894 25.447376065725827 54.57064072627397
  endloop
endfacet
facet normal 1.0 -1.6516025482397576e-16 1.6473337783985787e-16
  outer loop
    vertex 182.50000000003894 25.447376065725827 54.57064072627397
    vertex 182.5000000000389 36.2142767895794 61.00000000004001
    vertex 182.50000000003894 26.624432288554157 57.85530515593525
  endloop
endfacet
facet normal 1.0 -1.6516025482397576e-16 1.6473337783985787e-16
  outer loop
    vertex 182.50000000003894 26.624432288554157 57.85530515593525
    vertex 182.5000000000389 36.2142767895794 61.00000000004001
    vertex 182.50000000003894 28.11820792736612 61.008575856029495
  endloop
endfacet
facet normal 1.0 -1.6516025482397576e-16 1.6473337783985787e-16
  outer loop
    vertex 182.50000000003894 24.085723210240957 40.76501967125429
    vertex 182.5000000000389 28.038989174180763 42.849407551920876
    vertex 182.50000000003894 23.914276789579457 44.25000000004
  endloop
endfacet
facet normal 1.0 -1.6516025482397576e-16 1.6473337783985787e-16
  outer loop
    vertex 182.5000000000389 28.038989174180763 42.849407551920876
    vertex 182.50000000003894 24.085723210240957 40.76501967125429
    vertex 182.5000000000389 28.414276789579414 42.800000000040036
  endloop
endfacet
facet normal 1.0 -1.6516025482397576e-16 1.6473337783985787e-16
  outer loop
    vertex 182.50000000003894 23.914276789579457 44.25000000004
    vertex 182.5000000000389 28.038989174180763 42.849407551920876
    vertex 182.5000000000389 27.68927678957941 42.9942631645526
  endloop
endfacet
facet normal 1.0 -1.6516025482397576e-16 1.6473337783985787e-16
  outer loop
    vertex 182.50000000003894 23.914276789579457 44.25000000004
    vertex 182.5000000000389 27.68927678957941 42.9942631645526
    vertex 182.5000000000389 27.388971956858924 43.22469516731954
  endloop
endfacet
facet normal 1.0 -1.6516025482397576e-16 1.6473337783985787e-16
  outer loop
    vertex 182.50000000003894 23.914276789579457 44.25000000004
    vertex 182.5000000000389 27.388971956858924 43.22469516731954
    vertex 182.5000000000389 27.15853995409198 43.52500000004003
  endloop
endfacet
facet normal 1.0 -1.6516025482397576e-16 1.6473337783985787e-16
  outer loop
    vertex 182.50000000003894 23.914276789579457 44.25000000004
    vertex 182.5000000000389 27.15853995409198 43.52500000004003
    vertex 182.5000000000389 27.013684341460262 43.87471238464138
  endloop
endfacet
facet normal 1.0 -1.6516025482397576e-16 1.6473337783985787e-16
  outer loop
    vertex 182.50000000003894 23.914276789579457 44.25000000004
    vertex 182.5000000000389 27.013684341460262 43.87471238464138
    vertex 182.5000000000389 26.96427678957942 44.25000000004003
  endloop
endfacet
facet normal 1.0 -1.6516025482397576e-16 1.6473337783985787e-16
  outer loop
    vertex 182.50000000003894 23.914276789579457 44.25000000004
    vertex 182.5000000000389 26.96427678957942 44.25000000004003
    vertex 182.50000000003894 24.085723210240936 47.734980328825685
  endloop
endfacet
facet normal 1.0 -1.6516025482397576e-16 1.6473337783985787e-16
  outer loop
    vertex 182.50000000003894 24.085723210240936 47.734980328825685
    vertex 182.5000000000389 26.96427678957942 44.25000000004003
    vertex 182.5000000000389 27.013684341460262 44.62528761543868
  endloop
endfacet
facet normal 1.0 -1.6516025482397576e-16 1.6473337783985787e-16
  outer loop
    vertex 182.50000000003894 24.085723210240936 47.734980328825685
    vertex 182.5000000000389 27.013684341460262 44.62528761543868
    vertex 182.5000000000389 27.15853995409198 44.97500000004003
  endloop
endfacet
facet normal 1.0 -1.6516025482397576e-16 1.6473337783985787e-16
  outer loop
    vertex 182.50000000003894 24.085723210240936 47.734980328825685
    vertex 182.5000000000389 27.15853995409198 44.97500000004003
    vertex 182.5000000000389 27.388971956858924 45.275304832760526
  endloop
endfacet
facet normal 1.0 -1.6516025482397576e-16 1.6473337783985787e-16
  outer loop
    vertex 182.50000000003894 24.085723210240936 47.734980328825685
    vertex 182.5000000000389 27.388971956858924 45.275304832760526
    vertex 182.5000000000389 27.68927678957941 45.505736835527465
  endloop
endfacet
facet normal 1.0 -1.6516025482397576e-16 1.6473337783985787e-16
  outer loop
    vertex 182.50000000003894 24.085723210240936 47.734980328825685
    vertex 182.5000000000389 27.68927678957941 45.505736835527465
    vertex 182.5000000000389 28.038989174180763 45.65059244815918
  endloop
endfacet
facet normal 1.0 -1.6516025482397576e-16 1.6473337783985787e-16
  outer loop
    vertex 182.50000000003894 24.085723210240936 47.734980328825685
    vertex 182.5000000000389 28.038989174180763 45.65059244815918
    vertex 182.5000000000389 28.414276789579414 45.70000000004003
  endloop
endfacet
facet normal 5.532803031153768e-15 -0.9987920784146431 -0.04913638261163936
  outer loop
    vertex 182.50000000003894 24.085723210240957 40.76501967125429
    vertex 180.45000000003893 23.914276789579446 44.25000000004
    vertex 180.45000000003893 24.085723210240946 40.76501967125429
  endloop
endfacet
facet normal 5.532803031153768e-15 -0.9987920784146431 -0.04913638261163936
  outer loop
    vertex 180.45000000003893 23.914276789579446 44.25000000004
    vertex 182.50000000003894 24.085723210240957 40.76501967125429
    vertex 182.50000000003894 23.914276789579457 44.25000000004
  endloop
endfacet
facet normal 5.480038694866244e-15 -0.9891462075766755 -0.1469346114320271
  outer loop
    vertex 182.50000000003894 24.59840672217987 37.31369566679355
    vertex 180.45000000003893 24.085723210240946 40.76501967125429
    vertex 180.45000000003893 24.59840672217986 37.31369566679355
  endloop
endfacet
facet normal 5.480038694866244e-15 -0.9891462075766755 -0.1469346114320271
  outer loop
    vertex 180.45000000003893 24.085723210240946 40.76501967125429
    vertex 182.50000000003894 24.59840672217987 37.31369566679355
    vertex 182.50000000003894 24.085723210240957 40.76501967125429
  endloop
endfacet
facet normal 5.374350685493871e-15 -0.9699476212493175 -0.24331381389635623
  outer loop
    vertex 182.50000000003894 25.447376065725873 33.92935927380599
    vertex 180.45000000003893 24.59840672217986 37.31369566679355
    vertex 180.45000000003893 25.447376065725862 33.92935927380599
  endloop
endfacet
facet normal 5.374350685493871e-15 -0.9699476212493175 -0.24331381389635623
  outer loop
    vertex 180.45000000003893 24.59840672217986 37.31369566679355
    vertex 182.50000000003894 25.447376065725873 33.92935927380599
    vertex 182.50000000003894 24.59840672217987 37.31369566679355
  endloop
endfacet
facet normal 5.2167596888325956e-15 -0.9413817304785621 -0.33734320435009246
  outer loop
    vertex 182.50000000003894 26.62443228855421 30.644694844144723
    vertex 180.45000000003893 25.447376065725862 33.92935927380599
    vertex 180.45000000003893 26.6244322885542 30.644694844144723
  endloop
endfacet
facet normal 5.2167596888325956e-15 -0.9413817304785621 -0.33734320435009246
  outer loop
    vertex 180.45000000003893 25.447376065725862 33.92935927380599
    vertex 182.50000000003894 26.62443228855421 30.644694844144723
    vertex 182.50000000003894 25.447376065725873 33.92935927380599
  endloop
endfacet
facet normal 5.008787645666545e-15 -0.9037244113938833 -0.42811469053371587
  outer loop
    vertex 182.50000000003894 28.11820792736619 27.491424144050487
    vertex 180.45000000003893 26.6244322885542 30.644694844144723
    vertex 180.45000000003893 28.11820792736618 27.491424144050487
  endloop
endfacet
facet normal 5.008787645666545e-15 -0.9037244113938833 -0.42811469053371587
  outer loop
    vertex 180.45000000003893 26.6244322885542 30.644694844144723
    vertex 182.50000000003894 28.11820792736619 27.491424144050487
    vertex 182.50000000003894 26.62443228855421 30.644694844144723
  endloop
endfacet
facet normal 7.562375230692246e-15 -0.8573393409245025 -0.514751643516696
  outer loop
    vertex 182.5000000000389 29.914276789579414 24.50000000004005
    vertex 180.45000000003893 28.11820792736618 27.491424144050487
    vertex 180.4500000000389 29.914276789579414 24.500000000040007
  endloop
endfacet
facet normal 7.562375230692246e-15 -0.8573393409245025 -0.514751643516696
  outer loop
    vertex 180.45000000003893 28.11820792736618 27.491424144050487
    vertex 182.5000000000389 29.914276789579414 24.50000000004005
    vertex 182.50000000003894 28.11820792736619 27.491424144050487
  endloop
endfacet
facet normal 8.669646817625576e-15 -0.8573393409244958 0.5147516435167075
  outer loop
    vertex 180.45000000003893 28.11820792736611 61.008575856029495
    vertex 182.5000000000389 29.914276789579425 64.00000000003998
    vertex 180.4500000000389 29.914276789579425 64.00000000004002
  endloop
endfacet
facet normal 8.669646817625576e-15 -0.8573393409244958 0.5147516435167075
  outer loop
    vertex 182.5000000000389 29.914276789579425 64.00000000003998
    vertex 180.45000000003893 28.11820792736611 61.008575856029495
    vertex 182.50000000003894 28.11820792736612 61.008575856029495
  endloop
endfacet
facet normal 5.0029595747211065e-15 -0.903724411393885 0.42811469053371226
  outer loop
    vertex 182.50000000003894 26.624432288554157 57.85530515593525
    vertex 180.45000000003893 28.11820792736611 61.008575856029495
    vertex 180.45000000003893 26.624432288554143 57.85530515593525
  endloop
endfacet
facet normal 5.0029595747211065e-15 -0.903724411393885 0.42811469053371226
  outer loop
    vertex 180.45000000003893 28.11820792736611 61.008575856029495
    vertex 182.50000000003894 26.624432288554157 57.85530515593525
    vertex 182.50000000003894 28.11820792736612 61.008575856029495
  endloop
endfacet
facet normal 5.212167321012974e-15 -0.9413817304785631 0.3373432043500895
  outer loop
    vertex 182.50000000003894 25.447376065725827 54.57064072627397
    vertex 180.45000000003893 26.624432288554143 57.85530515593525
    vertex 180.45000000003893 25.447376065725816 54.57064072627397
  endloop
endfacet
facet normal 5.212167321012974e-15 -0.9413817304785631 0.3373432043500895
  outer loop
    vertex 180.45000000003893 26.624432288554143 57.85530515593525
    vertex 182.50000000003894 25.447376065725827 54.57064072627397
    vertex 182.50000000003894 26.624432288554157 57.85530515593525
  endloop
endfacet
facet normal 5.37103837175938e-15 -0.969947621249319 0.24331381389634985
  outer loop
    vertex 182.50000000003894 24.59840672217985 51.186304333286415
    vertex 180.45000000003893 25.447376065725816 54.57064072627397
    vertex 180.45000000003893 24.59840672217984 51.186304333286415
  endloop
endfacet
facet normal 5.37103837175938e-15 -0.969947621249319 0.24331381389634985
  outer loop
    vertex 180.45000000003893 25.447376065725816 54.57064072627397
    vertex 182.50000000003894 24.59840672217985 51.186304333286415
    vertex 182.50000000003894 25.447376065725827 54.57064072627397
  endloop
endfacet
facet normal 5.478038424007282e-15 -0.9891462075766753 0.14693461143202743
  outer loop
    vertex 182.50000000003894 24.085723210240936 47.734980328825685
    vertex 180.45000000003893 24.59840672217984 51.186304333286415
    vertex 180.45000000003893 24.085723210240925 47.734980328825685
  endloop
endfacet
facet normal 5.478038424007282e-15 -0.9891462075766753 0.14693461143202743
  outer loop
    vertex 180.45000000003893 24.59840672217984 51.186304333286415
    vertex 182.50000000003894 24.085723210240936 47.734980328825685
    vertex 182.50000000003894 24.59840672217985 51.186304333286415
  endloop
endfacet
facet normal 5.5321341208589475e-15 -0.9987920784146436 0.0491363826116332
  outer loop
    vertex 182.50000000003894 23.914276789579457 44.25000000004
    vertex 180.45000000003893 24.085723210240925 47.734980328825685
    vertex 180.45000000003893 23.914276789579446 44.25000000004
  endloop
endfacet
facet normal 5.5321341208589475e-15 -0.9987920784146436 0.0491363826116332
  outer loop
    vertex 180.45000000003893 24.085723210240925 47.734980328825685
    vertex 182.50000000003894 23.914276789579457 44.25000000004
    vertex 182.50000000003894 24.085723210240936 47.734980328825685
  endloop
endfacet
facet normal 4.467318781354591e-15 0.9987920784146431 -0.04913638261163916
  outer loop
    vertex 182.50000000003894 90.91427678957947 44.25000000004002
    vertex 180.45000000003893 90.74283036891799 40.76501967125431
    vertex 180.45000000003893 90.91427678957947 44.25000000004002
  endloop
endfacet
facet normal 4.467318781354591e-15 0.9987920784146431 -0.04913638261163916
  outer loop
    vertex 180.45000000003893 90.74283036891799 40.76501967125431
    vertex 182.50000000003894 90.91427678957947 44.25000000004002
    vertex 182.50000000003894 90.74283036891798 40.76501967125431
  endloop
endfacet
facet normal 4.4659559356958065e-15 0.9987920784146433 0.0491363826116346
  outer loop
    vertex 182.50000000003894 90.74283036891799 47.734980328825706
    vertex 180.45000000003893 90.91427678957947 44.25000000004002
    vertex 180.45000000003893 90.742830368918 47.734980328825706
  endloop
endfacet
facet normal 4.4659559356958065e-15 0.9987920784146433 0.0491363826116346
  outer loop
    vertex 180.45000000003893 90.91427678957947 44.25000000004002
    vertex 182.50000000003894 90.74283036891799 47.734980328825706
    vertex 182.50000000003894 90.91427678957947 44.25000000004002
  endloop
endfacet
facet normal 4.421462958095893e-15 0.9891462075766755 0.14693461143202585
  outer loop
    vertex 182.50000000003894 90.23014685697909 51.18630433328644
    vertex 180.45000000003893 90.742830368918 47.734980328825706
    vertex 180.45000000003893 90.2301468569791 51.18630433328644
  endloop
endfacet
facet normal 4.421462958095893e-15 0.9891462075766755 0.14693461143202585
  outer loop
    vertex 180.45000000003893 90.742830368918 47.734980328825706
    vertex 182.50000000003894 90.23014685697909 51.18630433328644
    vertex 182.50000000003894 90.74283036891799 47.734980328825706
  endloop
endfacet
facet normal 4.334269541104882e-15 0.969947621249319 0.24331381389634985
  outer loop
    vertex 182.50000000003894 89.38117751343312 54.570640726274
    vertex 180.45000000003893 90.2301468569791 51.18630433328644
    vertex 180.45000000003893 89.38117751343312 54.570640726274
  endloop
endfacet
facet normal 4.334269541104882e-15 0.969947621249319 0.24331381389634985
  outer loop
    vertex 180.45000000003893 90.2301468569791 51.18630433328644
    vertex 182.50000000003894 89.38117751343312 54.570640726274
    vertex 182.50000000003894 90.23014685697909 51.18630433328644
  endloop
endfacet
facet normal 4.205217758319862e-15 0.9413817304785631 0.3373432043500895
  outer loop
    vertex 182.50000000003894 88.20412129060479 57.85530515593527
    vertex 180.45000000003893 89.38117751343312 54.570640726274
    vertex 180.45000000003893 88.20412129060479 57.85530515593527
  endloop
endfacet
facet normal 4.205217758319862e-15 0.9413817304785631 0.3373432043500895
  outer loop
    vertex 180.45000000003893 89.38117751343312 54.570640726274
    vertex 182.50000000003894 88.20412129060479 57.85530515593527
    vertex 182.50000000003894 89.38117751343312 54.570640726274
  endloop
endfacet
facet normal 4.035553932028578e-15 0.903724411393885 0.42811469053371226
  outer loop
    vertex 182.50000000003894 86.71034565179282 61.008575856029516
    vertex 180.45000000003893 88.20412129060479 57.85530515593527
    vertex 180.45000000003893 86.71034565179284 61.008575856029516
  endloop
endfacet
facet normal 4.035553932028578e-15 0.903724411393885 0.42811469053371226
  outer loop
    vertex 180.45000000003893 88.20412129060479 57.85530515593527
    vertex 182.50000000003894 86.71034565179282 61.008575856029516
    vertex 182.50000000003894 88.20412129060479 57.85530515593527
  endloop
endfacet
facet normal 9.577742130224137e-15 0.8573393409244966 0.5147516435167059
  outer loop
    vertex 182.5000000000389 84.91427678957952 64.00000000003999
    vertex 180.45000000003893 86.71034565179284 61.008575856029516
    vertex 180.4500000000389 84.91427678957953 64.00000000004002
  endloop
endfacet
facet normal 9.577742130224137e-15 0.8573393409244966 0.5147516435167059
  outer loop
    vertex 180.45000000003893 86.71034565179284 61.008575856029516
    vertex 182.5000000000389 84.91427678957952 64.00000000003999
    vertex 182.50000000003894 86.71034565179282 61.008575856029516
  endloop
endfacet
facet normal 3.935519920789471e-15 0.8573393409244935 -0.5147516435167111
  outer loop
    vertex 180.45000000003893 86.71034565179275 27.491424144050512
    vertex 182.5000000000389 84.91427678957945 24.50000000004005
    vertex 180.45000000003893 84.91427678957942 24.500000000040007
  endloop
endfacet
facet normal 3.935519920789471e-15 0.8573393409244935 -0.5147516435167111
  outer loop
    vertex 182.5000000000389 84.91427678957945 24.50000000004005
    vertex 180.45000000003893 86.71034565179275 27.491424144050512
    vertex 182.50000000003894 86.71034565179274 27.491424144050512
  endloop
endfacet
facet normal 4.047428111942624e-15 0.9037244113938834 -0.42811469053371587
  outer loop
    vertex 182.50000000003894 88.20412129060472 30.644694844144748
    vertex 180.45000000003893 86.71034565179275 27.491424144050512
    vertex 180.45000000003893 88.20412129060473 30.644694844144748
  endloop
endfacet
facet normal 4.047428111942624e-15 0.9037244113938834 -0.42811469053371587
  outer loop
    vertex 180.45000000003893 86.71034565179275 27.491424144050512
    vertex 182.50000000003894 88.20412129060472 30.644694844144748
    vertex 182.50000000003894 86.71034565179274 27.491424144050512
  endloop
endfacet
facet normal 4.2145743022315875e-15 0.9413817304785616 -0.33734320435009396
  outer loop
    vertex 182.50000000003894 89.38117751343307 33.92935927380602
    vertex 180.45000000003893 88.20412129060473 30.644694844144748
    vertex 180.45000000003893 89.38117751343307 33.92935927380602
  endloop
endfacet
facet normal 4.2145743022315875e-15 0.9413817304785616 -0.33734320435009396
  outer loop
    vertex 180.45000000003893 88.20412129060473 30.644694844144748
    vertex 182.50000000003894 89.38117751343307 33.92935927380602
    vertex 182.50000000003894 88.20412129060472 30.644694844144748
  endloop
endfacet
facet normal 4.341018087851025e-15 0.9699476212493179 -0.24331381389635467
  outer loop
    vertex 182.50000000003894 90.23014685697906 37.31369566679357
    vertex 180.45000000003893 89.38117751343307 33.92935927380602
    vertex 180.45000000003893 90.23014685697906 37.31369566679357
  endloop
endfacet
facet normal 4.341018087851025e-15 0.9699476212493179 -0.24331381389635467
  outer loop
    vertex 180.45000000003893 89.38117751343307 33.92935927380602
    vertex 182.50000000003894 90.23014685697906 37.31369566679357
    vertex 182.50000000003894 89.38117751343307 33.92935927380602
  endloop
endfacet
facet normal 4.425538333340712e-15 0.9891462075766752 -0.14693461143202868
  outer loop
    vertex 182.50000000003894 90.74283036891798 40.76501967125431
    vertex 180.45000000003893 90.23014685697906 37.31369566679357
    vertex 180.45000000003893 90.74283036891799 40.76501967125431
  endloop
endfacet
facet normal 4.425538333340712e-15 0.9891462075766752 -0.14693461143202868
  outer loop
    vertex 180.45000000003893 90.23014685697906 37.31369566679357
    vertex 182.50000000003894 90.74283036891798 40.76501967125431
    vertex 182.50000000003894 90.23014685697906 37.31369566679357
  endloop
endfacet
facet normal 5.310799471928765e-17 0.382683432365085 0.9238795325112887
  outer loop
    vertex 180.45000000003895 27.68927678957941 42.9942631645526
    vertex 182.5000000000389 28.038989174180763 42.849407551920876
    vertex 180.45000000003895 28.038989174180763 42.849407551920876
  endloop
endfacet
facet normal 5.310799471928765e-17 0.382683432365085 0.9238795325112887
  outer loop
    vertex 182.5000000000389 28.038989174180763 42.849407551920876
    vertex 180.45000000003895 27.68927678957941 42.9942631645526
    vertex 182.5000000000389 27.68927678957941 42.9942631645526
  endloop
endfacet
facet normal 1.8114147989918656e-17 0.13052619222005069 0.9914448613738106
  outer loop
    vertex 180.45000000003895 28.038989174180763 42.849407551920876
    vertex 182.5000000000389 28.414276789579414 42.800000000040036
    vertex 180.45000000003895 28.414276789579414 42.800000000040036
  endloop
endfacet
facet normal 1.8114147989918656e-17 0.13052619222005069 0.9914448613738106
  outer loop
    vertex 182.5000000000389 28.414276789579414 42.800000000040036
    vertex 180.45000000003895 28.038989174180763 42.849407551920876
    vertex 182.5000000000389 28.038989174180763 42.849407551920876
  endloop
endfacet
facet normal -1.8114147989918656e-17 -0.13052619222005069 0.9914448613738106
  outer loop
    vertex 180.45000000003895 28.414276789579414 42.800000000040036
    vertex 182.5000000000389 28.789564404978066 42.849407551920876
    vertex 180.45000000003895 28.789564404978066 42.849407551920876
  endloop
endfacet
facet normal -1.8114147989918656e-17 -0.13052619222005069 0.9914448613738106
  outer loop
    vertex 182.5000000000389 28.789564404978066 42.849407551920876
    vertex 180.45000000003895 28.414276789579414 42.800000000040036
    vertex 182.5000000000389 28.414276789579414 42.800000000040036
  endloop
endfacet
facet normal -5.310799471928765e-17 -0.382683432365085 0.9238795325112887
  outer loop
    vertex 180.45000000003895 28.789564404978066 42.849407551920876
    vertex 182.5000000000389 29.13927678957942 42.9942631645526
    vertex 180.45000000003895 29.13927678957942 42.9942631645526
  endloop
endfacet
facet normal -5.310799471928765e-17 -0.382683432365085 0.9238795325112887
  outer loop
    vertex 182.5000000000389 29.13927678957942 42.9942631645526
    vertex 180.45000000003895 28.789564404978066 42.849407551920876
    vertex 182.5000000000389 28.789564404978066 42.849407551920876
  endloop
endfacet
facet normal -8.448261937365047e-17 -0.6087614290087291 0.7933533402912288
  outer loop
    vertex 180.45000000003895 29.13927678957942 42.9942631645526
    vertex 182.5000000000389 29.439581622299904 43.22469516731954
    vertex 180.45000000003895 29.439581622299904 43.22469516731954
  endloop
endfacet
facet normal -8.448261937365047e-17 -0.6087614290087291 0.7933533402912288
  outer loop
    vertex 182.5000000000389 29.439581622299904 43.22469516731954
    vertex 180.45000000003895 29.13927678957942 42.9942631645526
    vertex 182.5000000000389 29.13927678957942 42.9942631645526
  endloop
endfacet
facet normal -1.1009989313182552e-16 -0.7933533402912334 0.6087614290087229
  outer loop
    vertex 182.5000000000389 29.439581622299904 43.22469516731954
    vertex 180.45000000003895 29.670013625066847 43.52500000004002
    vertex 180.45000000003895 29.439581622299904 43.22469516731954
  endloop
endfacet
facet normal -1.1009989313182552e-16 -0.7933533402912334 0.6087614290087229
  outer loop
    vertex 180.45000000003895 29.670013625066847 43.52500000004002
    vertex 182.5000000000389 29.439581622299904 43.22469516731954
    vertex 182.5000000000389 29.670013625066847 43.52500000004002
  endloop
endfacet
facet normal -1.2821404112174367e-16 -0.9238795325112803 0.38268343236510566
  outer loop
    vertex 182.5000000000389 29.670013625066847 43.52500000004002
    vertex 180.45000000003895 29.81486923769857 43.87471238464137
    vertex 180.45000000003895 29.670013625066847 43.52500000004002
  endloop
endfacet
facet normal -1.2821404112174367e-16 -0.9238795325112803 0.38268343236510566
  outer loop
    vertex 180.45000000003895 29.81486923769857 43.87471238464137
    vertex 182.5000000000389 29.670013625066847 43.52500000004002
    vertex 182.5000000000389 29.81486923769857 43.87471238464137
  endloop
endfacet
facet normal -1.3759061409293792e-16 -0.9914448613738127 0.1305261922200341
  outer loop
    vertex 182.5000000000389 29.81486923769857 43.87471238464137
    vertex 180.45000000003895 29.864276789579414 44.25000000004003
    vertex 180.45000000003895 29.81486923769857 43.87471238464137
  endloop
endfacet
facet normal -1.3759061409293792e-16 -0.9914448613738127 0.1305261922200341
  outer loop
    vertex 180.45000000003895 29.864276789579414 44.25000000004003
    vertex 182.5000000000389 29.81486923769857 43.87471238464137
    vertex 182.5000000000389 29.864276789579414 44.25000000004003
  endloop
endfacet
facet normal -1.375906140929379e-16 -0.9914448613738126 -0.13052619222003506
  outer loop
    vertex 182.5000000000389 29.864276789579414 44.25000000004003
    vertex 180.45000000003895 29.81486923769857 44.62528761543868
    vertex 180.45000000003895 29.864276789579414 44.25000000004003
  endloop
endfacet
facet normal -1.375906140929379e-16 -0.9914448613738126 -0.13052619222003506
  outer loop
    vertex 180.45000000003895 29.81486923769857 44.62528761543868
    vertex 182.5000000000389 29.864276789579414 44.25000000004003
    vertex 182.5000000000389 29.81486923769857 44.62528761543868
  endloop
endfacet
facet normal -1.2821404112174367e-16 -0.9238795325112803 -0.38268343236510566
  outer loop
    vertex 182.5000000000389 29.81486923769857 44.62528761543868
    vertex 180.45000000003895 29.670013625066847 44.975000000040026
    vertex 180.45000000003895 29.81486923769857 44.62528761543868
  endloop
endfacet
facet normal -1.2821404112174367e-16 -0.9238795325112803 -0.38268343236510566
  outer loop
    vertex 180.45000000003895 29.670013625066847 44.975000000040026
    vertex 182.5000000000389 29.81486923769857 44.62528761543868
    vertex 182.5000000000389 29.670013625066847 44.975000000040026
  endloop
endfacet
facet normal -1.1009989313182594e-16 -0.7933533402912364 -0.6087614290087193
  outer loop
    vertex 182.5000000000389 29.670013625066847 44.975000000040026
    vertex 180.45000000003895 29.439581622299904 45.275304832760526
    vertex 180.45000000003895 29.670013625066847 44.975000000040026
  endloop
endfacet
facet normal -1.1009989313182594e-16 -0.7933533402912364 -0.6087614290087193
  outer loop
    vertex 180.45000000003895 29.439581622299904 45.275304832760526
    vertex 182.5000000000389 29.670013625066847 44.975000000040026
    vertex 182.5000000000389 29.439581622299904 45.275304832760526
  endloop
endfacet
facet normal -8.448261937365047e-17 -0.6087614290087291 -0.7933533402912288
  outer loop
    vertex 182.5000000000389 29.13927678957942 45.505736835527465
    vertex 180.45000000003895 29.439581622299904 45.275304832760526
    vertex 182.5000000000389 29.439581622299904 45.275304832760526
  endloop
endfacet
facet normal -8.448261937365047e-17 -0.6087614290087291 -0.7933533402912288
  outer loop
    vertex 180.45000000003895 29.439581622299904 45.275304832760526
    vertex 182.5000000000389 29.13927678957942 45.505736835527465
    vertex 180.45000000003895 29.13927678957942 45.505736835527465
  endloop
endfacet
facet normal -5.310799471928765e-17 -0.382683432365085 -0.9238795325112887
  outer loop
    vertex 182.5000000000389 28.789564404978066 45.65059244815918
    vertex 180.45000000003895 29.13927678957942 45.505736835527465
    vertex 182.5000000000389 29.13927678957942 45.505736835527465
  endloop
endfacet
facet normal -5.310799471928765e-17 -0.382683432365085 -0.9238795325112887
  outer loop
    vertex 180.45000000003895 29.13927678957942 45.505736835527465
    vertex 182.5000000000389 28.789564404978066 45.65059244815918
    vertex 180.45000000003895 28.789564404978066 45.65059244815918
  endloop
endfacet
facet normal -1.8114147989918656e-17 -0.13052619222005069 -0.9914448613738106
  outer loop
    vertex 182.5000000000389 28.414276789579414 45.70000000004003
    vertex 180.45000000003895 28.789564404978066 45.65059244815918
    vertex 182.5000000000389 28.789564404978066 45.65059244815918
  endloop
endfacet
facet normal -1.8114147989918656e-17 -0.13052619222005069 -0.9914448613738106
  outer loop
    vertex 180.45000000003895 28.789564404978066 45.65059244815918
    vertex 182.5000000000389 28.414276789579414 45.70000000004003
    vertex 180.45000000003895 28.414276789579414 45.70000000004003
  endloop
endfacet
facet normal 1.8114147989918656e-17 0.13052619222005069 -0.9914448613738106
  outer loop
    vertex 182.5000000000389 28.038989174180763 45.65059244815918
    vertex 180.45000000003895 28.414276789579414 45.70000000004003
    vertex 182.5000000000389 28.414276789579414 45.70000000004003
  endloop
endfacet
facet normal 1.8114147989918656e-17 0.13052619222005069 -0.9914448613738106
  outer loop
    vertex 180.45000000003895 28.414276789579414 45.70000000004003
    vertex 182.5000000000389 28.038989174180763 45.65059244815918
    vertex 180.45000000003895 28.038989174180763 45.65059244815918
  endloop
endfacet
facet normal 5.310799471928765e-17 0.382683432365085 -0.9238795325112887
  outer loop
    vertex 182.5000000000389 27.68927678957941 45.505736835527465
    vertex 180.45000000003895 28.038989174180763 45.65059244815918
    vertex 182.5000000000389 28.038989174180763 45.65059244815918
  endloop
endfacet
facet normal 5.310799471928765e-17 0.382683432365085 -0.9238795325112887
  outer loop
    vertex 180.45000000003895 28.038989174180763 45.65059244815918
    vertex 182.5000000000389 27.68927678957941 45.505736835527465
    vertex 180.45000000003895 27.68927678957941 45.505736835527465
  endloop
endfacet
facet normal 8.448261937365047e-17 0.6087614290087291 -0.7933533402912288
  outer loop
    vertex 182.5000000000389 27.388971956858924 45.275304832760526
    vertex 180.45000000003895 27.68927678957941 45.505736835527465
    vertex 182.5000000000389 27.68927678957941 45.505736835527465
  endloop
endfacet
facet normal 8.448261937365047e-17 0.6087614290087291 -0.7933533402912288
  outer loop
    vertex 180.45000000003895 27.68927678957941 45.505736835527465
    vertex 182.5000000000389 27.388971956858924 45.275304832760526
    vertex 180.45000000003895 27.388971956858924 45.275304832760526
  endloop
endfacet
facet normal 1.1009989313182552e-16 0.7933533402912334 -0.6087614290087229
  outer loop
    vertex 182.5000000000389 27.388971956858924 45.275304832760526
    vertex 180.45000000003895 27.15853995409198 44.97500000004003
    vertex 180.45000000003895 27.388971956858924 45.275304832760526
  endloop
endfacet
facet normal 1.1009989313182552e-16 0.7933533402912334 -0.6087614290087229
  outer loop
    vertex 180.45000000003895 27.15853995409198 44.97500000004003
    vertex 182.5000000000389 27.388971956858924 45.275304832760526
    vertex 182.5000000000389 27.15853995409198 44.97500000004003
  endloop
endfacet
facet normal 1.282140411217438e-16 0.9238795325112813 -0.382683432365103
  outer loop
    vertex 182.5000000000389 27.15853995409198 44.97500000004003
    vertex 180.45000000003895 27.013684341460262 44.62528761543868
    vertex 180.45000000003895 27.15853995409198 44.97500000004003
  endloop
endfacet
facet normal 1.282140411217438e-16 0.9238795325112813 -0.382683432365103
  outer loop
    vertex 180.45000000003895 27.013684341460262 44.62528761543868
    vertex 182.5000000000389 27.15853995409198 44.97500000004003
    vertex 182.5000000000389 27.013684341460262 44.62528761543868
  endloop
endfacet
facet normal 1.375906140929379e-16 0.9914448613738126 -0.13052619222003506
  outer loop
    vertex 182.5000000000389 27.013684341460262 44.62528761543868
    vertex 180.45000000003895 26.96427678957942 44.25000000004003
    vertex 180.45000000003895 27.013684341460262 44.62528761543868
  endloop
endfacet
facet normal 1.375906140929379e-16 0.9914448613738126 -0.13052619222003506
  outer loop
    vertex 180.45000000003895 26.96427678957942 44.25000000004003
    vertex 182.5000000000389 27.013684341460262 44.62528761543868
    vertex 182.5000000000389 26.96427678957942 44.25000000004003
  endloop
endfacet
facet normal 1.375906140929379e-16 0.9914448613738126 0.13052619222003506
  outer loop
    vertex 182.5000000000389 26.96427678957942 44.25000000004003
    vertex 180.45000000003895 27.013684341460262 43.87471238464138
    vertex 180.45000000003895 26.96427678957942 44.25000000004003
  endloop
endfacet
facet normal 1.375906140929379e-16 0.9914448613738126 0.13052619222003506
  outer loop
    vertex 180.45000000003895 27.013684341460262 43.87471238464138
    vertex 182.5000000000389 26.96427678957942 44.25000000004003
    vertex 182.5000000000389 27.013684341460262 43.87471238464138
  endloop
endfacet
facet normal 1.2821404112174367e-16 0.9238795325112803 0.38268343236510566
  outer loop
    vertex 182.5000000000389 27.013684341460262 43.87471238464138
    vertex 180.45000000003895 27.15853995409198 43.52500000004003
    vertex 180.45000000003895 27.013684341460262 43.87471238464138
  endloop
endfacet
facet normal 1.2821404112174367e-16 0.9238795325112803 0.38268343236510566
  outer loop
    vertex 180.45000000003895 27.15853995409198 43.52500000004003
    vertex 182.5000000000389 27.013684341460262 43.87471238464138
    vertex 182.5000000000389 27.15853995409198 43.52500000004003
  endloop
endfacet
facet normal 1.1009989313182594e-16 0.7933533402912364 0.6087614290087193
  outer loop
    vertex 182.5000000000389 27.15853995409198 43.52500000004003
    vertex 180.45000000003895 27.388971956858924 43.22469516731954
    vertex 180.45000000003895 27.15853995409198 43.52500000004003
  endloop
endfacet
facet normal 1.1009989313182594e-16 0.7933533402912364 0.6087614290087193
  outer loop
    vertex 180.45000000003895 27.388971956858924 43.22469516731954
    vertex 182.5000000000389 27.15853995409198 43.52500000004003
    vertex 182.5000000000389 27.388971956858924 43.22469516731954
  endloop
endfacet
facet normal 8.448261937365047e-17 0.6087614290087291 0.7933533402912288
  outer loop
    vertex 180.45000000003895 27.388971956858924 43.22469516731954
    vertex 182.5000000000389 27.68927678957941 42.9942631645526
    vertex 180.45000000003895 27.68927678957941 42.9942631645526
  endloop
endfacet
facet normal 8.448261937365047e-17 0.6087614290087291 0.7933533402912288
  outer loop
    vertex 182.5000000000389 27.68927678957941 42.9942631645526
    vertex 180.45000000003895 27.388971956858924 43.22469516731954
    vertex 182.5000000000389 27.388971956858924 43.22469516731954
  endloop
endfacet
facet normal -1.3759061409293765e-16 -0.9914448613738107 -0.13052619222005063
  outer loop
    vertex 182.5000000000389 87.86427678957942 44.25000000004003
    vertex 180.45000000003893 87.81486923769856 44.62528761543868
    vertex 180.45000000003893 87.86427678957942 44.25000000004003
  endloop
endfacet
facet normal -1.3759061409293765e-16 -0.9914448613738107 -0.13052619222005063
  outer loop
    vertex 180.45000000003893 87.81486923769856 44.62528761543868
    vertex 182.5000000000389 87.86427678957942 44.25000000004003
    vertex 182.5000000000389 87.81486923769856 44.62528761543868
  endloop
endfacet
facet normal -1.2821404112174456e-16 -0.9238795325112867 -0.3826834323650897
  outer loop
    vertex 182.5000000000389 87.81486923769856 44.62528761543868
    vertex 180.45000000003893 87.67001362506686 44.975000000040026
    vertex 180.45000000003893 87.81486923769856 44.62528761543868
  endloop
endfacet
facet normal -1.2821404112174456e-16 -0.9238795325112867 -0.3826834323650897
  outer loop
    vertex 180.45000000003893 87.67001362506686 44.975000000040026
    vertex 182.5000000000389 87.81486923769856 44.62528761543868
    vertex 182.5000000000389 87.67001362506686 44.975000000040026
  endloop
endfacet
facet normal -1.1009989313182605e-16 -0.7933533402912372 -0.6087614290087181
  outer loop
    vertex 182.5000000000389 87.67001362506686 44.975000000040026
    vertex 180.45000000003893 87.43958162229991 45.275304832760526
    vertex 180.45000000003893 87.67001362506686 44.975000000040026
  endloop
endfacet
facet normal -1.1009989313182605e-16 -0.7933533402912372 -0.6087614290087181
  outer loop
    vertex 180.45000000003893 87.43958162229991 45.275304832760526
    vertex 182.5000000000389 87.67001362506686 44.975000000040026
    vertex 182.5000000000389 87.43958162229991 45.275304832760526
  endloop
endfacet
facet normal -8.448261937364904e-17 -0.6087614290087188 -0.7933533402912368
  outer loop
    vertex 182.5000000000389 87.13927678957941 45.505736835527465
    vertex 180.45000000003893 87.43958162229991 45.275304832760526
    vertex 182.5000000000389 87.43958162229991 45.275304832760526
  endloop
endfacet
facet normal -8.448261937364904e-17 -0.6087614290087188 -0.7933533402912368
  outer loop
    vertex 180.45000000003893 87.43958162229991 45.275304832760526
    vertex 182.5000000000389 87.13927678957941 45.505736835527465
    vertex 180.45000000003893 87.13927678957941 45.505736835527465
  endloop
endfacet
facet normal -5.3107994719288715e-17 -0.38268343236509267 -0.9238795325112857
  outer loop
    vertex 182.5000000000389 86.78956440497808 45.65059244815918
    vertex 180.45000000003893 87.13927678957941 45.505736835527465
    vertex 182.5000000000389 87.13927678957941 45.505736835527465
  endloop
endfacet
facet normal -5.3107994719288715e-17 -0.38268343236509267 -0.9238795325112857
  outer loop
    vertex 180.45000000003893 87.13927678957941 45.505736835527465
    vertex 182.5000000000389 86.78956440497808 45.65059244815918
    vertex 180.45000000003893 86.78956440497808 45.65059244815918
  endloop
endfacet
facet normal -1.8114147989918437e-17 -0.1305261922200491 -0.9914448613738107
  outer loop
    vertex 182.5000000000389 86.41427678957942 45.70000000004003
    vertex 180.45000000003893 86.78956440497808 45.65059244815918
    vertex 182.5000000000389 86.78956440497808 45.65059244815918
  endloop
endfacet
facet normal -1.8114147989918437e-17 -0.1305261922200491 -0.9914448613738107
  outer loop
    vertex 180.45000000003893 86.78956440497808 45.65059244815918
    vertex 182.5000000000389 86.41427678957942 45.70000000004003
    vertex 180.45000000003893 86.41427678957942 45.70000000004003
  endloop
endfacet
facet normal 1.8114147989918487e-17 0.13052619222004946 -0.9914448613738107
  outer loop
    vertex 182.5000000000389 86.03898917418076 45.65059244815918
    vertex 180.45000000003893 86.41427678957942 45.70000000004003
    vertex 182.5000000000389 86.41427678957942 45.70000000004003
  endloop
endfacet
facet normal 1.8114147989918487e-17 0.13052619222004946 -0.9914448613738107
  outer loop
    vertex 180.45000000003893 86.41427678957942 45.70000000004003
    vertex 182.5000000000389 86.03898917418076 45.65059244815918
    vertex 180.45000000003893 86.03898917418076 45.65059244815918
  endloop
endfacet
facet normal 5.310799471928866e-17 0.3826834323650923 -0.9238795325112859
  outer loop
    vertex 182.5000000000389 85.68927678957942 45.505736835527465
    vertex 180.45000000003893 86.03898917418076 45.65059244815918
    vertex 182.5000000000389 86.03898917418076 45.65059244815918
  endloop
endfacet
facet normal 5.310799471928866e-17 0.3826834323650923 -0.9238795325112859
  outer loop
    vertex 180.45000000003893 86.03898917418076 45.65059244815918
    vertex 182.5000000000389 85.68927678957942 45.505736835527465
    vertex 180.45000000003893 85.68927678957942 45.505736835527465
  endloop
endfacet
facet normal 8.448261937364896e-17 0.6087614290087182 -0.7933533402912372
  outer loop
    vertex 182.5000000000389 85.38897195685892 45.275304832760526
    vertex 180.45000000003893 85.68927678957942 45.505736835527465
    vertex 182.5000000000389 85.68927678957942 45.505736835527465
  endloop
endfacet
facet normal 8.448261937364896e-17 0.6087614290087182 -0.7933533402912372
  outer loop
    vertex 180.45000000003893 85.68927678957942 45.505736835527465
    vertex 182.5000000000389 85.38897195685892 45.275304832760526
    vertex 180.45000000003893 85.38897195685892 45.275304832760526
  endloop
endfacet
facet normal 1.1009989313182579e-16 0.7933533402912354 -0.6087614290087207
  outer loop
    vertex 182.5000000000389 85.38897195685892 45.275304832760526
    vertex 180.45000000003893 85.15853995409198 44.97500000004003
    vertex 180.45000000003893 85.38897195685892 45.275304832760526
  endloop
endfacet
facet normal 1.1009989313182579e-16 0.7933533402912354 -0.6087614290087207
  outer loop
    vertex 180.45000000003893 85.15853995409198 44.97500000004003
    vertex 182.5000000000389 85.38897195685892 45.275304832760526
    vertex 182.5000000000389 85.15853995409198 44.97500000004003
  endloop
endfacet
facet normal 1.2821404112174463e-16 0.9238795325112873 -0.3826834323650887
  outer loop
    vertex 182.5000000000389 85.15853995409198 44.97500000004003
    vertex 180.45000000003893 85.01368434146026 44.62528761543868
    vertex 180.45000000003893 85.15853995409198 44.97500000004003
  endloop
endfacet
facet normal 1.2821404112174463e-16 0.9238795325112873 -0.3826834323650887
  outer loop
    vertex 180.45000000003893 85.01368434146026 44.62528761543868
    vertex 182.5000000000389 85.15853995409198 44.97500000004003
    vertex 182.5000000000389 85.01368434146026 44.62528761543868
  endloop
endfacet
facet normal 1.3759061409293763e-16 0.9914448613738105 -0.13052619222005155
  outer loop
    vertex 182.5000000000389 85.01368434146026 44.62528761543868
    vertex 180.45000000003893 84.96427678957942 44.25000000004003
    vertex 180.45000000003893 85.01368434146026 44.62528761543868
  endloop
endfacet
facet normal 1.3759061409293763e-16 0.9914448613738105 -0.13052619222005155
  outer loop
    vertex 180.45000000003893 84.96427678957942 44.25000000004003
    vertex 182.5000000000389 85.01368434146026 44.62528761543868
    vertex 182.5000000000389 84.96427678957942 44.25000000004003
  endloop
endfacet
facet normal 1.3759061409293763e-16 0.9914448613738105 0.13052619222005155
  outer loop
    vertex 182.5000000000389 84.96427678957942 44.25000000004003
    vertex 180.45000000003893 85.01368434146026 43.87471238464138
    vertex 180.45000000003893 84.96427678957942 44.25000000004003
  endloop
endfacet
facet normal 1.3759061409293763e-16 0.9914448613738105 0.13052619222005155
  outer loop
    vertex 180.45000000003893 85.01368434146026 43.87471238464138
    vertex 182.5000000000389 84.96427678957942 44.25000000004003
    vertex 182.5000000000389 85.01368434146026 43.87471238464138
  endloop
endfacet
facet normal 1.2821404112174456e-16 0.9238795325112867 0.3826834323650897
  outer loop
    vertex 182.5000000000389 85.01368434146026 43.87471238464138
    vertex 180.45000000003893 85.15853995409198 43.52500000004003
    vertex 180.45000000003893 85.01368434146026 43.87471238464138
  endloop
endfacet
facet normal 1.2821404112174456e-16 0.9238795325112867 0.3826834323650897
  outer loop
    vertex 180.45000000003893 85.15853995409198 43.52500000004003
    vertex 182.5000000000389 85.01368434146026 43.87471238464138
    vertex 182.5000000000389 85.15853995409198 43.52500000004003
  endloop
endfacet
facet normal 1.1009989313182605e-16 0.7933533402912372 0.6087614290087181
  outer loop
    vertex 182.5000000000389 85.15853995409198 43.52500000004003
    vertex 180.45000000003893 85.38897195685892 43.22469516731954
    vertex 180.45000000003893 85.15853995409198 43.52500000004003
  endloop
endfacet
facet normal 1.1009989313182605e-16 0.7933533402912372 0.6087614290087181
  outer loop
    vertex 180.45000000003893 85.38897195685892 43.22469516731954
    vertex 182.5000000000389 85.15853995409198 43.52500000004003
    vertex 182.5000000000389 85.38897195685892 43.22469516731954
  endloop
endfacet
facet normal 8.448261937364904e-17 0.6087614290087188 0.7933533402912368
  outer loop
    vertex 180.45000000003893 85.38897195685892 43.22469516731954
    vertex 182.5000000000389 85.68927678957942 42.9942631645526
    vertex 180.45000000003893 85.68927678957942 42.9942631645526
  endloop
endfacet
facet normal 8.448261937364904e-17 0.6087614290087188 0.7933533402912368
  outer loop
    vertex 182.5000000000389 85.68927678957942 42.9942631645526
    vertex 180.45000000003893 85.38897195685892 43.22469516731954
    vertex 182.5000000000389 85.38897195685892 43.22469516731954
  endloop
endfacet
facet normal 5.3107994719288616e-17 0.382683432365092 0.9238795325112861
  outer loop
    vertex 180.45000000003893 85.68927678957942 42.9942631645526
    vertex 182.5000000000389 86.03898917418076 42.849407551920876
    vertex 180.45000000003893 86.03898917418076 42.849407551920876
  endloop
endfacet
facet normal 5.3107994719288616e-17 0.382683432365092 0.9238795325112861
  outer loop
    vertex 182.5000000000389 86.03898917418076 42.849407551920876
    vertex 180.45000000003893 85.68927678957942 42.9942631645526
    vertex 182.5000000000389 85.68927678957942 42.9942631645526
  endloop
endfacet
facet normal 1.81141479899185e-17 0.13052619222004955 0.9914448613738108
  outer loop
    vertex 180.45000000003893 86.03898917418076 42.849407551920876
    vertex 182.5000000000389 86.41427678957942 42.800000000040036
    vertex 180.45000000003893 86.41427678957942 42.800000000040036
  endloop
endfacet
facet normal 1.81141479899185e-17 0.13052619222004955 0.9914448613738108
  outer loop
    vertex 182.5000000000389 86.41427678957942 42.800000000040036
    vertex 180.45000000003893 86.03898917418076 42.849407551920876
    vertex 182.5000000000389 86.03898917418076 42.849407551920876
  endloop
endfacet
facet normal -1.8114147989918514e-17 -0.13052619222004966 0.9914448613738107
  outer loop
    vertex 180.45000000003893 86.41427678957942 42.800000000040036
    vertex 182.5000000000389 86.78956440497808 42.849407551920876
    vertex 180.45000000003893 86.78956440497808 42.849407551920876
  endloop
endfacet
facet normal -1.8114147989918514e-17 -0.13052619222004966 0.9914448613738107
  outer loop
    vertex 182.5000000000389 86.78956440497808 42.849407551920876
    vertex 180.45000000003893 86.41427678957942 42.800000000040036
    vertex 182.5000000000389 86.41427678957942 42.800000000040036
  endloop
endfacet
facet normal -5.3107994719288616e-17 -0.382683432365092 0.9238795325112861
  outer loop
    vertex 180.45000000003893 86.78956440497808 42.849407551920876
    vertex 182.5000000000389 87.13927678957941 42.9942631645526
    vertex 180.45000000003893 87.13927678957941 42.9942631645526
  endloop
endfacet
facet normal -5.3107994719288616e-17 -0.382683432365092 0.9238795325112861
  outer loop
    vertex 182.5000000000389 87.13927678957941 42.9942631645526
    vertex 180.45000000003893 86.78956440497808 42.849407551920876
    vertex 182.5000000000389 86.78956440497808 42.849407551920876
  endloop
endfacet
facet normal -8.448261937364896e-17 -0.6087614290087182 0.7933533402912372
  outer loop
    vertex 180.45000000003893 87.13927678957941 42.9942631645526
    vertex 182.5000000000389 87.43958162229991 43.22469516731954
    vertex 180.45000000003893 87.43958162229991 43.22469516731954
  endloop
endfacet
facet normal -8.448261937364896e-17 -0.6087614290087182 0.7933533402912372
  outer loop
    vertex 182.5000000000389 87.43958162229991 43.22469516731954
    vertex 180.45000000003893 87.13927678957941 42.9942631645526
    vertex 182.5000000000389 87.13927678957941 42.9942631645526
  endloop
endfacet
facet normal -1.1009989313182579e-16 -0.7933533402912354 0.6087614290087207
  outer loop
    vertex 182.5000000000389 87.43958162229991 43.22469516731954
    vertex 180.45000000003893 87.67001362506686 43.52500000004002
    vertex 180.45000000003893 87.43958162229991 43.22469516731954
  endloop
endfacet
facet normal -1.1009989313182579e-16 -0.7933533402912354 0.6087614290087207
  outer loop
    vertex 180.45000000003893 87.67001362506686 43.52500000004002
    vertex 182.5000000000389 87.43958162229991 43.22469516731954
    vertex 182.5000000000389 87.67001362506686 43.52500000004002
  endloop
endfacet
facet normal -1.2821404112174448e-16 -0.9238795325112862 0.38268343236509134
  outer loop
    vertex 182.5000000000389 87.67001362506686 43.52500000004002
    vertex 180.45000000003893 87.81486923769856 43.87471238464137
    vertex 180.45000000003893 87.67001362506686 43.52500000004002
  endloop
endfacet
facet normal -1.2821404112174448e-16 -0.9238795325112862 0.38268343236509134
  outer loop
    vertex 180.45000000003893 87.81486923769856 43.87471238464137
    vertex 182.5000000000389 87.67001362506686 43.52500000004002
    vertex 182.5000000000389 87.81486923769856 43.87471238464137
  endloop
endfacet
facet normal -1.3759061409293763e-16 -0.9914448613738106 0.13052619222005152
  outer loop
    vertex 182.5000000000389 87.81486923769856 43.87471238464137
    vertex 180.45000000003893 87.86427678957942 44.25000000004003
    vertex 180.45000000003893 87.81486923769856 43.87471238464137
  endloop
endfacet
facet normal -1.3759061409293763e-16 -0.9914448613738106 0.13052619222005152
  outer loop
    vertex 180.45000000003893 87.86427678957942 44.25000000004003
    vertex 182.5000000000389 87.81486923769856 43.87471238464137
    vertex 182.5000000000389 87.86427678957942 44.25000000004003
  endloop
endfacet
endsolid whole case
