solid whole case
facet normal -1.0 -9.487398244304718e-18 -3.53117758334378e-16
  outer loop
    vertex 205.69999999970167 17.83572321023445 42.76501967125961
    vertex 205.69999999970167 21.78898917417428 44.8494075519262
    vertex 205.69999999970167 22.16427678957293 44.800000000045344
  endloop
endfacet
facet normal -1.0 -9.487398244304718e-18 -3.53117758334378e-16
  outer loop
    vertex 205.69999999970167 21.78898917417428 44.8494075519262
    vertex 205.69999999970167 17.83572321023445 42.76501967125961
    vertex 205.69999999970167 17.66427678957296 46.25000000004531
  endloop
endfacet
facet normal -1.0 -9.487398244304718e-18 -3.53117758334378e-16
  outer loop
    vertex 205.69999999970167 21.78898917417428 44.8494075519262
    vertex 205.69999999970167 17.66427678957296 46.25000000004531
    vertex 205.69999999970167 21.439276789572915 44.99426316455791
  endloop
endfacet
facet normal -1.0 -9.487398244304718e-18 -3.53117758334378e-16
  outer loop
    vertex 205.69999999970167 21.439276789572915 44.99426316455791
    vertex 205.69999999970167 17.66427678957296 46.25000000004531
    vertex 205.69999999970167 21.13897195685244 45.224695167324846
  endloop
endfacet
facet normal -1.0 -9.487398244304718e-18 -3.53117758334378e-16
  outer loop
    vertex 205.69999999970167 21.13897195685244 45.224695167324846
    vertex 205.69999999970167 17.66427678957296 46.25000000004531
    vertex 205.69999999970167 20.908539954085484 45.525000000045345
  endloop
endfacet
facet normal -1.0 -9.487398244304718e-18 -3.53117758334378e-16
  outer loop
    vertex 205.69999999970167 20.908539954085484 45.525000000045345
    vertex 205.69999999970167 17.66427678957296 46.25000000004531
    vertex 205.69999999970167 20.763684341453764 45.874712384646685
  endloop
endfacet
facet normal -1.0 -9.487398244304718e-18 -3.53117758334378e-16
  outer loop
    vertex 205.69999999970167 20.763684341453764 45.874712384646685
    vertex 205.69999999970167 17.66427678957296 46.25000000004531
    vertex 205.69999999970167 20.71427678957292 46.25000000004535
  endloop
endfacet
facet normal -1.0 -9.487398244304718e-18 -3.53117758334378e-16
  outer loop
    vertex 205.69999999970167 20.71427678957292 46.25000000004535
    vertex 205.69999999970167 17.66427678957296 46.25000000004531
    vertex 205.69999999970167 17.835723210234427 49.734980328831
  endloop
endfacet
facet normal -1.0 -9.487398244304718e-18 -3.53117758334378e-16
  outer loop
    vertex 205.69999999970167 20.71427678957292 46.25000000004535
    vertex 205.69999999970167 17.835723210234427 49.734980328831
    vertex 205.69999999970167 20.763684341453764 46.625287615444
  endloop
endfacet
facet normal -1.0 -9.487398244304718e-18 -3.53117758334378e-16
  outer loop
    vertex 205.69999999970167 20.763684341453764 46.625287615444
    vertex 205.69999999970167 17.835723210234427 49.734980328831
    vertex 205.69999999970167 20.908539954085484 46.97500000004534
  endloop
endfacet
facet normal -1.0 -9.487398244304718e-18 -3.53117758334378e-16
  outer loop
    vertex 205.69999999970167 20.908539954085484 46.97500000004534
    vertex 205.69999999970167 17.835723210234427 49.734980328831
    vertex 205.69999999970167 21.13897195685244 47.27530483276584
  endloop
endfacet
facet normal -1.0 -9.487398244304718e-18 -3.53117758334378e-16
  outer loop
    vertex 205.69999999970167 21.13897195685244 47.27530483276584
    vertex 205.69999999970167 17.835723210234427 49.734980328831
    vertex 205.69999999970167 21.439276789572915 47.50573683553279
  endloop
endfacet
facet normal -1.0 -9.487398244304718e-18 -3.53117758334378e-16
  outer loop
    vertex 205.69999999970167 21.439276789572915 47.50573683553279
    vertex 205.69999999970167 17.835723210234427 49.734980328831
    vertex 205.69999999970167 21.78898917417428 47.650592448164495
  endloop
endfacet
facet normal -1.0 -9.487398244304718e-18 -3.53117758334378e-16
  outer loop
    vertex 205.69999999970167 21.78898917417428 47.650592448164495
    vertex 205.69999999970167 17.835723210234427 49.734980328831
    vertex 205.69999999970167 22.16427678957293 47.70000000004535
  endloop
endfacet
facet normal -1.0 -9.487398244304718e-18 -3.53117758334378e-16
  outer loop
    vertex 205.69999999970167 21.86820792735968 29.491424144055802
    vertex 205.69999999970167 78.66427678957294 26.50000000004532
    vertex 205.69999999970167 23.664276789572927 26.50000000004532
  endloop
endfacet
facet normal -1.0 -9.487398244304718e-18 -3.53117758334378e-16
  outer loop
    vertex 205.69999999970167 78.66427678957294 26.50000000004532
    vertex 205.69999999970167 21.86820792735968 29.491424144055802
    vertex 205.69999999970167 80.46034565178627 29.49142414405583
  endloop
endfacet
facet normal -1.0 -9.487398244304718e-18 -3.53117758334378e-16
  outer loop
    vertex 205.69999999970167 80.46034565178627 29.49142414405583
    vertex 205.69999999970167 21.86820792735968 29.491424144055802
    vertex 205.69999999970182 29.964276789572928 29.500000000045247
  endloop
endfacet
facet normal -1.0 -9.487398244304718e-18 -3.53117758334378e-16
  outer loop
    vertex 205.69999999970182 29.964276789572928 29.500000000045247
    vertex 205.69999999970167 21.86820792735968 29.491424144055802
    vertex 205.69999999970167 20.374432288547702 32.64469484415004
  endloop
endfacet
facet normal -1.0 -9.487398244304718e-18 -3.53117758334378e-16
  outer loop
    vertex 205.69999999970182 29.964276789572928 29.500000000045247
    vertex 205.69999999970167 20.374432288547702 32.64469484415004
    vertex 205.69999999970162 29.964276789572917 63.00000000004528
  endloop
endfacet
facet normal -1.0 -9.487398244304718e-18 -3.53117758334378e-16
  outer loop
    vertex 205.69999999970162 29.964276789572917 63.00000000004528
    vertex 205.69999999970167 20.374432288547702 32.64469484415004
    vertex 205.69999999970167 23.564869237692072 45.874712384646685
  endloop
endfacet
facet normal -1.0 -9.487398244304718e-18 -3.53117758334378e-16
  outer loop
    vertex 205.69999999970167 23.564869237692072 45.874712384646685
    vertex 205.69999999970167 20.374432288547702 32.64469484415004
    vertex 205.69999999970167 23.420013625060353 45.525000000045345
  endloop
endfacet
facet normal -1.0 -9.487398244304718e-18 -3.53117758334378e-16
  outer loop
    vertex 205.69999999970167 23.420013625060353 45.525000000045345
    vertex 205.69999999970167 20.374432288547702 32.64469484415004
    vertex 205.69999999970167 19.197376065719364 35.92935927381131
  endloop
endfacet
facet normal -1.0 -9.487398244304718e-18 -3.53117758334378e-16
  outer loop
    vertex 205.69999999970167 23.420013625060353 45.525000000045345
    vertex 205.69999999970167 19.197376065719364 35.92935927381131
    vertex 205.69999999970167 23.18958162229342 45.224695167324846
  endloop
endfacet
facet normal -1.0 -9.487398244304718e-18 -3.53117758334378e-16
  outer loop
    vertex 205.69999999970167 23.18958162229342 45.224695167324846
    vertex 205.69999999970167 19.197376065719364 35.92935927381131
    vertex 205.69999999970167 18.34840672217336 39.313695666798864
  endloop
endfacet
facet normal -1.0 -9.487398244304718e-18 -3.53117758334378e-16
  outer loop
    vertex 205.69999999970167 23.18958162229342 45.224695167324846
    vertex 205.69999999970167 18.34840672217336 39.313695666798864
    vertex 205.69999999970167 22.88927678957292 44.99426316455791
  endloop
endfacet
facet normal -1.0 -9.487398244304718e-18 -3.53117758334378e-16
  outer loop
    vertex 205.69999999970167 22.88927678957292 44.99426316455791
    vertex 205.69999999970167 18.34840672217336 39.313695666798864
    vertex 205.69999999970167 17.83572321023445 42.76501967125961
  endloop
endfacet
facet normal -1.0 -9.487398244304718e-18 -3.53117758334378e-16
  outer loop
    vertex 205.69999999970167 22.88927678957292 44.99426316455791
    vertex 205.69999999970167 17.83572321023445 42.76501967125961
    vertex 205.69999999970167 22.539564404971582 44.8494075519262
  endloop
endfacet
facet normal -1.0 -9.487398244304718e-18 -3.53117758334378e-16
  outer loop
    vertex 205.69999999970167 22.539564404971582 44.8494075519262
    vertex 205.69999999970167 17.83572321023445 42.76501967125961
    vertex 205.69999999970167 22.16427678957293 44.800000000045344
  endloop
endfacet
facet normal -1.0 -9.487398244304718e-18 -3.53117758334378e-16
  outer loop
    vertex 205.69999999970162 29.964276789572917 63.00000000004528
    vertex 205.69999999970167 23.564869237692072 45.874712384646685
    vertex 205.69999999970167 23.614276789572916 46.25000000004535
  endloop
endfacet
facet normal -1.0 -9.487398244304718e-18 -3.53117758334378e-16
  outer loop
    vertex 205.69999999970162 29.964276789572917 63.00000000004528
    vertex 205.69999999970167 23.614276789572916 46.25000000004535
    vertex 205.69999999970167 23.564869237692072 46.625287615444
  endloop
endfacet
facet normal -1.0 -9.487398244304718e-18 -3.53117758334378e-16
  outer loop
    vertex 205.69999999970162 29.964276789572917 63.00000000004528
    vertex 205.69999999970167 23.564869237692072 46.625287615444
    vertex 205.69999999970167 23.420013625060353 46.97500000004534
  endloop
endfacet
facet normal -1.0 -9.487398244304718e-18 -3.53117758334378e-16
  outer loop
    vertex 205.69999999970162 29.964276789572917 63.00000000004528
    vertex 205.69999999970167 23.420013625060353 46.97500000004534
    vertex 205.69999999970167 23.18958162229342 47.27530483276584
  endloop
endfacet
facet normal -1.0 -9.487398244304718e-18 -3.53117758334378e-16
  outer loop
    vertex 205.69999999970162 29.964276789572917 63.00000000004528
    vertex 205.69999999970167 23.18958162229342 47.27530483276584
    vertex 205.69999999970167 22.88927678957292 47.50573683553279
  endloop
endfacet
facet normal -1.0 -9.487398244304718e-18 -3.53117758334378e-16
  outer loop
    vertex 205.69999999970162 29.964276789572917 63.00000000004528
    vertex 205.69999999970167 22.88927678957292 47.50573683553279
    vertex 205.69999999970167 22.539564404971582 47.650592448164495
  endloop
endfacet
facet normal -1.0 -9.487398244304718e-18 -3.53117758334378e-16
  outer loop
    vertex 205.69999999970162 29.964276789572917 63.00000000004528
    vertex 205.69999999970167 22.539564404971582 47.650592448164495
    vertex 205.69999999970167 22.16427678957293 47.70000000004535
  endloop
endfacet
facet normal -1.0 -9.487398244304718e-18 -3.53117758334378e-16
  outer loop
    vertex 205.69999999970162 29.964276789572917 63.00000000004528
    vertex 205.69999999970167 22.16427678957293 47.70000000004535
    vertex 205.69999999970167 17.835723210234427 49.734980328831
  endloop
endfacet
facet normal -1.0 -9.487398244304718e-18 -3.53117758334378e-16
  outer loop
    vertex 205.69999999970162 29.964276789572917 63.00000000004528
    vertex 205.69999999970167 17.835723210234427 49.734980328831
    vertex 205.69999999970167 18.34840672217334 53.18630433329172
  endloop
endfacet
facet normal -1.0 -9.487398244304718e-18 -3.53117758334378e-16
  outer loop
    vertex 205.69999999970162 29.964276789572917 63.00000000004528
    vertex 205.69999999970167 18.34840672217334 53.18630433329172
    vertex 205.69999999970167 19.197376065719318 56.57064072627929
  endloop
endfacet
facet normal -1.0 -9.487398244304718e-18 -3.53117758334378e-16
  outer loop
    vertex 205.69999999970162 29.964276789572917 63.00000000004528
    vertex 205.69999999970167 19.197376065719318 56.57064072627929
    vertex 205.69999999970167 20.37443228854766 59.85530515594056
  endloop
endfacet
facet normal -1.0 -9.487398244304718e-18 -3.53117758334378e-16
  outer loop
    vertex 205.69999999970162 29.964276789572917 63.00000000004528
    vertex 205.69999999970167 20.37443228854766 59.85530515594056
    vertex 205.69999999970167 21.868207927359613 63.0085758560348
  endloop
endfacet
facet normal -1.0 -9.487398244304718e-18 -3.53117758334378e-16
  outer loop
    vertex 205.69999999970162 29.964276789572917 63.00000000004528
    vertex 205.69999999970167 21.868207927359613 63.0085758560348
    vertex 205.69999999970173 72.36427678957295 63.00000000004533
  endloop
endfacet
facet normal -1.0 -9.487398244304718e-18 -3.53117758334378e-16
  outer loop
    vertex 205.69999999970167 80.46034565178627 29.49142414405583
    vertex 205.69999999970173 72.36427678957294 29.50000000004537
    vertex 205.69999999970167 81.95412129059824 32.64469484415006
  endloop
endfacet
facet normal -1.0 -9.487398244304718e-18 -3.53117758334378e-16
  outer loop
    vertex 205.69999999970173 72.36427678957294 29.50000000004537
    vertex 205.69999999970167 80.46034565178627 29.49142414405583
    vertex 205.69999999970182 29.964276789572928 29.500000000045247
  endloop
endfacet
facet normal -1.0 -9.487398244304718e-18 -3.53117758334378e-16
  outer loop
    vertex 205.69999999970167 81.95412129059824 32.64469484415006
    vertex 205.69999999970173 72.36427678957294 29.50000000004537
    vertex 205.69999999970173 72.36427678957295 63.00000000004533
  endloop
endfacet
facet normal -1.0 -9.487398244304718e-18 -3.53117758334378e-16
  outer loop
    vertex 205.69999999970167 81.95412129059824 32.64469484415006
    vertex 205.69999999970173 72.36427678957295 63.00000000004533
    vertex 205.69999999970167 78.76368434145378 45.874712384646685
  endloop
endfacet
facet normal -1.0 -9.487398244304718e-18 -3.53117758334378e-16
  outer loop
    vertex 205.69999999970167 81.95412129059824 32.64469484415006
    vertex 205.69999999970167 78.76368434145378 45.874712384646685
    vertex 205.69999999970167 78.9085399540855 45.525000000045345
  endloop
endfacet
facet normal -1.0 -9.487398244304718e-18 -3.53117758334378e-16
  outer loop
    vertex 205.69999999970167 81.95412129059824 32.64469484415006
    vertex 205.69999999970167 78.9085399540855 45.525000000045345
    vertex 205.69999999970167 83.13117751342658 35.929359273811336
  endloop
endfacet
facet normal -1.0 -9.487398244304718e-18 -3.53117758334378e-16
  outer loop
    vertex 205.69999999970167 83.13117751342658 35.929359273811336
    vertex 205.69999999970167 78.9085399540855 45.525000000045345
    vertex 205.69999999970167 79.13897195685243 45.224695167324846
  endloop
endfacet
facet normal -1.0 -9.487398244304718e-18 -3.53117758334378e-16
  outer loop
    vertex 205.69999999970167 83.13117751342658 35.929359273811336
    vertex 205.69999999970167 79.13897195685243 45.224695167324846
    vertex 205.69999999970167 83.98014685697258 39.313695666798885
  endloop
endfacet
facet normal -1.0 -9.487398244304718e-18 -3.53117758334378e-16
  outer loop
    vertex 205.69999999970167 83.98014685697258 39.313695666798885
    vertex 205.69999999970167 79.13897195685243 45.224695167324846
    vertex 205.69999999970167 79.43927678957293 44.99426316455791
  endloop
endfacet
facet normal -1.0 -9.487398244304718e-18 -3.53117758334378e-16
  outer loop
    vertex 205.69999999970167 83.98014685697258 39.313695666798885
    vertex 205.69999999970167 79.43927678957293 44.99426316455791
    vertex 205.69999999970167 84.4928303689115 42.76501967125963
  endloop
endfacet
facet normal -1.0 -9.487398244304718e-18 -3.53117758334378e-16
  outer loop
    vertex 205.69999999970167 84.4928303689115 42.76501967125963
    vertex 205.69999999970167 79.43927678957293 44.99426316455791
    vertex 205.69999999970167 79.78898917417428 44.8494075519262
  endloop
endfacet
facet normal -1.0 -9.487398244304718e-18 -3.53117758334378e-16
  outer loop
    vertex 205.69999999970167 84.4928303689115 42.76501967125963
    vertex 205.69999999970167 79.78898917417428 44.8494075519262
    vertex 205.69999999970167 80.16427678957294 44.800000000045344
  endloop
endfacet
facet normal -1.0 -9.487398244304718e-18 -3.53117758334378e-16
  outer loop
    vertex 205.69999999970167 78.76368434145378 45.874712384646685
    vertex 205.69999999970173 72.36427678957295 63.00000000004533
    vertex 205.69999999970167 78.71427678957292 46.25000000004535
  endloop
endfacet
facet normal -1.0 -9.487398244304718e-18 -3.53117758334378e-16
  outer loop
    vertex 205.69999999970167 78.71427678957292 46.25000000004535
    vertex 205.69999999970173 72.36427678957295 63.00000000004533
    vertex 205.69999999970167 78.76368434145378 46.625287615444
  endloop
endfacet
facet normal -1.0 -9.487398244304718e-18 -3.53117758334378e-16
  outer loop
    vertex 205.69999999970167 78.76368434145378 46.625287615444
    vertex 205.69999999970173 72.36427678957295 63.00000000004533
    vertex 205.69999999970167 78.9085399540855 46.97500000004534
  endloop
endfacet
facet normal -1.0 -9.487398244304718e-18 -3.53117758334378e-16
  outer loop
    vertex 205.69999999970167 78.9085399540855 46.97500000004534
    vertex 205.69999999970173 72.36427678957295 63.00000000004533
    vertex 205.69999999970167 79.13897195685243 47.27530483276584
  endloop
endfacet
facet normal -1.0 -9.487398244304718e-18 -3.53117758334378e-16
  outer loop
    vertex 205.69999999970167 79.13897195685243 47.27530483276584
    vertex 205.69999999970173 72.36427678957295 63.00000000004533
    vertex 205.69999999970167 79.43927678957293 47.50573683553279
  endloop
endfacet
facet normal -1.0 -9.487398244304718e-18 -3.53117758334378e-16
  outer loop
    vertex 205.69999999970167 79.43927678957293 47.50573683553279
    vertex 205.69999999970173 72.36427678957295 63.00000000004533
    vertex 205.69999999970167 79.78898917417428 47.650592448164495
  endloop
endfacet
facet normal -1.0 -9.487398244304718e-18 -3.53117758334378e-16
  outer loop
    vertex 205.69999999970167 79.78898917417428 47.650592448164495
    vertex 205.69999999970173 72.36427678957295 63.00000000004533
    vertex 205.69999999970167 80.16427678957294 47.70000000004535
  endloop
endfacet
facet normal -1.0 -9.487398244304718e-18 -3.53117758334378e-16
  outer loop
    vertex 205.69999999970167 80.16427678957294 47.70000000004535
    vertex 205.69999999970173 72.36427678957295 63.00000000004533
    vertex 205.69999999970167 84.49283036891151 49.73498032883102
  endloop
endfacet
facet normal -1.0 -9.487398244304718e-18 -3.53117758334378e-16
  outer loop
    vertex 205.69999999970167 84.49283036891151 49.73498032883102
    vertex 205.69999999970173 72.36427678957295 63.00000000004533
    vertex 205.69999999970167 83.98014685697261 53.18630433329175
  endloop
endfacet
facet normal -1.0 -9.487398244304718e-18 -3.53117758334378e-16
  outer loop
    vertex 205.69999999970167 83.98014685697261 53.18630433329175
    vertex 205.69999999970173 72.36427678957295 63.00000000004533
    vertex 205.69999999970167 83.13117751342662 56.57064072627931
  endloop
endfacet
facet normal -1.0 -9.487398244304718e-18 -3.53117758334378e-16
  outer loop
    vertex 205.69999999970167 83.13117751342662 56.57064072627931
    vertex 205.69999999970173 72.36427678957295 63.00000000004533
    vertex 205.69999999970167 81.95412129059831 59.85530515594059
  endloop
endfacet
facet normal -1.0 -9.487398244304718e-18 -3.53117758334378e-16
  outer loop
    vertex 205.69999999970167 81.95412129059831 59.85530515594059
    vertex 205.69999999970173 72.36427678957295 63.00000000004533
    vertex 205.69999999970167 80.46034565178634 63.008575856034824
  endloop
endfacet
facet normal -1.0 -9.487398244304718e-18 -3.53117758334378e-16
  outer loop
    vertex 205.69999999970167 80.46034565178634 63.008575856034824
    vertex 205.69999999970173 72.36427678957295 63.00000000004533
    vertex 205.69999999970167 21.868207927359613 63.0085758560348
  endloop
endfacet
facet normal -1.0 -9.487398244304718e-18 -3.53117758334378e-16
  outer loop
    vertex 205.69999999970167 80.46034565178634 63.008575856034824
    vertex 205.69999999970167 21.868207927359613 63.0085758560348
    vertex 205.69999999970162 23.664276789572927 66.00000000004533
  endloop
endfacet
facet normal -1.0 -9.487398244304718e-18 -3.53117758334378e-16
  outer loop
    vertex 205.69999999970167 80.46034565178634 63.008575856034824
    vertex 205.69999999970162 23.664276789572927 66.00000000004533
    vertex 205.69999999970162 78.66427678957305 66.00000000004533
  endloop
endfacet
facet normal -1.0 -9.487398244304718e-18 -3.53117758334378e-16
  outer loop
    vertex 205.69999999970167 84.4928303689115 42.76501967125963
    vertex 205.69999999970167 80.53956440497159 44.8494075519262
    vertex 205.69999999970167 84.664276789573 46.25000000004533
  endloop
endfacet
facet normal -1.0 -9.487398244304718e-18 -3.53117758334378e-16
  outer loop
    vertex 205.69999999970167 80.53956440497159 44.8494075519262
    vertex 205.69999999970167 84.4928303689115 42.76501967125963
    vertex 205.69999999970167 80.16427678957294 44.800000000045344
  endloop
endfacet
facet normal -1.0 -9.487398244304718e-18 -3.53117758334378e-16
  outer loop
    vertex 205.69999999970167 84.664276789573 46.25000000004533
    vertex 205.69999999970167 80.53956440497159 44.8494075519262
    vertex 205.69999999970167 80.88927678957293 44.99426316455791
  endloop
endfacet
facet normal -1.0 -9.487398244304718e-18 -3.53117758334378e-16
  outer loop
    vertex 205.69999999970167 84.664276789573 46.25000000004533
    vertex 205.69999999970167 80.88927678957293 44.99426316455791
    vertex 205.69999999970167 81.18958162229343 45.224695167324846
  endloop
endfacet
facet normal -1.0 -9.487398244304718e-18 -3.53117758334378e-16
  outer loop
    vertex 205.69999999970167 84.664276789573 46.25000000004533
    vertex 205.69999999970167 81.18958162229343 45.224695167324846
    vertex 205.69999999970167 81.42001362506036 45.525000000045345
  endloop
endfacet
facet normal -1.0 -9.487398244304718e-18 -3.53117758334378e-16
  outer loop
    vertex 205.69999999970167 84.664276789573 46.25000000004533
    vertex 205.69999999970167 81.42001362506036 45.525000000045345
    vertex 205.69999999970167 81.56486923769208 45.874712384646685
  endloop
endfacet
facet normal -1.0 -9.487398244304718e-18 -3.53117758334378e-16
  outer loop
    vertex 205.69999999970167 84.664276789573 46.25000000004533
    vertex 205.69999999970167 81.56486923769208 45.874712384646685
    vertex 205.69999999970167 81.61427678957294 46.25000000004535
  endloop
endfacet
facet normal -1.0 -9.487398244304718e-18 -3.53117758334378e-16
  outer loop
    vertex 205.69999999970167 84.664276789573 46.25000000004533
    vertex 205.69999999970167 81.61427678957294 46.25000000004535
    vertex 205.69999999970167 84.49283036891151 49.73498032883102
  endloop
endfacet
facet normal -1.0 -9.487398244304718e-18 -3.53117758334378e-16
  outer loop
    vertex 205.69999999970167 84.49283036891151 49.73498032883102
    vertex 205.69999999970167 81.61427678957294 46.25000000004535
    vertex 205.69999999970167 81.56486923769208 46.625287615444
  endloop
endfacet
facet normal -1.0 -9.487398244304718e-18 -3.53117758334378e-16
  outer loop
    vertex 205.69999999970167 84.49283036891151 49.73498032883102
    vertex 205.69999999970167 81.56486923769208 46.625287615444
    vertex 205.69999999970167 81.42001362506036 46.97500000004534
  endloop
endfacet
facet normal -1.0 -9.487398244304718e-18 -3.53117758334378e-16
  outer loop
    vertex 205.69999999970167 84.49283036891151 49.73498032883102
    vertex 205.69999999970167 81.42001362506036 46.97500000004534
    vertex 205.69999999970167 81.18958162229343 47.27530483276584
  endloop
endfacet
facet normal -1.0 -9.487398244304718e-18 -3.53117758334378e-16
  outer loop
    vertex 205.69999999970167 84.49283036891151 49.73498032883102
    vertex 205.69999999970167 81.18958162229343 47.27530483276584
    vertex 205.69999999970167 80.88927678957293 47.50573683553279
  endloop
endfacet
facet normal -1.0 -9.487398244304718e-18 -3.53117758334378e-16
  outer loop
    vertex 205.69999999970167 84.49283036891151 49.73498032883102
    vertex 205.69999999970167 80.88927678957293 47.50573683553279
    vertex 205.69999999970167 80.53956440497159 47.650592448164495
  endloop
endfacet
facet normal -1.0 -9.487398244304718e-18 -3.53117758334378e-16
  outer loop
    vertex 205.69999999970167 84.49283036891151 49.73498032883102
    vertex 205.69999999970167 80.53956440497159 47.650592448164495
    vertex 205.69999999970167 80.16427678957294 47.70000000004535
  endloop
endfacet
facet normal 8.253560436726293e-15 5.320691476505399e-16 -1.0
  outer loop
    vertex 207.74999999970163 29.964276789572903 63.00000000004532
    vertex 205.69999999970173 72.36427678957295 63.00000000004533
    vertex 207.74999999970157 72.36427678957295 63.00000000004532
  endloop
endfacet
facet normal 8.253560436726293e-15 5.320691476505399e-16 -1.0
  outer loop
    vertex 205.69999999970173 72.36427678957295 63.00000000004533
    vertex 207.74999999970163 29.964276789572903 63.00000000004532
    vertex 205.69999999970162 29.964276789572917 63.00000000004528
  endloop
endfacet
facet normal 9.76793172092487e-15 1.0 8.417810395667342e-17
  outer loop
    vertex 207.74999999970163 29.964276789572903 63.00000000004532
    vertex 205.69999999970182 29.964276789572928 29.500000000045247
    vertex 205.69999999970162 29.964276789572917 63.00000000004528
  endloop
endfacet
facet normal 9.76793172092487e-15 1.0 8.417810395667342e-17
  outer loop
    vertex 205.69999999970182 29.964276789572928 29.500000000045247
    vertex 207.74999999970163 29.964276789572903 63.00000000004532
    vertex 207.74999999970157 29.9642767895729 29.500000000045347
  endloop
endfacet
facet normal 2.076907004833915e-14 3.128209572088523e-18 -1.0
  outer loop
    vertex 207.74999999970163 23.664276789572927 26.500000000045365
    vertex 205.69999999970167 78.66427678957294 26.50000000004532
    vertex 207.74999999970166 78.66427678957297 26.500000000045365
  endloop
endfacet
facet normal 2.076907004833915e-14 3.128209572088523e-18 -1.0
  outer loop
    vertex 205.69999999970167 78.66427678957294 26.50000000004532
    vertex 207.74999999970163 23.664276789572927 26.500000000045365
    vertex 205.69999999970167 23.664276789572927 26.50000000004532
  endloop
endfacet
facet normal -1.8914409334164092e-14 -1.5130716386312751e-15 1.0
  outer loop
    vertex 205.69999999970173 72.36427678957294 29.50000000004537
    vertex 207.74999999970157 29.9642767895729 29.500000000045347
    vertex 207.74999999970152 72.36427678957295 29.500000000045347
  endloop
endfacet
facet normal -1.8914409334164092e-14 -1.5130716386312751e-15 1.0
  outer loop
    vertex 207.74999999970157 29.9642767895729 29.500000000045347
    vertex 205.69999999970173 72.36427678957294 29.50000000004537
    vertex 205.69999999970182 29.964276789572928 29.500000000045247
  endloop
endfacet
facet normal 2.695918572153926e-14 -4.263646099293617e-16 1.0
  outer loop
    vertex 205.69999999970162 23.664276789572927 66.00000000004533
    vertex 207.74999999970166 78.66427678957302 66.0000000000453
    vertex 205.69999999970162 78.66427678957305 66.00000000004533
  endloop
endfacet
facet normal 2.695918572153926e-14 -4.263646099293617e-16 1.0
  outer loop
    vertex 207.74999999970166 78.66427678957302 66.0000000000453
    vertex 205.69999999970162 23.664276789572927 66.00000000004533
    vertex 207.74999999970163 29.964276789572903 66.00000000004523
  endloop
endfacet
facet normal 2.695918572153926e-14 -4.263646099293617e-16 1.0
  outer loop
    vertex 207.74999999970163 29.964276789572903 66.00000000004523
    vertex 205.69999999970162 23.664276789572927 66.00000000004533
    vertex 207.74999999970163 23.664276789572927 66.00000000004528
  endloop
endfacet
facet normal 4.331900691815203e-15 -1.0 3.1566788983744594e-16
  outer loop
    vertex 207.74999999970152 72.36427678957295 29.500000000045347
    vertex 205.69999999970173 72.36427678957295 63.00000000004533
    vertex 205.69999999970173 72.36427678957294 29.50000000004537
  endloop
endfacet
facet normal 4.331900691815203e-15 -1.0 3.1566788983744594e-16
  outer loop
    vertex 205.69999999970173 72.36427678957295 63.00000000004533
    vertex 207.74999999970152 72.36427678957295 29.500000000045347
    vertex 207.74999999970157 72.36427678957295 63.00000000004532
  endloop
endfacet
facet normal 1.0 -1.6516025482397576e-16 1.6473337783985787e-16
  outer loop
    vertex 207.7499999997017 84.4928303689115 42.76501967125963
    vertex 207.74999999970166 80.53956440497159 44.8494075519262
    vertex 207.74999999970166 80.16427678957294 44.800000000045344
  endloop
endfacet
facet normal 1.0 -1.6516025482397576e-16 1.6473337783985787e-16
  outer loop
    vertex 207.74999999970166 80.53956440497159 44.8494075519262
    vertex 207.7499999997017 84.4928303689115 42.76501967125963
    vertex 207.7499999997017 84.664276789573 46.25000000004533
  endloop
endfacet
facet normal 1.0 -1.6516025482397576e-16 1.6473337783985787e-16
  outer loop
    vertex 207.74999999970166 80.53956440497159 44.8494075519262
    vertex 207.7499999997017 84.664276789573 46.25000000004533
    vertex 207.74999999970166 80.88927678957293 44.99426316455791
  endloop
endfacet
facet normal 1.0 -1.6516025482397576e-16 1.6473337783985787e-16
  outer loop
    vertex 207.74999999970166 80.88927678957293 44.99426316455791
    vertex 207.7499999997017 84.664276789573 46.25000000004533
    vertex 207.74999999970166 81.18958162229343 45.224695167324846
  endloop
endfacet
facet normal 1.0 -1.6516025482397576e-16 1.6473337783985787e-16
  outer loop
    vertex 207.74999999970166 81.18958162229343 45.224695167324846
    vertex 207.7499999997017 84.664276789573 46.25000000004533
    vertex 207.74999999970166 81.42001362506036 45.525000000045345
  endloop
endfacet
facet normal 1.0 -1.6516025482397576e-16 1.6473337783985787e-16
  outer loop
    vertex 207.74999999970166 81.42001362506036 45.525000000045345
    vertex 207.7499999997017 84.664276789573 46.25000000004533
    vertex 207.74999999970166 81.56486923769208 45.874712384646685
  endloop
endfacet
facet normal 1.0 -1.6516025482397576e-16 1.6473337783985787e-16
  outer loop
    vertex 207.74999999970166 81.56486923769208 45.874712384646685
    vertex 207.7499999997017 84.664276789573 46.25000000004533
    vertex 207.74999999970166 81.61427678957294 46.25000000004535
  endloop
endfacet
facet normal 1.0 -1.6516025482397576e-16 1.6473337783985787e-16
  outer loop
    vertex 207.74999999970166 81.61427678957294 46.25000000004535
    vertex 207.7499999997017 84.664276789573 46.25000000004533
    vertex 207.7499999997017 84.49283036891151 49.73498032883102
  endloop
endfacet
facet normal 1.0 -1.6516025482397576e-16 1.6473337783985787e-16
  outer loop
    vertex 207.74999999970166 81.61427678957294 46.25000000004535
    vertex 207.7499999997017 84.49283036891151 49.73498032883102
    vertex 207.74999999970166 81.56486923769208 46.625287615444
  endloop
endfacet
facet normal 1.0 -1.6516025482397576e-16 1.6473337783985787e-16
  outer loop
    vertex 207.74999999970166 81.56486923769208 46.625287615444
    vertex 207.7499999997017 84.49283036891151 49.73498032883102
    vertex 207.74999999970166 81.42001362506036 46.97500000004534
  endloop
endfacet
facet normal 1.0 -1.6516025482397576e-16 1.6473337783985787e-16
  outer loop
    vertex 207.74999999970166 81.42001362506036 46.97500000004534
    vertex 207.7499999997017 84.49283036891151 49.73498032883102
    vertex 207.74999999970166 81.18958162229343 47.27530483276584
  endloop
endfacet
facet normal 1.0 -1.6516025482397576e-16 1.6473337783985787e-16
  outer loop
    vertex 207.74999999970166 81.18958162229343 47.27530483276584
    vertex 207.7499999997017 84.49283036891151 49.73498032883102
    vertex 207.74999999970166 80.88927678957293 47.50573683553279
  endloop
endfacet
facet normal 1.0 -1.6516025482397576e-16 1.6473337783985787e-16
  outer loop
    vertex 207.74999999970166 80.88927678957293 47.50573683553279
    vertex 207.7499999997017 84.49283036891151 49.73498032883102
    vertex 207.74999999970166 80.53956440497159 47.650592448164495
  endloop
endfacet
facet normal 1.0 -1.6516025482397576e-16 1.6473337783985787e-16
  outer loop
    vertex 207.74999999970166 80.53956440497159 47.650592448164495
    vertex 207.7499999997017 84.49283036891151 49.73498032883102
    vertex 207.74999999970166 80.16427678957294 47.70000000004535
  endloop
endfacet
facet normal 1.0 -1.6516025482397576e-16 1.6473337783985787e-16
  outer loop
    vertex 207.74999999970166 78.66427678957302 66.0000000000453
    vertex 207.74999999970163 29.964276789572903 66.00000000004523
    vertex 207.7499999997017 80.46034565178633 63.008575856034824
  endloop
endfacet
facet normal 1.0 -1.6516025482397576e-16 1.6473337783985787e-16
  outer loop
    vertex 207.7499999997017 81.95412129059824 32.64469484415006
    vertex 207.74999999970152 72.36427678957295 29.500000000045347
    vertex 207.7499999997017 80.46034565178626 29.49142414405583
  endloop
endfacet
facet normal 1.0 -1.6516025482397576e-16 1.6473337783985787e-16
  outer loop
    vertex 207.74999999970152 72.36427678957295 29.500000000045347
    vertex 207.7499999997017 81.95412129059824 32.64469484415006
    vertex 207.74999999970157 72.36427678957295 63.00000000004532
  endloop
endfacet
facet normal 1.0 -1.6516025482397576e-16 1.6473337783985787e-16
  outer loop
    vertex 207.74999999970157 72.36427678957295 63.00000000004532
    vertex 207.7499999997017 81.95412129059824 32.64469484415006
    vertex 207.74999999970166 78.76368434145378 45.874712384646685
  endloop
endfacet
facet normal 1.0 -1.6516025482397576e-16 1.6473337783985787e-16
  outer loop
    vertex 207.74999999970166 78.76368434145378 45.874712384646685
    vertex 207.7499999997017 81.95412129059824 32.64469484415006
    vertex 207.74999999970166 78.9085399540855 45.525000000045345
  endloop
endfacet
facet normal 1.0 -1.6516025482397576e-16 1.6473337783985787e-16
  outer loop
    vertex 207.74999999970166 78.9085399540855 45.525000000045345
    vertex 207.7499999997017 81.95412129059824 32.64469484415006
    vertex 207.7499999997017 83.13117751342658 35.929359273811336
  endloop
endfacet
facet normal 1.0 -1.6516025482397576e-16 1.6473337783985787e-16
  outer loop
    vertex 207.74999999970166 78.9085399540855 45.525000000045345
    vertex 207.7499999997017 83.13117751342658 35.929359273811336
    vertex 207.74999999970166 79.13897195685243 45.224695167324846
  endloop
endfacet
facet normal 1.0 -1.6516025482397576e-16 1.6473337783985787e-16
  outer loop
    vertex 207.74999999970166 79.13897195685243 45.224695167324846
    vertex 207.7499999997017 83.13117751342658 35.929359273811336
    vertex 207.7499999997017 83.98014685697258 39.313695666798885
  endloop
endfacet
facet normal 1.0 -1.6516025482397576e-16 1.6473337783985787e-16
  outer loop
    vertex 207.74999999970166 79.13897195685243 45.224695167324846
    vertex 207.7499999997017 83.98014685697258 39.313695666798885
    vertex 207.74999999970166 79.43927678957293 44.99426316455791
  endloop
endfacet
facet normal 1.0 -1.6516025482397576e-16 1.6473337783985787e-16
  outer loop
    vertex 207.74999999970166 79.43927678957293 44.99426316455791
    vertex 207.7499999997017 83.98014685697258 39.313695666798885
    vertex 207.7499999997017 84.4928303689115 42.76501967125963
  endloop
endfacet
facet normal 1.0 -1.6516025482397576e-16 1.6473337783985787e-16
  outer loop
    vertex 207.74999999970166 79.43927678957293 44.99426316455791
    vertex 207.7499999997017 84.4928303689115 42.76501967125963
    vertex 207.74999999970166 79.78898917417428 44.8494075519262
  endloop
endfacet
facet normal 1.0 -1.6516025482397576e-16 1.6473337783985787e-16
  outer loop
    vertex 207.74999999970166 79.78898917417428 44.8494075519262
    vertex 207.7499999997017 84.4928303689115 42.76501967125963
    vertex 207.74999999970166 80.16427678957294 44.800000000045344
  endloop
endfacet
facet normal 1.0 -1.6516025482397576e-16 1.6473337783985787e-16
  outer loop
    vertex 207.74999999970157 72.36427678957295 63.00000000004532
    vertex 207.74999999970166 78.76368434145378 45.874712384646685
    vertex 207.74999999970166 78.71427678957292 46.25000000004535
  endloop
endfacet
facet normal 1.0 -1.6516025482397576e-16 1.6473337783985787e-16
  outer loop
    vertex 207.74999999970157 72.36427678957295 63.00000000004532
    vertex 207.74999999970166 78.71427678957292 46.25000000004535
    vertex 207.74999999970166 78.76368434145378 46.625287615444
  endloop
endfacet
facet normal 1.0 -1.6516025482397576e-16 1.6473337783985787e-16
  outer loop
    vertex 207.74999999970157 72.36427678957295 63.00000000004532
    vertex 207.74999999970166 78.76368434145378 46.625287615444
    vertex 207.74999999970166 78.9085399540855 46.97500000004534
  endloop
endfacet
facet normal 1.0 -1.6516025482397576e-16 1.6473337783985787e-16
  outer loop
    vertex 207.74999999970157 72.36427678957295 63.00000000004532
    vertex 207.74999999970166 78.9085399540855 46.97500000004534
    vertex 207.74999999970166 79.13897195685243 47.27530483276584
  endloop
endfacet
facet normal 1.0 -1.6516025482397576e-16 1.6473337783985787e-16
  outer loop
    vertex 207.74999999970157 72.36427678957295 63.00000000004532
    vertex 207.74999999970166 79.13897195685243 47.27530483276584
    vertex 207.74999999970166 79.43927678957293 47.50573683553279
  endloop
endfacet
facet normal 1.0 -1.6516025482397576e-16 1.6473337783985787e-16
  outer loop
    vertex 207.74999999970157 72.36427678957295 63.00000000004532
    vertex 207.74999999970166 79.43927678957293 47.50573683553279
    vertex 207.74999999970166 79.78898917417428 47.650592448164495
  endloop
endfacet
facet normal 1.0 -1.6516025482397576e-16 1.6473337783985787e-16
  outer loop
    vertex 207.74999999970157 72.36427678957295 63.00000000004532
    vertex 207.74999999970166 79.78898917417428 47.650592448164495
    vertex 207.74999999970166 80.16427678957294 47.70000000004535
  endloop
endfacet
facet normal 1.0 -1.6516025482397576e-16 1.6473337783985787e-16
  outer loop
    vertex 207.74999999970157 72.36427678957295 63.00000000004532
    vertex 207.74999999970166 80.16427678957294 47.70000000004535
    vertex 207.7499999997017 84.49283036891151 49.73498032883102
  endloop
endfacet
facet normal 1.0 -1.6516025482397576e-16 1.6473337783985787e-16
  outer loop
    vertex 207.74999999970157 72.36427678957295 63.00000000004532
    vertex 207.7499999997017 84.49283036891151 49.73498032883102
    vertex 207.7499999997017 83.98014685697261 53.18630433329175
  endloop
endfacet
facet normal 1.0 -1.6516025482397576e-16 1.6473337783985787e-16
  outer loop
    vertex 207.74999999970157 72.36427678957295 63.00000000004532
    vertex 207.7499999997017 83.98014685697261 53.18630433329175
    vertex 207.7499999997017 83.13117751342662 56.57064072627931
  endloop
endfacet
facet normal 1.0 -1.6516025482397576e-16 1.6473337783985787e-16
  outer loop
    vertex 207.74999999970157 72.36427678957295 63.00000000004532
    vertex 207.7499999997017 83.13117751342662 56.57064072627931
    vertex 207.7499999997017 81.9541212905983 59.85530515594059
  endloop
endfacet
facet normal 1.0 -1.6516025482397576e-16 1.6473337783985787e-16
  outer loop
    vertex 207.74999999970157 72.36427678957295 63.00000000004532
    vertex 207.7499999997017 81.9541212905983 59.85530515594059
    vertex 207.7499999997017 80.46034565178633 63.008575856034824
  endloop
endfacet
facet normal 1.0 -1.6516025482397576e-16 1.6473337783985787e-16
  outer loop
    vertex 207.74999999970157 72.36427678957295 63.00000000004532
    vertex 207.7499999997017 80.46034565178633 63.008575856034824
    vertex 207.74999999970163 29.964276789572903 63.00000000004532
  endloop
endfacet
facet normal 1.0 -1.6516025482397576e-16 1.6473337783985787e-16
  outer loop
    vertex 207.74999999970163 29.964276789572903 63.00000000004532
    vertex 207.7499999997017 80.46034565178633 63.008575856034824
    vertex 207.74999999970166 21.868207927359634 63.0085758560348
  endloop
endfacet
facet normal 1.0 -1.6516025482397576e-16 1.6473337783985787e-16
  outer loop
    vertex 207.74999999970166 21.868207927359634 63.0085758560348
    vertex 207.7499999997017 80.46034565178633 63.008575856034824
    vertex 207.74999999970163 23.664276789572927 66.00000000004528
  endloop
endfacet
facet normal 1.0 -1.6516025482397576e-16 1.6473337783985787e-16
  outer loop
    vertex 207.74999999970163 23.664276789572927 66.00000000004528
    vertex 207.7499999997017 80.46034565178633 63.008575856034824
    vertex 207.74999999970163 29.964276789572903 66.00000000004523
  endloop
endfacet
facet normal 1.0 -1.6516025482397576e-16 1.6473337783985787e-16
  outer loop
    vertex 207.7499999997017 80.46034565178626 29.49142414405583
    vertex 207.74999999970163 23.664276789572927 26.500000000045365
    vertex 207.74999999970166 78.66427678957297 26.500000000045365
  endloop
endfacet
facet normal 1.0 -1.6516025482397576e-16 1.6473337783985787e-16
  outer loop
    vertex 207.74999999970163 23.664276789572927 26.500000000045365
    vertex 207.7499999997017 80.46034565178626 29.49142414405583
    vertex 207.74999999970166 21.868207927359702 29.491424144055802
  endloop
endfacet
facet normal 1.0 -1.6516025482397576e-16 1.6473337783985787e-16
  outer loop
    vertex 207.74999999970166 21.868207927359702 29.491424144055802
    vertex 207.7499999997017 80.46034565178626 29.49142414405583
    vertex 207.74999999970157 29.9642767895729 29.500000000045347
  endloop
endfacet
facet normal 1.0 -1.6516025482397576e-16 1.6473337783985787e-16
  outer loop
    vertex 207.74999999970166 21.868207927359702 29.491424144055802
    vertex 207.74999999970157 29.9642767895729 29.500000000045347
    vertex 207.74999999970166 20.374432288547727 32.64469484415004
  endloop
endfacet
facet normal 1.0 -1.6516025482397576e-16 1.6473337783985787e-16
  outer loop
    vertex 207.74999999970157 29.9642767895729 29.500000000045347
    vertex 207.7499999997017 80.46034565178626 29.49142414405583
    vertex 207.74999999970152 72.36427678957295 29.500000000045347
  endloop
endfacet
facet normal 1.0 -1.6516025482397576e-16 1.6473337783985787e-16
  outer loop
    vertex 207.74999999970166 20.374432288547727 32.64469484415004
    vertex 207.74999999970157 29.9642767895729 29.500000000045347
    vertex 207.74999999970163 29.964276789572903 63.00000000004532
  endloop
endfacet
facet normal 1.0 -1.6516025482397576e-16 1.6473337783985787e-16
  outer loop
    vertex 207.74999999970166 20.374432288547727 32.64469484415004
    vertex 207.74999999970163 29.964276789572903 63.00000000004532
    vertex 207.74999999970166 23.564869237692072 45.874712384646685
  endloop
endfacet
facet normal 1.0 -1.6516025482397576e-16 1.6473337783985787e-16
  outer loop
    vertex 207.74999999970166 20.374432288547727 32.64469484415004
    vertex 207.74999999970166 23.564869237692072 45.874712384646685
    vertex 207.74999999970166 23.420013625060353 45.525000000045345
  endloop
endfacet
facet normal 1.0 -1.6516025482397576e-16 1.6473337783985787e-16
  outer loop
    vertex 207.74999999970166 20.374432288547727 32.64469484415004
    vertex 207.74999999970166 23.420013625060353 45.525000000045345
    vertex 207.74999999970166 19.197376065719386 35.92935927381131
  endloop
endfacet
facet normal 1.0 -1.6516025482397576e-16 1.6473337783985787e-16
  outer loop
    vertex 207.74999999970166 19.197376065719386 35.92935927381131
    vertex 207.74999999970166 23.420013625060353 45.525000000045345
    vertex 207.74999999970166 23.18958162229342 45.224695167324846
  endloop
endfacet
facet normal 1.0 -1.6516025482397576e-16 1.6473337783985787e-16
  outer loop
    vertex 207.74999999970166 19.197376065719386 35.92935927381131
    vertex 207.74999999970166 23.18958162229342 45.224695167324846
    vertex 207.74999999970166 18.348406722173387 39.313695666798864
  endloop
endfacet
facet normal 1.0 -1.6516025482397576e-16 1.6473337783985787e-16
  outer loop
    vertex 207.74999999970166 18.348406722173387 39.313695666798864
    vertex 207.74999999970166 23.18958162229342 45.224695167324846
    vertex 207.74999999970166 22.88927678957292 44.99426316455791
  endloop
endfacet
facet normal 1.0 -1.6516025482397576e-16 1.6473337783985787e-16
  outer loop
    vertex 207.74999999970166 18.348406722173387 39.313695666798864
    vertex 207.74999999970166 22.88927678957292 44.99426316455791
    vertex 207.74999999970166 17.835723210234473 42.76501967125961
  endloop
endfacet
facet normal 1.0 -1.6516025482397576e-16 1.6473337783985787e-16
  outer loop
    vertex 207.74999999970166 17.835723210234473 42.76501967125961
    vertex 207.74999999970166 22.88927678957292 44.99426316455791
    vertex 207.74999999970166 22.539564404971582 44.8494075519262
  endloop
endfacet
facet normal 1.0 -1.6516025482397576e-16 1.6473337783985787e-16
  outer loop
    vertex 207.74999999970166 17.835723210234473 42.76501967125961
    vertex 207.74999999970166 22.539564404971582 44.8494075519262
    vertex 207.74999999970166 22.16427678957293 44.800000000045344
  endloop
endfacet
facet normal 1.0 -1.6516025482397576e-16 1.6473337783985787e-16
  outer loop
    vertex 207.74999999970166 23.564869237692072 45.874712384646685
    vertex 207.74999999970163 29.964276789572903 63.00000000004532
    vertex 207.74999999970166 23.614276789572916 46.25000000004535
  endloop
endfacet
facet normal 1.0 -1.6516025482397576e-16 1.6473337783985787e-16
  outer loop
    vertex 207.74999999970166 23.614276789572916 46.25000000004535
    vertex 207.74999999970163 29.964276789572903 63.00000000004532
    vertex 207.74999999970166 23.564869237692072 46.625287615444
  endloop
endfacet
facet normal 1.0 -1.6516025482397576e-16 1.6473337783985787e-16
  outer loop
    vertex 207.74999999970166 23.564869237692072 46.625287615444
    vertex 207.74999999970163 29.964276789572903 63.00000000004532
    vertex 207.74999999970166 23.420013625060353 46.97500000004534
  endloop
endfacet
facet normal 1.0 -1.6516025482397576e-16 1.6473337783985787e-16
  outer loop
    vertex 207.74999999970166 23.420013625060353 46.97500000004534
    vertex 207.74999999970163 29.964276789572903 63.00000000004532
    vertex 207.74999999970166 23.18958162229342 47.27530483276584
  endloop
endfacet
facet normal 1.0 -1.6516025482397576e-16 1.6473337783985787e-16
  outer loop
    vertex 207.74999999970166 23.18958162229342 47.27530483276584
    vertex 207.74999999970163 29.964276789572903 63.00000000004532
    vertex 207.74999999970166 22.88927678957292 47.50573683553279
  endloop
endfacet
facet normal 1.0 -1.6516025482397576e-16 1.6473337783985787e-16
  outer loop
    vertex 207.74999999970166 22.88927678957292 47.50573683553279
    vertex 207.74999999970163 29.964276789572903 63.00000000004532
    vertex 207.74999999970166 22.539564404971582 47.650592448164495
  endloop
endfacet
facet normal 1.0 -1.6516025482397576e-16 1.6473337783985787e-16
  outer loop
    vertex 207.74999999970166 22.539564404971582 47.650592448164495
    vertex 207.74999999970163 29.964276789572903 63.00000000004532
    vertex 207.74999999970166 22.16427678957293 47.70000000004535
  endloop
endfacet
facet normal 1.0 -1.6516025482397576e-16 1.6473337783985787e-16
  outer loop
    vertex 207.74999999970166 22.16427678957293 47.70000000004535
    vertex 207.74999999970163 29.964276789572903 63.00000000004532
    vertex 207.74999999970166 17.83572321023445 49.734980328831
  endloop
endfacet
facet normal 1.0 -1.6516025482397576e-16 1.6473337783985787e-16
  outer loop
    vertex 207.74999999970166 17.83572321023445 49.734980328831
    vertex 207.74999999970163 29.964276789572903 63.00000000004532
    vertex 207.74999999970166 18.34840672217336 53.18630433329172
  endloop
endfacet
facet normal 1.0 -1.6516025482397576e-16 1.6473337783985787e-16
  outer loop
    vertex 207.74999999970166 18.34840672217336 53.18630433329172
    vertex 207.74999999970163 29.964276789572903 63.00000000004532
    vertex 207.74999999970166 19.197376065719343 56.57064072627929
  endloop
endfacet
facet normal 1.0 -1.6516025482397576e-16 1.6473337783985787e-16
  outer loop
    vertex 207.74999999970166 19.197376065719343 56.57064072627929
    vertex 207.74999999970163 29.964276789572903 63.00000000004532
    vertex 207.74999999970166 20.37443228854766 59.85530515594056
  endloop
endfacet
facet normal 1.0 -1.6516025482397576e-16 1.6473337783985787e-16
  outer loop
    vertex 207.74999999970166 20.37443228854766 59.85530515594056
    vertex 207.74999999970163 29.964276789572903 63.00000000004532
    vertex 207.74999999970166 21.868207927359634 63.0085758560348
  endloop
endfacet
facet normal 1.0 -1.6516025482397576e-16 1.6473337783985787e-16
  outer loop
    vertex 207.74999999970166 17.835723210234473 42.76501967125961
    vertex 207.74999999970166 21.78898917417428 44.8494075519262
    vertex 207.74999999970166 17.66427678957296 46.25000000004531
  endloop
endfacet
facet normal 1.0 -1.6516025482397576e-16 1.6473337783985787e-16
  outer loop
    vertex 207.74999999970166 21.78898917417428 44.8494075519262
    vertex 207.74999999970166 17.835723210234473 42.76501967125961
    vertex 207.74999999970166 22.16427678957293 44.800000000045344
  endloop
endfacet
facet normal 1.0 -1.6516025482397576e-16 1.6473337783985787e-16
  outer loop
    vertex 207.74999999970166 17.66427678957296 46.25000000004531
    vertex 207.74999999970166 21.78898917417428 44.8494075519262
    vertex 207.74999999970166 21.439276789572915 44.99426316455791
  endloop
endfacet
facet normal 1.0 -1.6516025482397576e-16 1.6473337783985787e-16
  outer loop
    vertex 207.74999999970166 17.66427678957296 46.25000000004531
    vertex 207.74999999970166 21.439276789572915 44.99426316455791
    vertex 207.74999999970166 21.13897195685244 45.224695167324846
  endloop
endfacet
facet normal 1.0 -1.6516025482397576e-16 1.6473337783985787e-16
  outer loop
    vertex 207.74999999970166 17.66427678957296 46.25000000004531
    vertex 207.74999999970166 21.13897195685244 45.224695167324846
    vertex 207.74999999970166 20.908539954085484 45.525000000045345
  endloop
endfacet
facet normal 1.0 -1.6516025482397576e-16 1.6473337783985787e-16
  outer loop
    vertex 207.74999999970166 17.66427678957296 46.25000000004531
    vertex 207.74999999970166 20.908539954085484 45.525000000045345
    vertex 207.74999999970166 20.763684341453764 45.874712384646685
  endloop
endfacet
facet normal 1.0 -1.6516025482397576e-16 1.6473337783985787e-16
  outer loop
    vertex 207.74999999970166 17.66427678957296 46.25000000004531
    vertex 207.74999999970166 20.763684341453764 45.874712384646685
    vertex 207.74999999970166 20.71427678957292 46.25000000004535
  endloop
endfacet
facet normal 1.0 -1.6516025482397576e-16 1.6473337783985787e-16
  outer loop
    vertex 207.74999999970166 17.66427678957296 46.25000000004531
    vertex 207.74999999970166 20.71427678957292 46.25000000004535
    vertex 207.74999999970166 17.83572321023445 49.734980328831
  endloop
endfacet
facet normal 1.0 -1.6516025482397576e-16 1.6473337783985787e-16
  outer loop
    vertex 207.74999999970166 17.83572321023445 49.734980328831
    vertex 207.74999999970166 20.71427678957292 46.25000000004535
    vertex 207.74999999970166 20.763684341453764 46.625287615444
  endloop
endfacet
facet normal 1.0 -1.6516025482397576e-16 1.6473337783985787e-16
  outer loop
    vertex 207.74999999970166 17.83572321023445 49.734980328831
    vertex 207.74999999970166 20.763684341453764 46.625287615444
    vertex 207.74999999970166 20.908539954085484 46.97500000004534
  endloop
endfacet
facet normal 1.0 -1.6516025482397576e-16 1.6473337783985787e-16
  outer loop
    vertex 207.74999999970166 17.83572321023445 49.734980328831
    vertex 207.74999999970166 20.908539954085484 46.97500000004534
    vertex 207.74999999970166 21.13897195685244 47.27530483276584
  endloop
endfacet
facet normal 1.0 -1.6516025482397576e-16 1.6473337783985787e-16
  outer loop
    vertex 207.74999999970166 17.83572321023445 49.734980328831
    vertex 207.74999999970166 21.13897195685244 47.27530483276584
    vertex 207.74999999970166 21.439276789572915 47.50573683553279
  endloop
endfacet
facet normal 1.0 -1.6516025482397576e-16 1.6473337783985787e-16
  outer loop
    vertex 207.74999999970166 17.83572321023445 49.734980328831
    vertex 207.74999999970166 21.439276789572915 47.50573683553279
    vertex 207.74999999970166 21.78898917417428 47.650592448164495
  endloop
endfacet
facet normal 1.0 -1.6516025482397576e-16 1.6473337783985787e-16
  outer loop
    vertex 207.74999999970166 17.83572321023445 49.734980328831
    vertex 207.74999999970166 21.78898917417428 47.650592448164495
    vertex 207.74999999970166 22.16427678957293 47.70000000004535
  endloop
endfacet
facet normal 5.532803031153768e-15 -0.9987920784146431 -0.04913638261163936
  outer loop
    vertex 207.74999999970166 17.835723210234473 42.76501967125961
    vertex 205.69999999970167 17.66427678957296 46.25000000004531
    vertex 205.69999999970167 17.83572321023445 42.76501967125961
  endloop
endfacet
facet normal 5.532803031153768e-15 -0.9987920784146431 -0.04913638261163936
  outer loop
    vertex 205.69999999970167 17.66427678957296 46.25000000004531
    vertex 207.74999999970166 17.835723210234473 42.76501967125961
    vertex 207.74999999970166 17.66427678957296 46.25000000004531
  endloop
endfacet
facet normal 5.480038694866242e-15 -0.9891462075766753 -0.14693461143202707
  outer loop
    vertex 207.74999999970166 18.348406722173387 39.313695666798864
    vertex 205.69999999970167 17.83572321023445 42.76501967125961
    vertex 205.69999999970167 18.34840672217336 39.313695666798864
  endloop
endfacet
facet normal 5.480038694866242e-15 -0.9891462075766753 -0.14693461143202707
  outer loop
    vertex 205.69999999970167 17.83572321023445 42.76501967125961
    vertex 207.74999999970166 18.348406722173387 39.313695666798864
    vertex 207.74999999970166 17.835723210234473 42.76501967125961
  endloop
endfacet
facet normal 5.374350685493871e-15 -0.9699476212493175 -0.24331381389635623
  outer loop
    vertex 207.74999999970166 19.197376065719386 35.92935927381131
    vertex 205.69999999970167 18.34840672217336 39.313695666798864
    vertex 205.69999999970167 19.197376065719364 35.92935927381131
  endloop
endfacet
facet normal 5.374350685493871e-15 -0.9699476212493175 -0.24331381389635623
  outer loop
    vertex 205.69999999970167 18.34840672217336 39.313695666798864
    vertex 207.74999999970166 19.197376065719386 35.92935927381131
    vertex 207.74999999970166 18.348406722173387 39.313695666798864
  endloop
endfacet
facet normal 5.216759688832594e-15 -0.9413817304785619 -0.3373432043500924
  outer loop
    vertex 207.74999999970166 20.374432288547727 32.64469484415004
    vertex 205.69999999970167 19.197376065719364 35.92935927381131
    vertex 205.69999999970167 20.374432288547702 32.64469484415004
  endloop
endfacet
facet normal 5.216759688832594e-15 -0.9413817304785619 -0.3373432043500924
  outer loop
    vertex 205.69999999970167 19.197376065719364 35.92935927381131
    vertex 207.74999999970166 20.374432288547727 32.64469484415004
    vertex 207.74999999970166 19.197376065719386 35.92935927381131
  endloop
endfacet
facet normal 5.008787645666545e-15 -0.9037244113938833 -0.42811469053371587
  outer loop
    vertex 207.74999999970166 21.868207927359702 29.491424144055802
    vertex 205.69999999970167 20.374432288547702 32.64469484415004
    vertex 205.69999999970167 21.86820792735968 29.491424144055802
  endloop
endfacet
facet normal 5.008787645666545e-15 -0.9037244113938833 -0.42811469053371587
  outer loop
    vertex 205.69999999970167 20.374432288547702 32.64469484415004
    vertex 207.74999999970166 21.868207927359702 29.491424144055802
    vertex 207.74999999970166 20.374432288547727 32.64469484415004
  endloop
endfacet
facet normal 7.562375230692246e-15 -0.8573393409245025 -0.514751643516696
  outer loop
    vertex 207.74999999970163 23.664276789572927 26.500000000045365
    vertex 205.69999999970167 21.86820792735968 29.491424144055802
    vertex 205.69999999970167 23.664276789572927 26.50000000004532
  endloop
endfacet
facet normal 7.562375230692246e-15 -0.8573393409245025 -0.514751643516696
  outer loop
    vertex 205.69999999970167 21.86820792735968 29.491424144055802
    vertex 207.74999999970163 23.664276789572927 26.500000000045365
    vertex 207.74999999970166 21.868207927359702 29.491424144055802
  endloop
endfacet
facet normal 8.669646817625574e-15 -0.8573393409244956 0.5147516435167074
  outer loop
    vertex 205.69999999970167 21.868207927359613 63.0085758560348
    vertex 207.74999999970163 23.664276789572927 66.00000000004528
    vertex 205.69999999970162 23.664276789572927 66.00000000004533
  endloop
endfacet
facet normal 8.669646817625574e-15 -0.8573393409244956 0.5147516435167074
  outer loop
    vertex 207.74999999970163 23.664276789572927 66.00000000004528
    vertex 205.69999999970167 21.868207927359613 63.0085758560348
    vertex 207.74999999970166 21.868207927359634 63.0085758560348
  endloop
endfacet
facet normal 5.0029595747211065e-15 -0.903724411393885 0.42811469053371226
  outer loop
    vertex 207.74999999970166 20.37443228854766 59.85530515594056
    vertex 205.69999999970167 21.868207927359613 63.0085758560348
    vertex 205.69999999970167 20.37443228854766 59.85530515594056
  endloop
endfacet
facet normal 5.0029595747211065e-15 -0.903724411393885 0.42811469053371226
  outer loop
    vertex 205.69999999970167 21.868207927359613 63.0085758560348
    vertex 207.74999999970166 20.37443228854766 59.85530515594056
    vertex 207.74999999970166 21.868207927359634 63.0085758560348
  endloop
endfacet
facet normal 5.212167321012974e-15 -0.9413817304785631 0.3373432043500895
  outer loop
    vertex 207.74999999970166 19.197376065719343 56.57064072627929
    vertex 205.69999999970167 20.37443228854766 59.85530515594056
    vertex 205.69999999970167 19.197376065719318 56.57064072627929
  endloop
endfacet
facet normal 5.212167321012974e-15 -0.9413817304785631 0.3373432043500895
  outer loop
    vertex 205.69999999970167 20.37443228854766 59.85530515594056
    vertex 207.74999999970166 19.197376065719343 56.57064072627929
    vertex 207.74999999970166 20.37443228854766 59.85530515594056
  endloop
endfacet
facet normal 5.37103837175938e-15 -0.969947621249319 0.24331381389634985
  outer loop
    vertex 207.74999999970166 18.34840672217336 53.18630433329172
    vertex 205.69999999970167 19.197376065719318 56.57064072627929
    vertex 205.69999999970167 18.34840672217334 53.18630433329172
  endloop
endfacet
facet normal 5.37103837175938e-15 -0.969947621249319 0.24331381389634985
  outer loop
    vertex 205.69999999970167 19.197376065719318 56.57064072627929
    vertex 207.74999999970166 18.34840672217336 53.18630433329172
    vertex 207.74999999970166 19.197376065719343 56.57064072627929
  endloop
endfacet
facet normal 5.478038424007282e-15 -0.9891462075766753 0.14693461143202743
  outer loop
    vertex 207.74999999970166 17.83572321023445 49.734980328831
    vertex 205.69999999970167 18.34840672217334 53.18630433329172
    vertex 205.69999999970167 17.835723210234427 49.734980328831
  endloop
endfacet
facet normal 5.478038424007282e-15 -0.9891462075766753 0.14693461143202743
  outer loop
    vertex 205.69999999970167 18.34840672217334 53.18630433329172
    vertex 207.74999999970166 17.83572321023445 49.734980328831
    vertex 207.74999999970166 18.34840672217336 53.18630433329172
  endloop
endfacet
facet normal 5.532134120858946e-15 -0.9987920784146433 0.04913638261163319
  outer loop
    vertex 207.74999999970166 17.66427678957296 46.25000000004531
    vertex 205.69999999970167 17.835723210234427 49.734980328831
    vertex 205.69999999970167 17.66427678957296 46.25000000004531
  endloop
endfacet
facet normal 5.532134120858946e-15 -0.9987920784146433 0.04913638261163319
  outer loop
    vertex 205.69999999970167 17.835723210234427 49.734980328831
    vertex 207.74999999970166 17.66427678957296 46.25000000004531
    vertex 207.74999999970166 17.83572321023445 49.734980328831
  endloop
endfacet
facet normal 4.467318781354591e-15 0.9987920784146431 -0.04913638261163916
  outer loop
    vertex 207.7499999997017 84.664276789573 46.25000000004533
    vertex 205.69999999970167 84.4928303689115 42.76501967125963
    vertex 205.69999999970167 84.664276789573 46.25000000004533
  endloop
endfacet
facet normal 4.467318781354591e-15 0.9987920784146431 -0.04913638261163916
  outer loop
    vertex 205.69999999970167 84.4928303689115 42.76501967125963
    vertex 207.7499999997017 84.664276789573 46.25000000004533
    vertex 207.7499999997017 84.4928303689115 42.76501967125963
  endloop
endfacet
facet normal 4.4659559356958065e-15 0.9987920784146433 0.0491363826116346
  outer loop
    vertex 207.7499999997017 84.49283036891151 49.73498032883102
    vertex 205.69999999970167 84.664276789573 46.25000000004533
    vertex 205.69999999970167 84.49283036891151 49.73498032883102
  endloop
endfacet
facet normal 4.4659559356958065e-15 0.9987920784146433 0.0491363826116346
  outer loop
    vertex 205.69999999970167 84.664276789573 46.25000000004533
    vertex 207.7499999997017 84.49283036891151 49.73498032883102
    vertex 207.7499999997017 84.664276789573 46.25000000004533
  endloop
endfacet
facet normal 4.421462958095893e-15 0.9891462075766755 0.14693461143202585
  outer loop
    vertex 207.7499999997017 83.98014685697261 53.18630433329175
    vertex 205.69999999970167 84.49283036891151 49.73498032883102
    vertex 205.69999999970167 83.98014685697261 53.18630433329175
  endloop
endfacet
facet normal 4.421462958095893e-15 0.9891462075766755 0.14693461143202585
  outer loop
    vertex 205.69999999970167 84.49283036891151 49.73498032883102
    vertex 207.7499999997017 83.98014685697261 53.18630433329175
    vertex 207.7499999997017 84.49283036891151 49.73498032883102
  endloop
endfacet
facet normal 4.334269541104882e-15 0.969947621249319 0.24331381389634985
  outer loop
    vertex 207.7499999997017 83.13117751342662 56.57064072627931
    vertex 205.69999999970167 83.98014685697261 53.18630433329175
    vertex 205.69999999970167 83.13117751342662 56.57064072627931
  endloop
endfacet
facet normal 4.334269541104882e-15 0.969947621249319 0.24331381389634985
  outer loop
    vertex 205.69999999970167 83.98014685697261 53.18630433329175
    vertex 207.7499999997017 83.13117751342662 56.57064072627931
    vertex 207.7499999997017 83.98014685697261 53.18630433329175
  endloop
endfacet
facet normal 4.205217758319862e-15 0.9413817304785631 0.3373432043500895
  outer loop
    vertex 207.7499999997017 81.9541212905983 59.85530515594059
    vertex 205.69999999970167 83.13117751342662 56.57064072627931
    vertex 205.69999999970167 81.95412129059831 59.85530515594059
  endloop
endfacet
facet normal 4.205217758319862e-15 0.9413817304785631 0.3373432043500895
  outer loop
    vertex 205.69999999970167 83.13117751342662 56.57064072627931
    vertex 207.7499999997017 81.9541212905983 59.85530515594059
    vertex 207.7499999997017 83.13117751342662 56.57064072627931
  endloop
endfacet
facet normal 4.035553932028578e-15 0.903724411393885 0.42811469053371226
  outer loop
    vertex 207.7499999997017 80.46034565178633 63.008575856034824
    vertex 205.69999999970167 81.95412129059831 59.85530515594059
    vertex 205.69999999970167 80.46034565178634 63.008575856034824
  endloop
endfacet
facet normal 4.035553932028578e-15 0.903724411393885 0.42811469053371226
  outer loop
    vertex 205.69999999970167 81.95412129059831 59.85530515594059
    vertex 207.7499999997017 80.46034565178633 63.008575856034824
    vertex 207.7499999997017 81.9541212905983 59.85530515594059
  endloop
endfacet
facet normal 9.577742130224137e-15 0.8573393409244966 0.5147516435167059
  outer loop
    vertex 207.74999999970166 78.66427678957302 66.0000000000453
    vertex 205.69999999970167 80.46034565178634 63.008575856034824
    vertex 205.69999999970162 78.66427678957305 66.00000000004533
  endloop
endfacet
facet normal 9.577742130224137e-15 0.8573393409244966 0.5147516435167059
  outer loop
    vertex 205.69999999970167 80.46034565178634 63.008575856034824
    vertex 207.74999999970166 78.66427678957302 66.0000000000453
    vertex 207.7499999997017 80.46034565178633 63.008575856034824
  endloop
endfacet
facet normal 3.935519920789471e-15 0.8573393409244935 -0.5147516435167111
  outer loop
    vertex 207.7499999997017 80.46034565178626 29.49142414405583
    vertex 205.69999999970167 78.66427678957294 26.50000000004532
    vertex 205.69999999970167 80.46034565178627 29.49142414405583
  endloop
endfacet
facet normal 3.935519920789471e-15 0.8573393409244935 -0.5147516435167111
  outer loop
    vertex 205.69999999970167 78.66427678957294 26.50000000004532
    vertex 207.7499999997017 80.46034565178626 29.49142414405583
    vertex 207.74999999970166 78.66427678957297 26.500000000045365
  endloop
endfacet
facet normal 4.047428111942624e-15 0.9037244113938834 -0.42811469053371587
  outer loop
    vertex 207.7499999997017 81.95412129059824 32.64469484415006
    vertex 205.69999999970167 80.46034565178627 29.49142414405583
    vertex 205.69999999970167 81.95412129059824 32.64469484415006
  endloop
endfacet
facet normal 4.047428111942624e-15 0.9037244113938834 -0.42811469053371587
  outer loop
    vertex 205.69999999970167 80.46034565178627 29.49142414405583
    vertex 207.7499999997017 81.95412129059824 32.64469484415006
    vertex 207.7499999997017 80.46034565178626 29.49142414405583
  endloop
endfacet
facet normal 4.214574302231587e-15 0.9413817304785613 -0.3373432043500939
  outer loop
    vertex 207.7499999997017 83.13117751342658 35.929359273811336
    vertex 205.69999999970167 81.95412129059824 32.64469484415006
    vertex 205.69999999970167 83.13117751342658 35.929359273811336
  endloop
endfacet
facet normal 4.214574302231587e-15 0.9413817304785613 -0.3373432043500939
  outer loop
    vertex 205.69999999970167 81.95412129059824 32.64469484415006
    vertex 207.7499999997017 83.13117751342658 35.929359273811336
    vertex 207.7499999997017 81.95412129059824 32.64469484415006
  endloop
endfacet
facet normal 4.341018087851025e-15 0.9699476212493179 -0.24331381389635467
  outer loop
    vertex 207.7499999997017 83.98014685697258 39.313695666798885
    vertex 205.69999999970167 83.13117751342658 35.929359273811336
    vertex 205.69999999970167 83.98014685697258 39.313695666798885
  endloop
endfacet
facet normal 4.341018087851025e-15 0.9699476212493179 -0.24331381389635467
  outer loop
    vertex 205.69999999970167 83.13117751342658 35.929359273811336
    vertex 207.7499999997017 83.98014685697258 39.313695666798885
    vertex 207.7499999997017 83.13117751342658 35.929359273811336
  endloop
endfacet
facet normal 4.425538333340712e-15 0.9891462075766752 -0.14693461143202868
  outer loop
    vertex 207.7499999997017 84.4928303689115 42.76501967125963
    vertex 205.69999999970167 83.98014685697258 39.313695666798885
    vertex 205.69999999970167 84.4928303689115 42.76501967125963
  endloop
endfacet
facet normal 4.425538333340712e-15 0.9891462075766752 -0.14693461143202868
  outer loop
    vertex 205.69999999970167 83.98014685697258 39.313695666798885
    vertex 207.7499999997017 84.4928303689115 42.76501967125963
    vertex 207.7499999997017 83.98014685697258 39.313695666798885
  endloop
endfacet
facet normal 5.310799471928765e-17 0.382683432365085 0.9238795325112887
  outer loop
    vertex 205.69999999970167 21.439276789572915 44.99426316455791
    vertex 207.74999999970166 21.78898917417428 44.8494075519262
    vertex 205.69999999970167 21.78898917417428 44.8494075519262
  endloop
endfacet
facet normal 5.310799471928765e-17 0.382683432365085 0.9238795325112887
  outer loop
    vertex 207.74999999970166 21.78898917417428 44.8494075519262
    vertex 205.69999999970167 21.439276789572915 44.99426316455791
    vertex 207.74999999970166 21.439276789572915 44.99426316455791
  endloop
endfacet
facet normal 1.8114147989918656e-17 0.13052619222005069 0.9914448613738106
  outer loop
    vertex 205.69999999970167 21.78898917417428 44.8494075519262
    vertex 207.74999999970166 22.16427678957293 44.800000000045344
    vertex 205.69999999970167 22.16427678957293 44.800000000045344
  endloop
endfacet
facet normal 1.8114147989918656e-17 0.13052619222005069 0.9914448613738106
  outer loop
    vertex 207.74999999970166 22.16427678957293 44.800000000045344
    vertex 205.69999999970167 21.78898917417428 44.8494075519262
    vertex 207.74999999970166 21.78898917417428 44.8494075519262
  endloop
endfacet
facet normal -1.8114147989918656e-17 -0.13052619222005069 0.9914448613738106
  outer loop
    vertex 205.69999999970167 22.16427678957293 44.800000000045344
    vertex 207.74999999970166 22.539564404971582 44.8494075519262
    vertex 205.69999999970167 22.539564404971582 44.8494075519262
  endloop
endfacet
facet normal -1.8114147989918656e-17 -0.13052619222005069 0.9914448613738106
  outer loop
    vertex 207.74999999970166 22.539564404971582 44.8494075519262
    vertex 205.69999999970167 22.16427678957293 44.800000000045344
    vertex 207.74999999970166 22.16427678957293 44.800000000045344
  endloop
endfacet
facet normal -5.310799471928765e-17 -0.382683432365085 0.9238795325112887
  outer loop
    vertex 205.69999999970167 22.539564404971582 44.8494075519262
    vertex 207.74999999970166 22.88927678957292 44.99426316455791
    vertex 205.69999999970167 22.88927678957292 44.99426316455791
  endloop
endfacet
facet normal -5.310799471928765e-17 -0.382683432365085 0.9238795325112887
  outer loop
    vertex 207.74999999970166 22.88927678957292 44.99426316455791
    vertex 205.69999999970167 22.539564404971582 44.8494075519262
    vertex 207.74999999970166 22.539564404971582 44.8494075519262
  endloop
endfacet
facet normal -8.448261937365047e-17 -0.6087614290087291 0.7933533402912288
  outer loop
    vertex 205.69999999970167 22.88927678957292 44.99426316455791
    vertex 207.74999999970166 23.18958162229342 45.224695167324846
    vertex 205.69999999970167 23.18958162229342 45.224695167324846
  endloop
endfacet
facet normal -8.448261937365047e-17 -0.6087614290087291 0.7933533402912288
  outer loop
    vertex 207.74999999970166 23.18958162229342 45.224695167324846
    vertex 205.69999999970167 22.88927678957292 44.99426316455791
    vertex 207.74999999970166 22.88927678957292 44.99426316455791
  endloop
endfacet
facet normal -1.1009989313182552e-16 -0.7933533402912334 0.6087614290087229
  outer loop
    vertex 207.74999999970166 23.18958162229342 45.224695167324846
    vertex 205.69999999970167 23.420013625060353 45.525000000045345
    vertex 205.69999999970167 23.18958162229342 45.224695167324846
  endloop
endfacet
facet normal -1.1009989313182552e-16 -0.7933533402912334 0.6087614290087229
  outer loop
    vertex 205.69999999970167 23.420013625060353 45.525000000045345
    vertex 207.74999999970166 23.18958162229342 45.224695167324846
    vertex 207.74999999970166 23.420013625060353 45.525000000045345
  endloop
endfacet
facet normal -1.2821404112174367e-16 -0.9238795325112803 0.38268343236510566
  outer loop
    vertex 207.74999999970166 23.420013625060353 45.525000000045345
    vertex 205.69999999970167 23.564869237692072 45.874712384646685
    vertex 205.69999999970167 23.420013625060353 45.525000000045345
  endloop
endfacet
facet normal -1.2821404112174367e-16 -0.9238795325112803 0.38268343236510566
  outer loop
    vertex 205.69999999970167 23.564869237692072 45.874712384646685
    vertex 207.74999999970166 23.420013625060353 45.525000000045345
    vertex 207.74999999970166 23.564869237692072 45.874712384646685
  endloop
endfacet
facet normal -1.3759061409293792e-16 -0.9914448613738127 0.1305261922200341
  outer loop
    vertex 207.74999999970166 23.564869237692072 45.874712384646685
    vertex 205.69999999970167 23.614276789572916 46.25000000004535
    vertex 205.69999999970167 23.564869237692072 45.874712384646685
  endloop
endfacet
facet normal -1.3759061409293792e-16 -0.9914448613738127 0.1305261922200341
  outer loop
    vertex 205.69999999970167 23.614276789572916 46.25000000004535
    vertex 207.74999999970166 23.564869237692072 45.874712384646685
    vertex 207.74999999970166 23.614276789572916 46.25000000004535
  endloop
endfacet
facet normal -1.375906140929379e-16 -0.9914448613738126 -0.13052619222003506
  outer loop
    vertex 207.74999999970166 23.614276789572916 46.25000000004535
    vertex 205.69999999970167 23.564869237692072 46.625287615444
    vertex 205.69999999970167 23.614276789572916 46.25000000004535
  endloop
endfacet
facet normal -1.375906140929379e-16 -0.9914448613738126 -0.13052619222003506
  outer loop
    vertex 205.69999999970167 23.564869237692072 46.625287615444
    vertex 207.74999999970166 23.614276789572916 46.25000000004535
    vertex 207.74999999970166 23.564869237692072 46.625287615444
  endloop
endfacet
facet normal -1.2821404112174367e-16 -0.9238795325112803 -0.38268343236510566
  outer loop
    vertex 207.74999999970166 23.564869237692072 46.625287615444
    vertex 205.69999999970167 23.420013625060353 46.97500000004534
    vertex 205.69999999970167 23.564869237692072 46.625287615444
  endloop
endfacet
facet normal -1.2821404112174367e-16 -0.9238795325112803 -0.38268343236510566
  outer loop
    vertex 205.69999999970167 23.420013625060353 46.97500000004534
    vertex 207.74999999970166 23.564869237692072 46.625287615444
    vertex 207.74999999970166 23.420013625060353 46.97500000004534
  endloop
endfacet
facet normal -1.1009989313182591e-16 -0.7933533402912362 -0.6087614290087192
  outer loop
    vertex 207.74999999970166 23.420013625060353 46.97500000004534
    vertex 205.69999999970167 23.18958162229342 47.27530483276584
    vertex 205.69999999970167 23.420013625060353 46.97500000004534
  endloop
endfacet
facet normal -1.1009989313182591e-16 -0.7933533402912362 -0.6087614290087192
  outer loop
    vertex 205.69999999970167 23.18958162229342 47.27530483276584
    vertex 207.74999999970166 23.420013625060353 46.97500000004534
    vertex 207.74999999970166 23.18958162229342 47.27530483276584
  endloop
endfacet
facet normal -8.448261937365047e-17 -0.6087614290087291 -0.7933533402912288
  outer loop
    vertex 207.74999999970166 22.88927678957292 47.50573683553279
    vertex 205.69999999970167 23.18958162229342 47.27530483276584
    vertex 207.74999999970166 23.18958162229342 47.27530483276584
  endloop
endfacet
facet normal -8.448261937365047e-17 -0.6087614290087291 -0.7933533402912288
  outer loop
    vertex 205.69999999970167 23.18958162229342 47.27530483276584
    vertex 207.74999999970166 22.88927678957292 47.50573683553279
    vertex 205.69999999970167 22.88927678957292 47.50573683553279
  endloop
endfacet
facet normal -5.310799471928765e-17 -0.382683432365085 -0.9238795325112887
  outer loop
    vertex 207.74999999970166 22.539564404971582 47.650592448164495
    vertex 205.69999999970167 22.88927678957292 47.50573683553279
    vertex 207.74999999970166 22.88927678957292 47.50573683553279
  endloop
endfacet
facet normal -5.310799471928765e-17 -0.382683432365085 -0.9238795325112887
  outer loop
    vertex 205.69999999970167 22.88927678957292 47.50573683553279
    vertex 207.74999999970166 22.539564404971582 47.650592448164495
    vertex 205.69999999970167 22.539564404971582 47.650592448164495
  endloop
endfacet
facet normal -1.8114147989918656e-17 -0.13052619222005069 -0.9914448613738106
  outer loop
    vertex 207.74999999970166 22.16427678957293 47.70000000004535
    vertex 205.69999999970167 22.539564404971582 47.650592448164495
    vertex 207.74999999970166 22.539564404971582 47.650592448164495
  endloop
endfacet
facet normal -1.8114147989918656e-17 -0.13052619222005069 -0.9914448613738106
  outer loop
    vertex 205.69999999970167 22.539564404971582 47.650592448164495
    vertex 207.74999999970166 22.16427678957293 47.70000000004535
    vertex 205.69999999970167 22.16427678957293 47.70000000004535
  endloop
endfacet
facet normal 1.8114147989918656e-17 0.13052619222005069 -0.9914448613738106
  outer loop
    vertex 207.74999999970166 21.78898917417428 47.650592448164495
    vertex 205.69999999970167 22.16427678957293 47.70000000004535
    vertex 207.74999999970166 22.16427678957293 47.70000000004535
  endloop
endfacet
facet normal 1.8114147989918656e-17 0.13052619222005069 -0.9914448613738106
  outer loop
    vertex 205.69999999970167 22.16427678957293 47.70000000004535
    vertex 207.74999999970166 21.78898917417428 47.650592448164495
    vertex 205.69999999970167 21.78898917417428 47.650592448164495
  endloop
endfacet
facet normal 5.310799471928765e-17 0.382683432365085 -0.9238795325112887
  outer loop
    vertex 207.74999999970166 21.439276789572915 47.50573683553279
    vertex 205.69999999970167 21.78898917417428 47.650592448164495
    vertex 207.74999999970166 21.78898917417428 47.650592448164495
  endloop
endfacet
facet normal 5.310799471928765e-17 0.382683432365085 -0.9238795325112887
  outer loop
    vertex 205.69999999970167 21.78898917417428 47.650592448164495
    vertex 207.74999999970166 21.439276789572915 47.50573683553279
    vertex 205.69999999970167 21.439276789572915 47.50573683553279
  endloop
endfacet
facet normal 8.448261937365047e-17 0.6087614290087291 -0.7933533402912288
  outer loop
    vertex 207.74999999970166 21.13897195685244 47.27530483276584
    vertex 205.69999999970167 21.439276789572915 47.50573683553279
    vertex 207.74999999970166 21.439276789572915 47.50573683553279
  endloop
endfacet
facet normal 8.448261937365047e-17 0.6087614290087291 -0.7933533402912288
  outer loop
    vertex 205.69999999970167 21.439276789572915 47.50573683553279
    vertex 207.74999999970166 21.13897195685244 47.27530483276584
    vertex 205.69999999970167 21.13897195685244 47.27530483276584
  endloop
endfacet
facet normal 1.1009989313182552e-16 0.7933533402912334 -0.6087614290087229
  outer loop
    vertex 207.74999999970166 21.13897195685244 47.27530483276584
    vertex 205.69999999970167 20.908539954085484 46.97500000004534
    vertex 205.69999999970167 21.13897195685244 47.27530483276584
  endloop
endfacet
facet normal 1.1009989313182552e-16 0.7933533402912334 -0.6087614290087229
  outer loop
    vertex 205.69999999970167 20.908539954085484 46.97500000004534
    vertex 207.74999999970166 21.13897195685244 47.27530483276584
    vertex 207.74999999970166 20.908539954085484 46.97500000004534
  endloop
endfacet
facet normal 1.282140411217438e-16 0.9238795325112813 -0.382683432365103
  outer loop
    vertex 207.74999999970166 20.908539954085484 46.97500000004534
    vertex 205.69999999970167 20.763684341453764 46.625287615444
    vertex 205.69999999970167 20.908539954085484 46.97500000004534
  endloop
endfacet
facet normal 1.282140411217438e-16 0.9238795325112813 -0.382683432365103
  outer loop
    vertex 205.69999999970167 20.763684341453764 46.625287615444
    vertex 207.74999999970166 20.908539954085484 46.97500000004534
    vertex 207.74999999970166 20.763684341453764 46.625287615444
  endloop
endfacet
facet normal 1.375906140929379e-16 0.9914448613738126 -0.13052619222003506
  outer loop
    vertex 207.74999999970166 20.763684341453764 46.625287615444
    vertex 205.69999999970167 20.71427678957292 46.25000000004535
    vertex 205.69999999970167 20.763684341453764 46.625287615444
  endloop
endfacet
facet normal 1.375906140929379e-16 0.9914448613738126 -0.13052619222003506
  outer loop
    vertex 205.69999999970167 20.71427678957292 46.25000000004535
    vertex 207.74999999970166 20.763684341453764 46.625287615444
    vertex 207.74999999970166 20.71427678957292 46.25000000004535
  endloop
endfacet
facet normal 1.375906140929379e-16 0.9914448613738126 0.13052619222003506
  outer loop
    vertex 207.74999999970166 20.71427678957292 46.25000000004535
    vertex 205.69999999970167 20.763684341453764 45.874712384646685
    vertex 205.69999999970167 20.71427678957292 46.25000000004535
  endloop
endfacet
facet normal 1.375906140929379e-16 0.9914448613738126 0.13052619222003506
  outer loop
    vertex 205.69999999970167 20.763684341453764 45.874712384646685
    vertex 207.74999999970166 20.71427678957292 46.25000000004535
    vertex 207.74999999970166 20.763684341453764 45.874712384646685
  endloop
endfacet
facet normal 1.2821404112174367e-16 0.9238795325112803 0.38268343236510566
  outer loop
    vertex 207.74999999970166 20.763684341453764 45.874712384646685
    vertex 205.69999999970167 20.908539954085484 45.525000000045345
    vertex 205.69999999970167 20.763684341453764 45.874712384646685
  endloop
endfacet
facet normal 1.2821404112174367e-16 0.9238795325112803 0.38268343236510566
  outer loop
    vertex 205.69999999970167 20.908539954085484 45.525000000045345
    vertex 207.74999999970166 20.763684341453764 45.874712384646685
    vertex 207.74999999970166 20.908539954085484 45.525000000045345
  endloop
endfacet
facet normal 1.1009989313182591e-16 0.7933533402912362 0.6087614290087192
  outer loop
    vertex 207.74999999970166 20.908539954085484 45.525000000045345
    vertex 205.69999999970167 21.13897195685244 45.224695167324846
    vertex 205.69999999970167 20.908539954085484 45.525000000045345
  endloop
endfacet
facet normal 1.1009989313182591e-16 0.7933533402912362 0.6087614290087192
  outer loop
    vertex 205.69999999970167 21.13897195685244 45.224695167324846
    vertex 207.74999999970166 20.908539954085484 45.525000000045345
    vertex 207.74999999970166 21.13897195685244 45.224695167324846
  endloop
endfacet
facet normal 8.448261937365047e-17 0.6087614290087291 0.7933533402912288
  outer loop
    vertex 205.69999999970167 21.13897195685244 45.224695167324846
    vertex 207.74999999970166 21.439276789572915 44.99426316455791
    vertex 205.69999999970167 21.439276789572915 44.99426316455791
  endloop
endfacet
facet normal 8.448261937365047e-17 0.6087614290087291 0.7933533402912288
  outer loop
    vertex 207.74999999970166 21.439276789572915 44.99426316455791
    vertex 205.69999999970167 21.13897195685244 45.224695167324846
    vertex 207.74999999970166 21.13897195685244 45.224695167324846
  endloop
endfacet
facet normal -1.3759061409293763e-16 -0.9914448613738105 -0.1305261922200506
  outer loop
    vertex 207.74999999970166 81.61427678957294 46.25000000004535
    vertex 205.69999999970167 81.56486923769208 46.625287615444
    vertex 205.69999999970167 81.61427678957294 46.25000000004535
  endloop
endfacet
facet normal -1.3759061409293763e-16 -0.9914448613738105 -0.1305261922200506
  outer loop
    vertex 205.69999999970167 81.56486923769208 46.625287615444
    vertex 207.74999999970166 81.61427678957294 46.25000000004535
    vertex 207.74999999970166 81.56486923769208 46.625287615444
  endloop
endfacet
facet normal -1.2821404112174456e-16 -0.9238795325112867 -0.3826834323650897
  outer loop
    vertex 207.74999999970166 81.56486923769208 46.625287615444
    vertex 205.69999999970167 81.42001362506036 46.97500000004534
    vertex 205.69999999970167 81.56486923769208 46.625287615444
  endloop
endfacet
facet normal -1.2821404112174456e-16 -0.9238795325112867 -0.3826834323650897
  outer loop
    vertex 205.69999999970167 81.42001362506036 46.97500000004534
    vertex 207.74999999970166 81.56486923769208 46.625287615444
    vertex 207.74999999970166 81.42001362506036 46.97500000004534
  endloop
endfacet
facet normal -1.1009989313182605e-16 -0.7933533402912372 -0.6087614290087181
  outer loop
    vertex 207.74999999970166 81.42001362506036 46.97500000004534
    vertex 205.69999999970167 81.18958162229343 47.27530483276584
    vertex 205.69999999970167 81.42001362506036 46.97500000004534
  endloop
endfacet
facet normal -1.1009989313182605e-16 -0.7933533402912372 -0.6087614290087181
  outer loop
    vertex 205.69999999970167 81.18958162229343 47.27530483276584
    vertex 207.74999999970166 81.42001362506036 46.97500000004534
    vertex 207.74999999970166 81.18958162229343 47.27530483276584
  endloop
endfacet
facet normal -8.448261937364903e-17 -0.6087614290087187 -0.7933533402912366
  outer loop
    vertex 207.74999999970166 80.88927678957293 47.50573683553279
    vertex 205.69999999970167 81.18958162229343 47.27530483276584
    vertex 207.74999999970166 81.18958162229343 47.27530483276584
  endloop
endfacet
facet normal -8.448261937364903e-17 -0.6087614290087187 -0.7933533402912366
  outer loop
    vertex 205.69999999970167 81.18958162229343 47.27530483276584
    vertex 207.74999999970166 80.88927678957293 47.50573683553279
    vertex 205.69999999970167 80.88927678957293 47.50573683553279
  endloop
endfacet
facet normal -5.3107994719288715e-17 -0.38268343236509267 -0.9238795325112857
  outer loop
    vertex 207.74999999970166 80.53956440497159 47.650592448164495
    vertex 205.69999999970167 80.88927678957293 47.50573683553279
    vertex 207.74999999970166 80.88927678957293 47.50573683553279
  endloop
endfacet
facet normal -5.3107994719288715e-17 -0.38268343236509267 -0.9238795325112857
  outer loop
    vertex 205.69999999970167 80.88927678957293 47.50573683553279
    vertex 207.74999999970166 80.53956440497159 47.650592448164495
    vertex 205.69999999970167 80.53956440497159 47.650592448164495
  endloop
endfacet
facet normal -1.8114147989918437e-17 -0.1305261922200491 -0.9914448613738107
  outer loop
    vertex 207.74999999970166 80.16427678957294 47.70000000004535
    vertex 205.69999999970167 80.53956440497159 47.650592448164495
    vertex 207.74999999970166 80.53956440497159 47.650592448164495
  endloop
endfacet
facet normal -1.8114147989918437e-17 -0.1305261922200491 -0.9914448613738107
  outer loop
    vertex 205.69999999970167 80.53956440497159 47.650592448164495
    vertex 207.74999999970166 80.16427678957294 47.70000000004535
    vertex 205.69999999970167 80.16427678957294 47.70000000004535
  endloop
endfacet
facet normal 1.8114147989918487e-17 0.13052619222004946 -0.9914448613738107
  outer loop
    vertex 207.74999999970166 79.78898917417428 47.650592448164495
    vertex 205.69999999970167 80.16427678957294 47.70000000004535
    vertex 207.74999999970166 80.16427678957294 47.70000000004535
  endloop
endfacet
facet normal 1.8114147989918487e-17 0.13052619222004946 -0.9914448613738107
  outer loop
    vertex 205.69999999970167 80.16427678957294 47.70000000004535
    vertex 207.74999999970166 79.78898917417428 47.650592448164495
    vertex 205.69999999970167 79.78898917417428 47.650592448164495
  endloop
endfacet
facet normal 5.310799471928866e-17 0.3826834323650923 -0.9238795325112859
  outer loop
    vertex 207.74999999970166 79.43927678957293 47.50573683553279
    vertex 205.69999999970167 79.78898917417428 47.650592448164495
    vertex 207.74999999970166 79.78898917417428 47.650592448164495
  endloop
endfacet
facet normal 5.310799471928866e-17 0.3826834323650923 -0.9238795325112859
  outer loop
    vertex 205.69999999970167 79.78898917417428 47.650592448164495
    vertex 207.74999999970166 79.43927678957293 47.50573683553279
    vertex 205.69999999970167 79.43927678957293 47.50573683553279
  endloop
endfacet
facet normal 8.448261937364896e-17 0.6087614290087182 -0.7933533402912372
  outer loop
    vertex 207.74999999970166 79.13897195685243 47.27530483276584
    vertex 205.69999999970167 79.43927678957293 47.50573683553279
    vertex 207.74999999970166 79.43927678957293 47.50573683553279
  endloop
endfacet
facet normal 8.448261937364896e-17 0.6087614290087182 -0.7933533402912372
  outer loop
    vertex 205.69999999970167 79.43927678957293 47.50573683553279
    vertex 207.74999999970166 79.13897195685243 47.27530483276584
    vertex 205.69999999970167 79.13897195685243 47.27530483276584
  endloop
endfacet
facet normal 1.1009989313182575e-16 0.7933533402912352 -0.6087614290087205
  outer loop
    vertex 207.74999999970166 79.13897195685243 47.27530483276584
    vertex 205.69999999970167 78.9085399540855 46.97500000004534
    vertex 205.69999999970167 79.13897195685243 47.27530483276584
  endloop
endfacet
facet normal 1.1009989313182575e-16 0.7933533402912352 -0.6087614290087205
  outer loop
    vertex 205.69999999970167 78.9085399540855 46.97500000004534
    vertex 207.74999999970166 79.13897195685243 47.27530483276584
    vertex 207.74999999970166 78.9085399540855 46.97500000004534
  endloop
endfacet
facet normal 1.2821404112174463e-16 0.9238795325112873 -0.3826834323650887
  outer loop
    vertex 207.74999999970166 78.9085399540855 46.97500000004534
    vertex 205.69999999970167 78.76368434145378 46.625287615444
    vertex 205.69999999970167 78.9085399540855 46.97500000004534
  endloop
endfacet
facet normal 1.2821404112174463e-16 0.9238795325112873 -0.3826834323650887
  outer loop
    vertex 205.69999999970167 78.76368434145378 46.625287615444
    vertex 207.74999999970166 78.9085399540855 46.97500000004534
    vertex 207.74999999970166 78.76368434145378 46.625287615444
  endloop
endfacet
facet normal 1.3759061409293763e-16 0.9914448613738105 -0.13052619222005155
  outer loop
    vertex 207.74999999970166 78.76368434145378 46.625287615444
    vertex 205.69999999970167 78.71427678957292 46.25000000004535
    vertex 205.69999999970167 78.76368434145378 46.625287615444
  endloop
endfacet
facet normal 1.3759061409293763e-16 0.9914448613738105 -0.13052619222005155
  outer loop
    vertex 205.69999999970167 78.71427678957292 46.25000000004535
    vertex 207.74999999970166 78.76368434145378 46.625287615444
    vertex 207.74999999970166 78.71427678957292 46.25000000004535
  endloop
endfacet
facet normal 1.3759061409293763e-16 0.9914448613738105 0.13052619222005155
  outer loop
    vertex 207.74999999970166 78.71427678957292 46.25000000004535
    vertex 205.69999999970167 78.76368434145378 45.874712384646685
    vertex 205.69999999970167 78.71427678957292 46.25000000004535
  endloop
endfacet
facet normal 1.3759061409293763e-16 0.9914448613738105 0.13052619222005155
  outer loop
    vertex 205.69999999970167 78.76368434145378 45.874712384646685
    vertex 207.74999999970166 78.71427678957292 46.25000000004535
    vertex 207.74999999970166 78.76368434145378 45.874712384646685
  endloop
endfacet
facet normal 1.2821404112174456e-16 0.9238795325112867 0.3826834323650897
  outer loop
    vertex 207.74999999970166 78.76368434145378 45.874712384646685
    vertex 205.69999999970167 78.9085399540855 45.525000000045345
    vertex 205.69999999970167 78.76368434145378 45.874712384646685
  endloop
endfacet
facet normal 1.2821404112174456e-16 0.9238795325112867 0.3826834323650897
  outer loop
    vertex 205.69999999970167 78.9085399540855 45.525000000045345
    vertex 207.74999999970166 78.76368434145378 45.874712384646685
    vertex 207.74999999970166 78.9085399540855 45.525000000045345
  endloop
endfacet
facet normal 1.1009989313182605e-16 0.7933533402912372 0.6087614290087181
  outer loop
    vertex 207.74999999970166 78.9085399540855 45.525000000045345
    vertex 205.69999999970167 79.13897195685243 45.224695167324846
    vertex 205.69999999970167 78.9085399540855 45.525000000045345
  endloop
endfacet
facet normal 1.1009989313182605e-16 0.7933533402912372 0.6087614290087181
  outer loop
    vertex 205.69999999970167 79.13897195685243 45.224695167324846
    vertex 207.74999999970166 78.9085399540855 45.525000000045345
    vertex 207.74999999970166 79.13897195685243 45.224695167324846
  endloop
endfacet
facet normal 8.448261937364903e-17 0.6087614290087187 0.7933533402912366
  outer loop
    vertex 205.69999999970167 79.13897195685243 45.224695167324846
    vertex 207.74999999970166 79.43927678957293 44.99426316455791
    vertex 205.69999999970167 79.43927678957293 44.99426316455791
  endloop
endfacet
facet normal 8.448261937364903e-17 0.6087614290087187 0.7933533402912366
  outer loop
    vertex 207.74999999970166 79.43927678957293 44.99426316455791
    vertex 205.69999999970167 79.13897195685243 45.224695167324846
    vertex 207.74999999970166 79.13897195685243 45.224695167324846
  endloop
endfacet
facet normal 5.31079947192886e-17 0.3826834323650919 0.9238795325112859
  outer loop
    vertex 205.69999999970167 79.43927678957293 44.99426316455791
    vertex 207.74999999970166 79.78898917417428 44.8494075519262
    vertex 205.69999999970167 79.78898917417428 44.8494075519262
  endloop
endfacet
facet normal 5.31079947192886e-17 0.3826834323650919 0.9238795325112859
  outer loop
    vertex 207.74999999970166 79.78898917417428 44.8494075519262
    vertex 205.69999999970167 79.43927678957293 44.99426316455791
    vertex 207.74999999970166 79.43927678957293 44.99426316455791
  endloop
endfacet
facet normal 1.81141479899185e-17 0.13052619222004955 0.9914448613738108
  outer loop
    vertex 205.69999999970167 79.78898917417428 44.8494075519262
    vertex 207.74999999970166 80.16427678957294 44.800000000045344
    vertex 205.69999999970167 80.16427678957294 44.800000000045344
  endloop
endfacet
facet normal 1.81141479899185e-17 0.13052619222004955 0.9914448613738108
  outer loop
    vertex 207.74999999970166 80.16427678957294 44.800000000045344
    vertex 205.69999999970167 79.78898917417428 44.8494075519262
    vertex 207.74999999970166 79.78898917417428 44.8494075519262
  endloop
endfacet
facet normal -1.8114147989918514e-17 -0.13052619222004966 0.9914448613738107
  outer loop
    vertex 205.69999999970167 80.16427678957294 44.800000000045344
    vertex 207.74999999970166 80.53956440497159 44.8494075519262
    vertex 205.69999999970167 80.53956440497159 44.8494075519262
  endloop
endfacet
facet normal -1.8114147989918514e-17 -0.13052619222004966 0.9914448613738107
  outer loop
    vertex 207.74999999970166 80.53956440497159 44.8494075519262
    vertex 205.69999999970167 80.16427678957294 44.800000000045344
    vertex 207.74999999970166 80.16427678957294 44.800000000045344
  endloop
endfacet
facet normal -5.31079947192886e-17 -0.3826834323650919 0.9238795325112859
  outer loop
    vertex 205.69999999970167 80.53956440497159 44.8494075519262
    vertex 207.74999999970166 80.88927678957293 44.99426316455791
    vertex 205.69999999970167 80.88927678957293 44.99426316455791
  endloop
endfacet
facet normal -5.31079947192886e-17 -0.3826834323650919 0.9238795325112859
  outer loop
    vertex 207.74999999970166 80.88927678957293 44.99426316455791
    vertex 205.69999999970167 80.53956440497159 44.8494075519262
    vertex 207.74999999970166 80.53956440497159 44.8494075519262
  endloop
endfacet
facet normal -8.448261937364896e-17 -0.6087614290087182 0.7933533402912372
  outer loop
    vertex 205.69999999970167 80.88927678957293 44.99426316455791
    vertex 207.74999999970166 81.18958162229343 45.224695167324846
    vertex 205.69999999970167 81.18958162229343 45.224695167324846
  endloop
endfacet
facet normal -8.448261937364896e-17 -0.6087614290087182 0.7933533402912372
  outer loop
    vertex 207.74999999970166 81.18958162229343 45.224695167324846
    vertex 205.69999999970167 80.88927678957293 44.99426316455791
    vertex 207.74999999970166 80.88927678957293 44.99426316455791
  endloop
endfacet
facet normal -1.1009989313182575e-16 -0.7933533402912352 0.6087614290087205
  outer loop
    vertex 207.74999999970166 81.18958162229343 45.224695167324846
    vertex 205.69999999970167 81.42001362506036 45.525000000045345
    vertex 205.69999999970167 81.18958162229343 45.224695167324846
  endloop
endfacet
facet normal -1.1009989313182575e-16 -0.7933533402912352 0.6087614290087205
  outer loop
    vertex 205.69999999970167 81.42001362506036 45.525000000045345
    vertex 207.74999999970166 81.18958162229343 45.224695167324846
    vertex 207.74999999970166 81.42001362506036 45.525000000045345
  endloop
endfacet
facet normal -1.2821404112174448e-16 -0.9238795325112862 0.38268343236509134
  outer loop
    vertex 207.74999999970166 81.42001362506036 45.525000000045345
    vertex 205.69999999970167 81.56486923769208 45.874712384646685
    vertex 205.69999999970167 81.42001362506036 45.525000000045345
  endloop
endfacet
facet normal -1.2821404112174448e-16 -0.9238795325112862 0.38268343236509134
  outer loop
    vertex 205.69999999970167 81.56486923769208 45.874712384646685
    vertex 207.74999999970166 81.42001362506036 45.525000000045345
    vertex 207.74999999970166 81.56486923769208 45.874712384646685
  endloop
endfacet
facet normal -1.375906140929376e-16 -0.9914448613738104 0.1305261922200515
  outer loop
    vertex 207.74999999970166 81.56486923769208 45.874712384646685
    vertex 205.69999999970167 81.61427678957294 46.25000000004535
    vertex 205.69999999970167 81.56486923769208 45.874712384646685
  endloop
endfacet
facet normal -1.375906140929376e-16 -0.9914448613738104 0.1305261922200515
  outer loop
    vertex 205.69999999970167 81.61427678957294 46.25000000004535
    vertex 207.74999999970166 81.56486923769208 45.874712384646685
    vertex 207.74999999970166 81.61427678957294 46.25000000004535
  endloop
endfacet
endsolid whole case
